STARTFONT 2.1
FONT -Unscii-Unscii-Medium-R-Normal-16-16-160-75-75-c-80-iso10646-1
SIZE 16 75 75
FONTBOUNDINGBOX 16 16 0 0

STARTPROPERTIES 26
COPYRIGHT ""
FONT_VERSION "1.1"
FONT_TYPE "Bitmap"
FOUNDRY "Unscii"
FAMILY_NAME "Unscii"
WEIGHT_NAME "Medium"
SLANT "R"
SETWIDTH_NAME "Normal"
ADD_STYLE_NAME "16"
PIXEL_SIZE 16
POINT_SIZE 160
RESOLUTION_X 75
RESOLUTION_Y 75
SPACING "C"
AVERAGE_WIDTH 80
CHARSET_REGISTRY "ISO10646"
CHARSET_ENCODING "1"
UNDERLINE_POSITION 1
UNDERLINE_THICKNESS 1
CAP_HEIGHT 11
X_HEIGHT 7
WEIGHT 10
QUAD_WIDTH 12
DEFAULT_CHAR 63
FONT_DESCENT 0
FONT_ASCENT 16
ENDPROPERTIES

CHARS 2415

STARTCHAR U+0000
ENCODING 0
SWIDTH 500 0
DWIDTH 8 0
BBX 8 16 0 0
BITMAP
00
00
00
00
00
00
00
00
00
00
00
00
00
00
00
00
ENDCHAR

STARTCHAR U+0001
ENCODING 1
SWIDTH 500 0
DWIDTH 8 0
BBX 8 16 0 0
BITMAP
E0
E0
80
80
EA
EA
2A
2A
EE
EE
0A
0A
0A
0A
00
00
ENDCHAR

STARTCHAR U+0002
ENCODING 2
SWIDTH 500 0
DWIDTH 8 0
BBX 8 16 0 0
BITMAP
E0
E0
80
80
EA
EA
2A
2A
E4
E4
0A
0A
0A
0A
00
00
ENDCHAR

STARTCHAR U+0003
ENCODING 3
SWIDTH 500 0
DWIDTH 8 0
BBX 8 16 0 0
BITMAP
E0
E0
80
80
CA
CA
8A
8A
E4
E4
0A
0A
0A
0A
00
00
ENDCHAR

STARTCHAR U+0004
ENCODING 4
SWIDTH 500 0
DWIDTH 8 0
BBX 8 16 0 0
BITMAP
E0
E0
80
80
CE
CE
84
84
E4
E4
04
04
04
04
00
00
ENDCHAR

STARTCHAR U+0005
ENCODING 5
SWIDTH 500 0
DWIDTH 8 0
BBX 8 16 0 0
BITMAP
E0
E0
80
80
CE
CE
8A
8A
EA
EA
0E
0E
04
04
00
00
ENDCHAR

STARTCHAR U+0006
ENCODING 6
SWIDTH 500 0
DWIDTH 8 0
BBX 8 16 0 0
BITMAP
E0
E0
A0
A0
EA
EA
AA
AA
AC
AC
0A
0A
0A
0A
00
00
ENDCHAR

STARTCHAR U+0007
ENCODING 7
SWIDTH 500 0
DWIDTH 8 0
BBX 8 16 0 0
BITMAP
C0
C0
A0
A0
C8
C8
A8
A8
C8
C8
08
08
0E
0E
00
00
ENDCHAR

STARTCHAR U+0008
ENCODING 8
SWIDTH 500 0
DWIDTH 8 0
BBX 8 16 0 0
BITMAP
C0
C0
A0
A0
CE
CE
A8
A8
CE
CE
02
02
0E
0E
00
00
ENDCHAR

STARTCHAR U+0009
ENCODING 9
SWIDTH 500 0
DWIDTH 8 0
BBX 8 16 0 0
BITMAP
A0
A0
A0
A0
EE
EE
A4
A4
A4
A4
04
04
04
04
00
00
ENDCHAR

STARTCHAR U+000A
ENCODING 10
SWIDTH 500 0
DWIDTH 8 0
BBX 8 16 0 0
BITMAP
80
80
80
80
8E
8E
88
88
EC
EC
08
08
08
08
00
00
ENDCHAR

STARTCHAR U+000B
ENCODING 11
SWIDTH 500 0
DWIDTH 8 0
BBX 8 16 0 0
BITMAP
A0
A0
A0
A0
AE
AE
A4
A4
44
44
04
04
04
04
00
00
ENDCHAR

STARTCHAR U+000C
ENCODING 12
SWIDTH 500 0
DWIDTH 8 0
BBX 8 16 0 0
BITMAP
E0
E0
80
80
CE
CE
88
88
8C
8C
08
08
08
08
00
00
ENDCHAR

STARTCHAR U+000D
ENCODING 13
SWIDTH 500 0
DWIDTH 8 0
BBX 8 16 0 0
BITMAP
E0
E0
80
80
8E
8E
8A
8A
EE
EE
0C
0C
0A
0A
00
00
ENDCHAR

STARTCHAR U+000E
ENCODING 14
SWIDTH 500 0
DWIDTH 8 0
BBX 8 16 0 0
BITMAP
E0
E0
80
80
EE
EE
2A
2A
EA
EA
0A
0A
0E
0E
00
00
ENDCHAR

STARTCHAR U+000F
ENCODING 15
SWIDTH 500 0
DWIDTH 8 0
BBX 8 16 0 0
BITMAP
E0
E0
80
80
EE
EE
24
24
E4
E4
04
04
0E
0E
00
00
ENDCHAR

STARTCHAR U+0010
ENCODING 16
SWIDTH 500 0
DWIDTH 8 0
BBX 8 16 0 0
BITMAP
C0
C0
A0
A0
A8
A8
A8
A8
C8
C8
08
08
0E
0E
00
00
ENDCHAR

STARTCHAR U+0011
ENCODING 17
SWIDTH 500 0
DWIDTH 8 0
BBX 8 16 0 0
BITMAP
C0
C0
A0
A0
A4
A4
AC
AC
C4
C4
04
04
0E
0E
00
00
ENDCHAR

STARTCHAR U+0012
ENCODING 18
SWIDTH 500 0
DWIDTH 8 0
BBX 8 16 0 0
BITMAP
C0
C0
A0
A0
AE
AE
A2
A2
CE
CE
08
08
0E
0E
00
00
ENDCHAR

STARTCHAR U+0013
ENCODING 19
SWIDTH 500 0
DWIDTH 8 0
BBX 8 16 0 0
BITMAP
C0
C0
A0
A0
AE
AE
A2
A2
C6
C6
02
02
0E
0E
00
00
ENDCHAR

STARTCHAR U+0014
ENCODING 20
SWIDTH 500 0
DWIDTH 8 0
BBX 8 16 0 0
BITMAP
C0
C0
A0
A0
AA
AA
AA
AA
CE
CE
02
02
02
02
00
00
ENDCHAR

STARTCHAR U+0015
ENCODING 21
SWIDTH 500 0
DWIDTH 8 0
BBX 8 16 0 0
BITMAP
E0
E0
A0
A0
AA
AA
AA
AA
AC
AC
0A
0A
0A
0A
00
00
ENDCHAR

STARTCHAR U+0016
ENCODING 22
SWIDTH 500 0
DWIDTH 8 0
BBX 8 16 0 0
BITMAP
E0
E0
80
80
EA
EA
2A
2A
EE
EE
04
04
04
04
00
00
ENDCHAR

STARTCHAR U+0017
ENCODING 23
SWIDTH 500 0
DWIDTH 8 0
BBX 8 16 0 0
BITMAP
E0
E0
80
80
CC
CC
8A
8A
EC
EC
0A
0A
0C
0C
00
00
ENDCHAR

STARTCHAR U+0018
ENCODING 24
SWIDTH 500 0
DWIDTH 8 0
BBX 8 16 0 0
BITMAP
E0
E0
80
80
8E
8E
8A
8A
EA
EA
0A
0A
0A
0A
00
00
ENDCHAR

STARTCHAR U+0019
ENCODING 25
SWIDTH 500 0
DWIDTH 8 0
BBX 8 16 0 0
BITMAP
E0
E0
80
80
CA
CA
8E
8E
EA
EA
0A
0A
0A
0A
00
00
ENDCHAR

STARTCHAR U+001A
ENCODING 26
SWIDTH 500 0
DWIDTH 8 0
BBX 8 16 0 0
BITMAP
3C
3C
66
66
66
66
30
30
18
18
00
00
18
18
00
00
ENDCHAR

STARTCHAR U+001B
ENCODING 27
SWIDTH 500 0
DWIDTH 8 0
BBX 8 16 0 0
BITMAP
E0
E0
80
80
CE
CE
88
88
E8
E8
08
08
0E
0E
00
00
ENDCHAR

STARTCHAR U+001C
ENCODING 28
SWIDTH 500 0
DWIDTH 8 0
BBX 8 16 0 0
BITMAP
E0
E0
80
80
CE
CE
88
88
8E
8E
02
02
0E
0E
00
00
ENDCHAR

STARTCHAR U+001D
ENCODING 29
SWIDTH 500 0
DWIDTH 8 0
BBX 8 16 0 0
BITMAP
E0
E0
80
80
AE
AE
A8
A8
EE
EE
02
02
0E
0E
00
00
ENDCHAR

STARTCHAR U+001E
ENCODING 30
SWIDTH 500 0
DWIDTH 8 0
BBX 8 16 0 0
BITMAP
E0
E0
A0
A0
EE
EE
C8
C8
AE
AE
02
02
0E
0E
00
00
ENDCHAR

STARTCHAR U+001F
ENCODING 31
SWIDTH 500 0
DWIDTH 8 0
BBX 8 16 0 0
BITMAP
A0
A0
A0
A0
AE
AE
A8
A8
EE
EE
02
02
0E
0E
00
00
ENDCHAR

STARTCHAR U+0020
ENCODING 32
SWIDTH 500 0
DWIDTH 8 0
BBX 8 16 0 0
BITMAP
00
00
00
00
00
00
00
00
00
00
00
00
00
00
00
00
ENDCHAR

STARTCHAR U+0021
ENCODING 33
SWIDTH 500 0
DWIDTH 8 0
BBX 8 16 0 0
BITMAP
00
18
18
18
18
18
18
18
18
00
00
18
18
00
00
00
ENDCHAR

STARTCHAR U+0022
ENCODING 34
SWIDTH 500 0
DWIDTH 8 0
BBX 8 16 0 0
BITMAP
00
66
66
66
00
00
00
00
00
00
00
00
00
00
00
00
ENDCHAR

STARTCHAR U+0023
ENCODING 35
SWIDTH 500 0
DWIDTH 8 0
BBX 8 16 0 0
BITMAP
00
00
6C
6C
6C
FE
6C
6C
6C
FE
6C
6C
6C
00
00
00
ENDCHAR

STARTCHAR U+0024
ENCODING 36
SWIDTH 500 0
DWIDTH 8 0
BBX 8 16 0 0
BITMAP
00
18
18
3C
66
60
30
18
0C
06
66
3C
18
18
00
00
ENDCHAR

STARTCHAR U+0025
ENCODING 37
SWIDTH 500 0
DWIDTH 8 0
BBX 8 16 0 0
BITMAP
00
00
06
C6
CC
CC
18
18
30
30
66
66
C6
C0
00
00
ENDCHAR

STARTCHAR U+0026
ENCODING 38
SWIDTH 500 0
DWIDTH 8 0
BBX 8 16 0 0
BITMAP
00
00
38
6C
6C
38
30
7A
DE
CC
CC
CC
76
00
00
00
ENDCHAR

STARTCHAR U+0027
ENCODING 39
SWIDTH 500 0
DWIDTH 8 0
BBX 8 16 0 0
BITMAP
00
18
18
18
30
00
00
00
00
00
00
00
00
00
00
00
ENDCHAR

STARTCHAR U+0028
ENCODING 40
SWIDTH 500 0
DWIDTH 8 0
BBX 8 16 0 0
BITMAP
00
0C
18
18
30
30
30
30
30
30
30
18
18
0C
00
00
ENDCHAR

STARTCHAR U+0029
ENCODING 41
SWIDTH 500 0
DWIDTH 8 0
BBX 8 16 0 0
BITMAP
00
30
18
18
0C
0C
0C
0C
0C
0C
0C
18
18
30
00
00
ENDCHAR

STARTCHAR U+002A
ENCODING 42
SWIDTH 500 0
DWIDTH 8 0
BBX 8 16 0 0
BITMAP
00
00
00
00
66
66
3C
FF
3C
66
66
00
00
00
00
00
ENDCHAR

STARTCHAR U+002B
ENCODING 43
SWIDTH 500 0
DWIDTH 8 0
BBX 8 16 0 0
BITMAP
00
00
00
00
18
18
18
7E
18
18
18
00
00
00
00
00
ENDCHAR

STARTCHAR U+002C
ENCODING 44
SWIDTH 500 0
DWIDTH 8 0
BBX 8 16 0 0
BITMAP
00
00
00
00
00
00
00
00
00
00
38
18
18
30
60
00
ENDCHAR

STARTCHAR U+002D
ENCODING 45
SWIDTH 500 0
DWIDTH 8 0
BBX 8 16 0 0
BITMAP
00
00
00
00
00
00
00
7E
00
00
00
00
00
00
00
00
ENDCHAR

STARTCHAR U+002E
ENCODING 46
SWIDTH 500 0
DWIDTH 8 0
BBX 8 16 0 0
BITMAP
00
00
00
00
00
00
00
00
00
00
18
18
18
00
00
00
ENDCHAR

STARTCHAR U+002F
ENCODING 47
SWIDTH 500 0
DWIDTH 8 0
BBX 8 16 0 0
BITMAP
03
03
06
06
0C
0C
18
18
30
30
60
60
C0
C0
00
00
ENDCHAR

STARTCHAR U+0030
ENCODING 48
SWIDTH 500 0
DWIDTH 8 0
BBX 8 16 0 0
BITMAP
00
00
38
6C
C6
C6
CE
D6
E6
C6
C6
6C
38
00
00
00
ENDCHAR

STARTCHAR U+0031
ENCODING 49
SWIDTH 500 0
DWIDTH 8 0
BBX 8 16 0 0
BITMAP
00
00
18
38
78
18
18
18
18
18
18
18
7E
00
00
00
ENDCHAR

STARTCHAR U+0032
ENCODING 50
SWIDTH 500 0
DWIDTH 8 0
BBX 8 16 0 0
BITMAP
00
00
3C
66
66
06
06
0C
18
30
60
60
7E
00
00
00
ENDCHAR

STARTCHAR U+0033
ENCODING 51
SWIDTH 500 0
DWIDTH 8 0
BBX 8 16 0 0
BITMAP
00
00
3C
66
66
06
06
1C
06
06
66
66
3C
00
00
00
ENDCHAR

STARTCHAR U+0034
ENCODING 52
SWIDTH 500 0
DWIDTH 8 0
BBX 8 16 0 0
BITMAP
00
00
0C
1C
3C
6C
CC
CC
FE
0C
0C
0C
0C
00
00
00
ENDCHAR

STARTCHAR U+0035
ENCODING 53
SWIDTH 500 0
DWIDTH 8 0
BBX 8 16 0 0
BITMAP
00
00
7E
60
60
60
7C
06
06
06
66
66
3C
00
00
00
ENDCHAR

STARTCHAR U+0036
ENCODING 54
SWIDTH 500 0
DWIDTH 8 0
BBX 8 16 0 0
BITMAP
00
00
1C
30
60
60
7C
66
66
66
66
66
3C
00
00
00
ENDCHAR

STARTCHAR U+0037
ENCODING 55
SWIDTH 500 0
DWIDTH 8 0
BBX 8 16 0 0
BITMAP
00
00
7E
06
06
06
0C
0C
18
18
18
18
18
00
00
00
ENDCHAR

STARTCHAR U+0038
ENCODING 56
SWIDTH 500 0
DWIDTH 8 0
BBX 8 16 0 0
BITMAP
00
00
3C
66
66
66
76
3C
6E
66
66
66
3C
00
00
00
ENDCHAR

STARTCHAR U+0039
ENCODING 57
SWIDTH 500 0
DWIDTH 8 0
BBX 8 16 0 0
BITMAP
00
00
3C
66
66
66
66
3E
06
06
06
0C
38
00
00
00
ENDCHAR

STARTCHAR U+003A
ENCODING 58
SWIDTH 500 0
DWIDTH 8 0
BBX 8 16 0 0
BITMAP
00
00
00
18
18
18
00
00
00
00
18
18
18
00
00
00
ENDCHAR

STARTCHAR U+003B
ENCODING 59
SWIDTH 500 0
DWIDTH 8 0
BBX 8 16 0 0
BITMAP
00
00
00
18
18
18
00
00
00
00
38
18
18
30
60
00
ENDCHAR

STARTCHAR U+003C
ENCODING 60
SWIDTH 500 0
DWIDTH 8 0
BBX 8 16 0 0
BITMAP
00
00
00
06
0C
18
30
60
30
18
0C
06
00
00
00
00
ENDCHAR

STARTCHAR U+003D
ENCODING 61
SWIDTH 500 0
DWIDTH 8 0
BBX 8 16 0 0
BITMAP
00
00
00
00
00
7E
00
00
00
7E
00
00
00
00
00
00
ENDCHAR

STARTCHAR U+003E
ENCODING 62
SWIDTH 500 0
DWIDTH 8 0
BBX 8 16 0 0
BITMAP
00
00
00
60
30
18
0C
06
0C
18
30
60
00
00
00
00
ENDCHAR

STARTCHAR U+003F
ENCODING 63
SWIDTH 500 0
DWIDTH 8 0
BBX 8 16 0 0
BITMAP
00
3C
66
66
06
0C
18
18
18
00
00
18
18
00
00
00
ENDCHAR

STARTCHAR U+0040
ENCODING 64
SWIDTH 500 0
DWIDTH 8 0
BBX 8 16 0 0
BITMAP
00
00
7C
C6
C6
C6
DE
DE
DE
DC
C0
C0
7C
00
00
00
ENDCHAR

STARTCHAR U+0041
ENCODING 65
SWIDTH 500 0
DWIDTH 8 0
BBX 8 16 0 0
BITMAP
00
00
18
3C
66
66
66
7E
66
66
66
66
66
00
00
00
ENDCHAR

STARTCHAR U+0042
ENCODING 66
SWIDTH 500 0
DWIDTH 8 0
BBX 8 16 0 0
BITMAP
00
00
7C
66
66
66
6C
78
6C
66
66
66
7C
00
00
00
ENDCHAR

STARTCHAR U+0043
ENCODING 67
SWIDTH 500 0
DWIDTH 8 0
BBX 8 16 0 0
BITMAP
00
00
3C
66
66
60
60
60
60
60
66
66
3C
00
00
00
ENDCHAR

STARTCHAR U+0044
ENCODING 68
SWIDTH 500 0
DWIDTH 8 0
BBX 8 16 0 0
BITMAP
00
00
78
6C
66
66
66
66
66
66
66
6C
78
00
00
00
ENDCHAR

STARTCHAR U+0045
ENCODING 69
SWIDTH 500 0
DWIDTH 8 0
BBX 8 16 0 0
BITMAP
00
00
7E
60
60
60
60
7C
60
60
60
60
7E
00
00
00
ENDCHAR

STARTCHAR U+0046
ENCODING 70
SWIDTH 500 0
DWIDTH 8 0
BBX 8 16 0 0
BITMAP
00
00
7E
60
60
60
7C
60
60
60
60
60
60
00
00
00
ENDCHAR

STARTCHAR U+0047
ENCODING 71
SWIDTH 500 0
DWIDTH 8 0
BBX 8 16 0 0
BITMAP
00
00
3C
66
66
60
60
6E
66
66
66
66
3E
00
00
00
ENDCHAR

STARTCHAR U+0048
ENCODING 72
SWIDTH 500 0
DWIDTH 8 0
BBX 8 16 0 0
BITMAP
00
00
66
66
66
66
66
7E
66
66
66
66
66
00
00
00
ENDCHAR

STARTCHAR U+0049
ENCODING 73
SWIDTH 500 0
DWIDTH 8 0
BBX 8 16 0 0
BITMAP
00
00
7E
18
18
18
18
18
18
18
18
18
7E
00
00
00
ENDCHAR

STARTCHAR U+004A
ENCODING 74
SWIDTH 500 0
DWIDTH 8 0
BBX 8 16 0 0
BITMAP
00
00
06
06
06
06
06
06
06
06
66
66
3C
00
00
00
ENDCHAR

STARTCHAR U+004B
ENCODING 75
SWIDTH 500 0
DWIDTH 8 0
BBX 8 16 0 0
BITMAP
00
00
C6
C6
CC
CC
D8
F0
D8
CC
CC
C6
C6
00
00
00
ENDCHAR

STARTCHAR U+004C
ENCODING 76
SWIDTH 500 0
DWIDTH 8 0
BBX 8 16 0 0
BITMAP
00
00
60
60
60
60
60
60
60
60
60
60
7E
00
00
00
ENDCHAR

STARTCHAR U+004D
ENCODING 77
SWIDTH 500 0
DWIDTH 8 0
BBX 8 16 0 0
BITMAP
00
00
C6
EE
EE
FE
D6
D6
C6
C6
C6
C6
C6
00
00
00
ENDCHAR

STARTCHAR U+004E
ENCODING 78
SWIDTH 500 0
DWIDTH 8 0
BBX 8 16 0 0
BITMAP
00
00
C6
C6
E6
E6
F6
FE
DE
CE
CE
C6
C6
00
00
00
ENDCHAR

STARTCHAR U+004F
ENCODING 79
SWIDTH 500 0
DWIDTH 8 0
BBX 8 16 0 0
BITMAP
00
00
3C
66
66
66
66
66
66
66
66
66
3C
00
00
00
ENDCHAR

STARTCHAR U+0050
ENCODING 80
SWIDTH 500 0
DWIDTH 8 0
BBX 8 16 0 0
BITMAP
00
00
7C
66
66
66
66
7C
60
60
60
60
60
00
00
00
ENDCHAR

STARTCHAR U+0051
ENCODING 81
SWIDTH 500 0
DWIDTH 8 0
BBX 8 16 0 0
BITMAP
00
00
3C
66
66
66
66
66
66
66
66
66
3C
0C
06
00
ENDCHAR

STARTCHAR U+0052
ENCODING 82
SWIDTH 500 0
DWIDTH 8 0
BBX 8 16 0 0
BITMAP
00
00
7C
66
66
66
66
7C
6C
66
66
66
66
00
00
00
ENDCHAR

STARTCHAR U+0053
ENCODING 83
SWIDTH 500 0
DWIDTH 8 0
BBX 8 16 0 0
BITMAP
00
00
3C
66
66
60
30
18
0C
06
66
66
3C
00
00
00
ENDCHAR

STARTCHAR U+0054
ENCODING 84
SWIDTH 500 0
DWIDTH 8 0
BBX 8 16 0 0
BITMAP
00
00
7E
18
18
18
18
18
18
18
18
18
18
00
00
00
ENDCHAR

STARTCHAR U+0055
ENCODING 85
SWIDTH 500 0
DWIDTH 8 0
BBX 8 16 0 0
BITMAP
00
00
66
66
66
66
66
66
66
66
66
66
3C
00
00
00
ENDCHAR

STARTCHAR U+0056
ENCODING 86
SWIDTH 500 0
DWIDTH 8 0
BBX 8 16 0 0
BITMAP
00
00
66
66
66
66
66
66
66
3C
3C
18
18
00
00
00
ENDCHAR

STARTCHAR U+0057
ENCODING 87
SWIDTH 500 0
DWIDTH 8 0
BBX 8 16 0 0
BITMAP
00
00
C6
C6
C6
C6
C6
D6
D6
FE
EE
EE
C6
00
00
00
ENDCHAR

STARTCHAR U+0058
ENCODING 88
SWIDTH 500 0
DWIDTH 8 0
BBX 8 16 0 0
BITMAP
00
00
C3
C3
66
3C
18
18
18
3C
66
C3
C3
00
00
00
ENDCHAR

STARTCHAR U+0059
ENCODING 89
SWIDTH 500 0
DWIDTH 8 0
BBX 8 16 0 0
BITMAP
00
00
C3
C3
66
66
3C
18
18
18
18
18
18
00
00
00
ENDCHAR

STARTCHAR U+005A
ENCODING 90
SWIDTH 500 0
DWIDTH 8 0
BBX 8 16 0 0
BITMAP
00
00
7E
06
06
0C
0C
18
30
30
60
60
7E
00
00
00
ENDCHAR

STARTCHAR U+005B
ENCODING 91
SWIDTH 500 0
DWIDTH 8 0
BBX 8 16 0 0
BITMAP
00
3C
30
30
30
30
30
30
30
30
30
30
30
3C
00
00
ENDCHAR

STARTCHAR U+005C
ENCODING 92
SWIDTH 500 0
DWIDTH 8 0
BBX 8 16 0 0
BITMAP
C0
C0
60
60
30
30
18
18
0C
0C
06
06
03
03
00
00
ENDCHAR

STARTCHAR U+005D
ENCODING 93
SWIDTH 500 0
DWIDTH 8 0
BBX 8 16 0 0
BITMAP
00
3C
0C
0C
0C
0C
0C
0C
0C
0C
0C
0C
0C
3C
00
00
ENDCHAR

STARTCHAR U+005E
ENCODING 94
SWIDTH 500 0
DWIDTH 8 0
BBX 8 16 0 0
BITMAP
00
10
38
6C
6C
C6
C6
00
00
00
00
00
00
00
00
00
ENDCHAR

STARTCHAR U+005F
ENCODING 95
SWIDTH 500 0
DWIDTH 8 0
BBX 8 16 0 0
BITMAP
00
00
00
00
00
00
00
00
00
00
00
00
00
00
00
FF
ENDCHAR

STARTCHAR U+0060
ENCODING 96
SWIDTH 500 0
DWIDTH 8 0
BBX 8 16 0 0
BITMAP
00
18
18
0C
06
00
00
00
00
00
00
00
00
00
00
00
ENDCHAR

STARTCHAR U+0061
ENCODING 97
SWIDTH 500 0
DWIDTH 8 0
BBX 8 16 0 0
BITMAP
00
00
00
00
00
00
3C
06
3E
66
66
66
3E
00
00
00
ENDCHAR

STARTCHAR U+0062
ENCODING 98
SWIDTH 500 0
DWIDTH 8 0
BBX 8 16 0 0
BITMAP
00
00
60
60
60
60
7C
66
66
66
66
66
7C
00
00
00
ENDCHAR

STARTCHAR U+0063
ENCODING 99
SWIDTH 500 0
DWIDTH 8 0
BBX 8 16 0 0
BITMAP
00
00
00
00
00
00
3C
66
60
60
60
66
3C
00
00
00
ENDCHAR

STARTCHAR U+0064
ENCODING 100
SWIDTH 500 0
DWIDTH 8 0
BBX 8 16 0 0
BITMAP
00
00
06
06
06
06
3E
66
66
66
66
66
3E
00
00
00
ENDCHAR

STARTCHAR U+0065
ENCODING 101
SWIDTH 500 0
DWIDTH 8 0
BBX 8 16 0 0
BITMAP
00
00
00
00
00
00
3C
66
66
7E
60
60
3C
00
00
00
ENDCHAR

STARTCHAR U+0066
ENCODING 102
SWIDTH 500 0
DWIDTH 8 0
BBX 8 16 0 0
BITMAP
00
00
1E
30
30
30
7E
30
30
30
30
30
30
00
00
00
ENDCHAR

STARTCHAR U+0067
ENCODING 103
SWIDTH 500 0
DWIDTH 8 0
BBX 8 16 0 0
BITMAP
00
00
00
00
00
00
3E
66
66
66
66
66
3E
06
06
7C
ENDCHAR

STARTCHAR U+0068
ENCODING 104
SWIDTH 500 0
DWIDTH 8 0
BBX 8 16 0 0
BITMAP
00
00
60
60
60
60
7C
66
66
66
66
66
66
00
00
00
ENDCHAR

STARTCHAR U+0069
ENCODING 105
SWIDTH 500 0
DWIDTH 8 0
BBX 8 16 0 0
BITMAP
00
00
18
18
00
00
78
18
18
18
18
18
1E
00
00
00
ENDCHAR

STARTCHAR U+006A
ENCODING 106
SWIDTH 500 0
DWIDTH 8 0
BBX 8 16 0 0
BITMAP
00
00
0C
0C
00
00
0C
0C
0C
0C
0C
0C
0C
0C
0C
78
ENDCHAR

STARTCHAR U+006B
ENCODING 107
SWIDTH 500 0
DWIDTH 8 0
BBX 8 16 0 0
BITMAP
00
00
60
60
60
60
66
66
6C
78
6C
66
66
00
00
00
ENDCHAR

STARTCHAR U+006C
ENCODING 108
SWIDTH 500 0
DWIDTH 8 0
BBX 8 16 0 0
BITMAP
00
00
78
18
18
18
18
18
18
18
18
18
1E
00
00
00
ENDCHAR

STARTCHAR U+006D
ENCODING 109
SWIDTH 500 0
DWIDTH 8 0
BBX 8 16 0 0
BITMAP
00
00
00
00
00
00
CC
FE
D6
D6
D6
D6
C6
00
00
00
ENDCHAR

STARTCHAR U+006E
ENCODING 110
SWIDTH 500 0
DWIDTH 8 0
BBX 8 16 0 0
BITMAP
00
00
00
00
00
00
7C
66
66
66
66
66
66
00
00
00
ENDCHAR

STARTCHAR U+006F
ENCODING 111
SWIDTH 500 0
DWIDTH 8 0
BBX 8 16 0 0
BITMAP
00
00
00
00
00
00
3C
66
66
66
66
66
3C
00
00
00
ENDCHAR

STARTCHAR U+0070
ENCODING 112
SWIDTH 500 0
DWIDTH 8 0
BBX 8 16 0 0
BITMAP
00
00
00
00
00
00
7C
66
66
66
66
66
7C
60
60
60
ENDCHAR

STARTCHAR U+0071
ENCODING 113
SWIDTH 500 0
DWIDTH 8 0
BBX 8 16 0 0
BITMAP
00
00
00
00
00
00
3E
66
66
66
66
66
3E
06
06
06
ENDCHAR

STARTCHAR U+0072
ENCODING 114
SWIDTH 500 0
DWIDTH 8 0
BBX 8 16 0 0
BITMAP
00
00
00
00
00
00
7C
66
66
60
60
60
60
00
00
00
ENDCHAR

STARTCHAR U+0073
ENCODING 115
SWIDTH 500 0
DWIDTH 8 0
BBX 8 16 0 0
BITMAP
00
00
00
00
00
00
3E
60
60
3C
06
06
7C
00
00
00
ENDCHAR

STARTCHAR U+0074
ENCODING 116
SWIDTH 500 0
DWIDTH 8 0
BBX 8 16 0 0
BITMAP
00
00
00
30
30
30
7E
30
30
30
30
30
1E
00
00
00
ENDCHAR

STARTCHAR U+0075
ENCODING 117
SWIDTH 500 0
DWIDTH 8 0
BBX 8 16 0 0
BITMAP
00
00
00
00
00
00
66
66
66
66
66
66
3E
00
00
00
ENDCHAR

STARTCHAR U+0076
ENCODING 118
SWIDTH 500 0
DWIDTH 8 0
BBX 8 16 0 0
BITMAP
00
00
00
00
00
00
66
66
66
66
66
3C
18
00
00
00
ENDCHAR

STARTCHAR U+0077
ENCODING 119
SWIDTH 500 0
DWIDTH 8 0
BBX 8 16 0 0
BITMAP
00
00
00
00
00
00
C6
C6
D6
D6
D6
7C
6C
00
00
00
ENDCHAR

STARTCHAR U+0078
ENCODING 120
SWIDTH 500 0
DWIDTH 8 0
BBX 8 16 0 0
BITMAP
00
00
00
00
00
00
C6
C6
6C
38
6C
C6
C6
00
00
00
ENDCHAR

STARTCHAR U+0079
ENCODING 121
SWIDTH 500 0
DWIDTH 8 0
BBX 8 16 0 0
BITMAP
00
00
00
00
00
00
66
66
66
66
66
66
3E
06
06
3C
ENDCHAR

STARTCHAR U+007A
ENCODING 122
SWIDTH 500 0
DWIDTH 8 0
BBX 8 16 0 0
BITMAP
00
00
00
00
00
00
7E
06
0C
18
30
60
7E
00
00
00
ENDCHAR

STARTCHAR U+007B
ENCODING 123
SWIDTH 500 0
DWIDTH 8 0
BBX 8 16 0 0
BITMAP
00
0E
18
18
18
18
18
F0
18
18
18
18
18
0E
00
00
ENDCHAR

STARTCHAR U+007C
ENCODING 124
SWIDTH 500 0
DWIDTH 8 0
BBX 8 16 0 0
BITMAP
18
18
18
18
18
18
18
18
18
18
18
18
18
18
00
00
ENDCHAR

STARTCHAR U+007D
ENCODING 125
SWIDTH 500 0
DWIDTH 8 0
BBX 8 16 0 0
BITMAP
00
E0
30
30
30
30
30
1E
30
30
30
30
30
E0
00
00
ENDCHAR

STARTCHAR U+007E
ENCODING 126
SWIDTH 500 0
DWIDTH 8 0
BBX 8 16 0 0
BITMAP
00
72
D6
9C
00
00
00
00
00
00
00
00
00
00
00
00
ENDCHAR

STARTCHAR U+007F
ENCODING 127
SWIDTH 500 0
DWIDTH 8 0
BBX 8 16 0 0
BITMAP
C0
C0
A0
A0
AE
AE
A4
A4
C4
C4
04
04
04
04
00
00
ENDCHAR

STARTCHAR U+0080
ENCODING 128
SWIDTH 500 0
DWIDTH 8 0
BBX 8 16 0 0
BITMAP
E0
E0
A0
A0
EE
EE
AA
AA
EA
EA
0A
0A
0E
0E
00
00
ENDCHAR

STARTCHAR U+0081
ENCODING 129
SWIDTH 500 0
DWIDTH 8 0
BBX 8 16 0 0
BITMAP
E0
E0
A0
A0
E4
E4
AC
AC
E4
E4
04
04
0E
0E
00
00
ENDCHAR

STARTCHAR U+0082
ENCODING 130
SWIDTH 500 0
DWIDTH 8 0
BBX 8 16 0 0
BITMAP
E0
E0
A0
A0
EE
EE
A2
A2
EE
EE
08
08
0E
0E
00
00
ENDCHAR

STARTCHAR U+0083
ENCODING 131
SWIDTH 500 0
DWIDTH 8 0
BBX 8 16 0 0
BITMAP
E0
E0
A0
A0
EE
EE
A2
A2
EE
EE
02
02
0E
0E
00
00
ENDCHAR

STARTCHAR U+0084
ENCODING 132
SWIDTH 500 0
DWIDTH 8 0
BBX 8 16 0 0
BITMAP
E0
E0
40
40
4E
4E
4A
4A
EA
EA
0A
0A
0A
0A
00
00
ENDCHAR

STARTCHAR U+0085
ENCODING 133
SWIDTH 500 0
DWIDTH 8 0
BBX 8 16 0 0
BITMAP
E0
E0
A0
A0
A8
A8
A8
A8
A8
A8
08
08
0E
0E
00
00
ENDCHAR

STARTCHAR U+0086
ENCODING 134
SWIDTH 500 0
DWIDTH 8 0
BBX 8 16 0 0
BITMAP
E0
E0
80
80
EE
EE
28
28
EE
EE
02
02
0E
0E
00
00
ENDCHAR

STARTCHAR U+0087
ENCODING 135
SWIDTH 500 0
DWIDTH 8 0
BBX 8 16 0 0
BITMAP
E0
E0
80
80
CE
CE
88
88
EE
EE
02
02
0E
0E
00
00
ENDCHAR

STARTCHAR U+0088
ENCODING 136
SWIDTH 500 0
DWIDTH 8 0
BBX 8 16 0 0
BITMAP
A0
A0
A0
A0
EE
EE
A8
A8
AE
AE
02
02
0E
0E
00
00
ENDCHAR

STARTCHAR U+0089
ENCODING 137
SWIDTH 500 0
DWIDTH 8 0
BBX 8 16 0 0
BITMAP
A0
A0
A0
A0
E2
E2
A2
A2
A2
A2
0A
0A
0E
0E
00
00
ENDCHAR

STARTCHAR U+008A
ENCODING 138
SWIDTH 500 0
DWIDTH 8 0
BBX 8 16 0 0
BITMAP
A0
A0
A0
A0
AE
AE
A8
A8
4E
4E
02
02
0E
0E
00
00
ENDCHAR

STARTCHAR U+008B
ENCODING 139
SWIDTH 500 0
DWIDTH 8 0
BBX 8 16 0 0
BITMAP
E0
E0
A0
A0
EC
EC
8A
8A
8A
8A
0A
0A
0C
0C
00
00
ENDCHAR

STARTCHAR U+008C
ENCODING 140
SWIDTH 500 0
DWIDTH 8 0
BBX 8 16 0 0
BITMAP
E0
E0
A0
A0
EA
EA
8A
8A
8A
8A
0A
0A
0E
0E
00
00
ENDCHAR

STARTCHAR U+008D
ENCODING 141
SWIDTH 500 0
DWIDTH 8 0
BBX 8 16 0 0
BITMAP
C0
C0
A0
A0
CE
CE
A4
A4
A4
A4
04
04
0E
0E
00
00
ENDCHAR

STARTCHAR U+008E
ENCODING 142
SWIDTH 500 0
DWIDTH 8 0
BBX 8 16 0 0
BITMAP
E0
E0
80
80
EE
EE
22
22
EE
EE
08
08
0E
0E
00
00
ENDCHAR

STARTCHAR U+008F
ENCODING 143
SWIDTH 500 0
DWIDTH 8 0
BBX 8 16 0 0
BITMAP
E0
E0
80
80
EE
EE
22
22
E6
E6
02
02
0E
0E
00
00
ENDCHAR

STARTCHAR U+0090
ENCODING 144
SWIDTH 500 0
DWIDTH 8 0
BBX 8 16 0 0
BITMAP
C0
C0
A0
A0
AE
AE
A8
A8
C8
C8
08
08
0E
0E
00
00
ENDCHAR

STARTCHAR U+0091
ENCODING 145
SWIDTH 500 0
DWIDTH 8 0
BBX 8 16 0 0
BITMAP
E0
E0
A0
A0
E4
E4
8C
8C
84
84
04
04
0E
0E
00
00
ENDCHAR

STARTCHAR U+0092
ENCODING 146
SWIDTH 500 0
DWIDTH 8 0
BBX 8 16 0 0
BITMAP
E0
E0
A0
A0
EE
EE
82
82
8E
8E
08
08
0E
0E
00
00
ENDCHAR

STARTCHAR U+0093
ENCODING 147
SWIDTH 500 0
DWIDTH 8 0
BBX 8 16 0 0
BITMAP
E0
E0
80
80
EE
EE
28
28
EC
EC
08
08
0E
0E
00
00
ENDCHAR

STARTCHAR U+0094
ENCODING 148
SWIDTH 500 0
DWIDTH 8 0
BBX 8 16 0 0
BITMAP
E0
E0
80
80
8E
8E
88
88
E8
E8
08
08
0E
0E
00
00
ENDCHAR

STARTCHAR U+0095
ENCODING 149
SWIDTH 500 0
DWIDTH 8 0
BBX 8 16 0 0
BITMAP
A0
A0
E0
E0
EA
EA
AA
AA
AE
AE
0E
0E
0A
0A
00
00
ENDCHAR

STARTCHAR U+0096
ENCODING 150
SWIDTH 500 0
DWIDTH 8 0
BBX 8 16 0 0
BITMAP
E0
E0
80
80
EE
EE
2A
2A
EE
EE
08
08
08
08
00
00
ENDCHAR

STARTCHAR U+0097
ENCODING 151
SWIDTH 500 0
DWIDTH 8 0
BBX 8 16 0 0
BITMAP
E0
E0
80
80
CE
CE
8A
8A
EE
EE
08
08
08
08
00
00
ENDCHAR

STARTCHAR U+0098
ENCODING 152
SWIDTH 500 0
DWIDTH 8 0
BBX 8 16 0 0
BITMAP
E0
E0
A0
A0
EE
EE
2A
2A
EE
EE
0A
0A
0E
0E
00
00
ENDCHAR

STARTCHAR U+0099
ENCODING 153
SWIDTH 500 0
DWIDTH 8 0
BBX 8 16 0 0
BITMAP
E0
E0
A0
A0
EE
EE
2A
2A
EE
EE
02
02
0E
0E
00
00
ENDCHAR

STARTCHAR U+009A
ENCODING 154
SWIDTH 500 0
DWIDTH 8 0
BBX 8 16 0 0
BITMAP
E0
E0
A0
A0
EE
EE
2A
2A
EE
EE
0A
0A
0A
0A
00
00
ENDCHAR

STARTCHAR U+009B
ENCODING 155
SWIDTH 500 0
DWIDTH 8 0
BBX 8 16 0 0
BITMAP
E0
E0
80
80
8E
8E
88
88
EE
EE
02
02
0E
0E
00
00
ENDCHAR

STARTCHAR U+009C
ENCODING 156
SWIDTH 500 0
DWIDTH 8 0
BBX 8 16 0 0
BITMAP
E0
E0
80
80
EE
EE
24
24
E4
E4
04
04
04
04
00
00
ENDCHAR

STARTCHAR U+009D
ENCODING 157
SWIDTH 500 0
DWIDTH 8 0
BBX 8 16 0 0
BITMAP
E0
E0
A0
A0
AE
AE
A8
A8
EE
EE
02
02
0E
0E
00
00
ENDCHAR

STARTCHAR U+009E
ENCODING 158
SWIDTH 500 0
DWIDTH 8 0
BBX 8 16 0 0
BITMAP
E0
E0
A0
A0
EA
EA
8E
8E
8E
8E
0A
0A
0A
0A
00
00
ENDCHAR

STARTCHAR U+009F
ENCODING 159
SWIDTH 500 0
DWIDTH 8 0
BBX 8 16 0 0
BITMAP
E0
E0
A0
A0
EE
EE
AA
AA
AE
AE
08
08
08
08
00
00
ENDCHAR

STARTCHAR U+00A0
ENCODING 160
SWIDTH 500 0
DWIDTH 8 0
BBX 8 16 0 0
BITMAP
00
00
00
00
00
00
00
00
00
00
00
00
00
00
00
00
ENDCHAR

STARTCHAR U+00A1
ENCODING 161
SWIDTH 500 0
DWIDTH 8 0
BBX 8 16 0 0
BITMAP
00
18
18
00
00
18
18
18
18
18
18
18
18
00
00
00
ENDCHAR

STARTCHAR U+00A2
ENCODING 162
SWIDTH 500 0
DWIDTH 8 0
BBX 8 16 0 0
BITMAP
00
00
18
18
7E
7E
D8
D8
D8
D8
7E
7E
18
18
00
00
ENDCHAR

STARTCHAR U+00A3
ENCODING 163
SWIDTH 500 0
DWIDTH 8 0
BBX 8 16 0 0
BITMAP
00
00
38
6C
6C
60
60
F0
60
60
66
66
FC
00
00
00
ENDCHAR

STARTCHAR U+00A4
ENCODING 164
SWIDTH 500 0
DWIDTH 8 0
BBX 8 16 0 0
BITMAP
00
00
66
3C
66
66
66
3C
66
00
00
00
00
00
00
00
ENDCHAR

STARTCHAR U+00A5
ENCODING 165
SWIDTH 500 0
DWIDTH 8 0
BBX 8 16 0 0
BITMAP
00
00
C3
C3
66
66
3C
18
7E
18
7E
18
18
00
00
00
ENDCHAR

STARTCHAR U+00A6
ENCODING 166
SWIDTH 500 0
DWIDTH 8 0
BBX 8 16 0 0
BITMAP
18
18
18
18
18
18
00
00
18
18
18
18
18
18
00
00
ENDCHAR

STARTCHAR U+00A7
ENCODING 167
SWIDTH 500 0
DWIDTH 8 0
BBX 8 16 0 0
BITMAP
00
3C
66
60
30
38
6C
66
36
1C
0C
06
66
3C
00
00
ENDCHAR

STARTCHAR U+00A8
ENCODING 168
SWIDTH 500 0
DWIDTH 8 0
BBX 8 16 0 0
BITMAP
66
66
00
00
00
00
00
00
00
00
00
00
00
00
00
00
ENDCHAR

STARTCHAR U+00A9
ENCODING 169
SWIDTH 500 0
DWIDTH 8 0
BBX 8 16 0 0
BITMAP
00
00
3C
42
81
9D
B1
B1
B1
9D
81
42
3C
00
00
00
ENDCHAR

STARTCHAR U+00AA
ENCODING 170
SWIDTH 500 0
DWIDTH 8 0
BBX 8 16 0 0
BITMAP
00
3C
06
06
3E
66
66
3E
00
7E
00
00
00
00
00
00
ENDCHAR

STARTCHAR U+00AB
ENCODING 171
SWIDTH 500 0
DWIDTH 8 0
BBX 8 16 0 0
BITMAP
00
00
00
00
00
33
66
CC
66
33
00
00
00
00
00
00
ENDCHAR

STARTCHAR U+00AC
ENCODING 172
SWIDTH 500 0
DWIDTH 8 0
BBX 8 16 0 0
BITMAP
00
00
00
00
00
00
FE
06
06
06
06
00
00
00
00
00
ENDCHAR

STARTCHAR U+00AD
ENCODING 173
SWIDTH 500 0
DWIDTH 8 0
BBX 8 16 0 0
BITMAP
00
00
00
00
00
00
00
3C
00
00
00
00
00
00
00
00
ENDCHAR

STARTCHAR U+00AE
ENCODING 174
SWIDTH 500 0
DWIDTH 8 0
BBX 8 16 0 0
BITMAP
00
00
3C
42
81
B9
A5
B9
A5
A5
81
42
3C
00
00
00
ENDCHAR

STARTCHAR U+00AF
ENCODING 175
SWIDTH 500 0
DWIDTH 8 0
BBX 8 16 0 0
BITMAP
7E
00
00
00
00
00
00
00
00
00
00
00
00
00
00
00
ENDCHAR

STARTCHAR U+00B0
ENCODING 176
SWIDTH 500 0
DWIDTH 8 0
BBX 8 16 0 0
BITMAP
00
3C
66
66
3C
00
00
00
00
00
00
00
00
00
00
00
ENDCHAR

STARTCHAR U+00B1
ENCODING 177
SWIDTH 500 0
DWIDTH 8 0
BBX 8 16 0 0
BITMAP
00
00
00
00
18
18
18
7E
18
18
18
00
7E
00
00
00
ENDCHAR

STARTCHAR U+00B2
ENCODING 178
SWIDTH 500 0
DWIDTH 8 0
BBX 8 16 0 0
BITMAP
00
38
6C
0C
18
30
60
7C
00
00
00
00
00
00
00
00
ENDCHAR

STARTCHAR U+00B3
ENCODING 179
SWIDTH 500 0
DWIDTH 8 0
BBX 8 16 0 0
BITMAP
00
38
6C
0C
38
0C
6C
38
00
00
00
00
00
00
00
00
ENDCHAR

STARTCHAR U+00B4
ENCODING 180
SWIDTH 500 0
DWIDTH 8 0
BBX 8 16 0 0
BITMAP
0C
0C
18
18
30
30
00
00
00
00
00
00
00
00
00
00
ENDCHAR

STARTCHAR U+00B5
ENCODING 181
SWIDTH 500 0
DWIDTH 8 0
BBX 8 16 0 0
BITMAP
00
00
00
00
00
00
66
66
66
66
66
66
7C
60
60
C0
ENDCHAR

STARTCHAR U+00B6
ENCODING 182
SWIDTH 500 0
DWIDTH 8 0
BBX 8 16 0 0
BITMAP
00
00
3E
7A
7A
7A
7A
3A
1A
1A
1A
1A
1A
00
00
00
ENDCHAR

STARTCHAR U+00B7
ENCODING 183
SWIDTH 500 0
DWIDTH 8 0
BBX 8 16 0 0
BITMAP
00
00
00
00
00
00
00
18
00
00
00
00
00
00
00
00
ENDCHAR

STARTCHAR U+00B8
ENCODING 184
SWIDTH 500 0
DWIDTH 8 0
BBX 8 16 0 0
BITMAP
00
00
00
00
00
00
00
00
00
00
00
00
00
0C
06
1C
ENDCHAR

STARTCHAR U+00B9
ENCODING 185
SWIDTH 500 0
DWIDTH 8 0
BBX 8 16 0 0
BITMAP
00
30
70
30
30
30
30
30
00
00
00
00
00
00
00
00
ENDCHAR

STARTCHAR U+00BA
ENCODING 186
SWIDTH 500 0
DWIDTH 8 0
BBX 8 16 0 0
BITMAP
00
00
00
3C
66
66
66
3C
00
7E
00
00
00
00
00
00
ENDCHAR

STARTCHAR U+00BB
ENCODING 187
SWIDTH 500 0
DWIDTH 8 0
BBX 8 16 0 0
BITMAP
00
00
00
00
00
CC
66
33
66
CC
00
00
00
00
00
00
ENDCHAR

STARTCHAR U+00BC
ENCODING 188
SWIDTH 500 0
DWIDTH 8 0
BBX 8 16 0 0
BITMAP
00
00
66
E6
6C
6C
18
18
30
32
66
6A
CF
C2
00
00
ENDCHAR

STARTCHAR U+00BD
ENCODING 189
SWIDTH 500 0
DWIDTH 8 0
BBX 8 16 0 0
BITMAP
00
00
66
E6
6C
6C
18
18
30
30
6C
66
CC
CE
00
00
ENDCHAR

STARTCHAR U+00BE
ENCODING 190
SWIDTH 500 0
DWIDTH 8 0
BBX 8 16 0 0
BITMAP
00
00
C6
26
6C
2C
D8
18
30
32
66
6A
CF
C2
00
00
ENDCHAR

STARTCHAR U+00BF
ENCODING 191
SWIDTH 500 0
DWIDTH 8 0
BBX 8 16 0 0
BITMAP
00
18
18
00
00
18
30
30
60
60
66
66
3C
00
00
00
ENDCHAR

STARTCHAR U+00C0
ENCODING 192
SWIDTH 500 0
DWIDTH 8 0
BBX 8 16 0 0
BITMAP
30
18
00
18
3C
66
66
66
7E
66
66
66
66
00
00
00
ENDCHAR

STARTCHAR U+00C1
ENCODING 193
SWIDTH 500 0
DWIDTH 8 0
BBX 8 16 0 0
BITMAP
0C
18
00
18
3C
66
66
66
7E
66
66
66
66
00
00
00
ENDCHAR

STARTCHAR U+00C2
ENCODING 194
SWIDTH 500 0
DWIDTH 8 0
BBX 8 16 0 0
BITMAP
18
66
00
18
3C
66
66
66
7E
66
66
66
66
00
00
00
ENDCHAR

STARTCHAR U+00C3
ENCODING 195
SWIDTH 500 0
DWIDTH 8 0
BBX 8 16 0 0
BITMAP
76
DC
00
18
3C
66
66
66
7E
66
66
66
66
00
00
00
ENDCHAR

STARTCHAR U+00C4
ENCODING 196
SWIDTH 500 0
DWIDTH 8 0
BBX 8 16 0 0
BITMAP
66
66
00
18
3C
66
66
66
7E
66
66
66
66
00
00
00
ENDCHAR

STARTCHAR U+00C5
ENCODING 197
SWIDTH 500 0
DWIDTH 8 0
BBX 8 16 0 0
BITMAP
3C
66
3C
00
18
3C
66
66
7E
66
66
66
66
00
00
00
ENDCHAR

STARTCHAR U+00C6
ENCODING 198
SWIDTH 500 0
DWIDTH 8 0
BBX 8 16 0 0
BITMAP
00
00
3F
7C
FC
CC
CC
FE
CC
CC
CC
CC
CF
00
00
00
ENDCHAR

STARTCHAR U+00C7
ENCODING 199
SWIDTH 500 0
DWIDTH 8 0
BBX 8 16 0 0
BITMAP
00
00
3C
66
66
60
60
60
60
60
66
66
3C
0C
06
1C
ENDCHAR

STARTCHAR U+00C8
ENCODING 200
SWIDTH 500 0
DWIDTH 8 0
BBX 8 16 0 0
BITMAP
30
18
00
7E
60
60
60
7C
60
60
60
60
7E
00
00
00
ENDCHAR

STARTCHAR U+00C9
ENCODING 201
SWIDTH 500 0
DWIDTH 8 0
BBX 8 16 0 0
BITMAP
0C
18
00
7E
60
60
60
7C
60
60
60
60
7E
00
00
00
ENDCHAR

STARTCHAR U+00CA
ENCODING 202
SWIDTH 500 0
DWIDTH 8 0
BBX 8 16 0 0
BITMAP
18
66
00
7E
60
60
60
7C
60
60
60
60
7E
00
00
00
ENDCHAR

STARTCHAR U+00CB
ENCODING 203
SWIDTH 500 0
DWIDTH 8 0
BBX 8 16 0 0
BITMAP
66
66
00
7E
60
60
60
7C
60
60
60
60
7E
00
00
00
ENDCHAR

STARTCHAR U+00CC
ENCODING 204
SWIDTH 500 0
DWIDTH 8 0
BBX 8 16 0 0
BITMAP
30
18
00
7E
18
18
18
18
18
18
18
18
7E
00
00
00
ENDCHAR

STARTCHAR U+00CD
ENCODING 205
SWIDTH 500 0
DWIDTH 8 0
BBX 8 16 0 0
BITMAP
0C
18
00
7E
18
18
18
18
18
18
18
18
7E
00
00
00
ENDCHAR

STARTCHAR U+00CE
ENCODING 206
SWIDTH 500 0
DWIDTH 8 0
BBX 8 16 0 0
BITMAP
18
66
00
7E
18
18
18
18
18
18
18
18
7E
00
00
00
ENDCHAR

STARTCHAR U+00CF
ENCODING 207
SWIDTH 500 0
DWIDTH 8 0
BBX 8 16 0 0
BITMAP
66
66
00
7E
18
18
18
18
18
18
18
18
7E
00
00
00
ENDCHAR

STARTCHAR U+00D0
ENCODING 208
SWIDTH 500 0
DWIDTH 8 0
BBX 8 16 0 0
BITMAP
00
00
78
6C
66
66
66
F6
66
66
66
6C
78
00
00
00
ENDCHAR

STARTCHAR U+00D1
ENCODING 209
SWIDTH 500 0
DWIDTH 8 0
BBX 8 16 0 0
BITMAP
76
DC
00
C6
C6
E6
F6
DE
CE
C6
C6
C6
C6
00
00
00
ENDCHAR

STARTCHAR U+00D2
ENCODING 210
SWIDTH 500 0
DWIDTH 8 0
BBX 8 16 0 0
BITMAP
30
18
00
3C
66
66
66
66
66
66
66
66
3C
00
00
00
ENDCHAR

STARTCHAR U+00D3
ENCODING 211
SWIDTH 500 0
DWIDTH 8 0
BBX 8 16 0 0
BITMAP
0C
18
00
3C
66
66
66
66
66
66
66
66
3C
00
00
00
ENDCHAR

STARTCHAR U+00D4
ENCODING 212
SWIDTH 500 0
DWIDTH 8 0
BBX 8 16 0 0
BITMAP
18
66
00
3C
66
66
66
66
66
66
66
66
3C
00
00
00
ENDCHAR

STARTCHAR U+00D5
ENCODING 213
SWIDTH 500 0
DWIDTH 8 0
BBX 8 16 0 0
BITMAP
76
DC
00
3C
66
66
66
66
66
66
66
66
3C
00
00
00
ENDCHAR

STARTCHAR U+00D6
ENCODING 214
SWIDTH 500 0
DWIDTH 8 0
BBX 8 16 0 0
BITMAP
66
66
00
3C
66
66
66
66
66
66
66
66
3C
00
00
00
ENDCHAR

STARTCHAR U+00D7
ENCODING 215
SWIDTH 500 0
DWIDTH 8 0
BBX 8 16 0 0
BITMAP
00
00
00
00
82
C6
6C
38
6C
C6
82
00
00
00
00
00
ENDCHAR

STARTCHAR U+00D8
ENCODING 216
SWIDTH 500 0
DWIDTH 8 0
BBX 8 16 0 0
BITMAP
00
00
3E
66
6E
6E
6E
7E
76
76
76
66
7C
00
00
00
ENDCHAR

STARTCHAR U+00D9
ENCODING 217
SWIDTH 500 0
DWIDTH 8 0
BBX 8 16 0 0
BITMAP
30
18
00
66
66
66
66
66
66
66
66
66
3C
00
00
00
ENDCHAR

STARTCHAR U+00DA
ENCODING 218
SWIDTH 500 0
DWIDTH 8 0
BBX 8 16 0 0
BITMAP
0C
18
00
66
66
66
66
66
66
66
66
66
3C
00
00
00
ENDCHAR

STARTCHAR U+00DB
ENCODING 219
SWIDTH 500 0
DWIDTH 8 0
BBX 8 16 0 0
BITMAP
18
66
00
66
66
66
66
66
66
66
66
66
3C
00
00
00
ENDCHAR

STARTCHAR U+00DC
ENCODING 220
SWIDTH 500 0
DWIDTH 8 0
BBX 8 16 0 0
BITMAP
66
66
00
66
66
66
66
66
66
66
66
66
3C
00
00
00
ENDCHAR

STARTCHAR U+00DD
ENCODING 221
SWIDTH 500 0
DWIDTH 8 0
BBX 8 16 0 0
BITMAP
0C
18
00
66
66
66
66
3C
18
18
18
18
18
00
00
00
ENDCHAR

STARTCHAR U+00DE
ENCODING 222
SWIDTH 500 0
DWIDTH 8 0
BBX 8 16 0 0
BITMAP
00
00
C0
C0
FC
C6
C6
C6
C6
C6
FC
C0
C0
00
00
00
ENDCHAR

STARTCHAR U+00DF
ENCODING 223
SWIDTH 500 0
DWIDTH 8 0
BBX 8 16 0 0
BITMAP
00
00
78
CC
CC
CC
D8
CC
C6
C6
C6
C6
CC
00
00
00
ENDCHAR

STARTCHAR U+00E0
ENCODING 224
SWIDTH 500 0
DWIDTH 8 0
BBX 8 16 0 0
BITMAP
00
00
30
18
00
00
3C
06
3E
66
66
66
3E
00
00
00
ENDCHAR

STARTCHAR U+00E1
ENCODING 225
SWIDTH 500 0
DWIDTH 8 0
BBX 8 16 0 0
BITMAP
00
00
0C
18
00
00
3C
06
3E
66
66
66
3E
00
00
00
ENDCHAR

STARTCHAR U+00E2
ENCODING 226
SWIDTH 500 0
DWIDTH 8 0
BBX 8 16 0 0
BITMAP
00
18
3C
66
00
00
3C
06
3E
66
66
66
3E
00
00
00
ENDCHAR

STARTCHAR U+00E3
ENCODING 227
SWIDTH 500 0
DWIDTH 8 0
BBX 8 16 0 0
BITMAP
00
00
76
DC
00
00
3C
06
3E
66
66
66
3E
00
00
00
ENDCHAR

STARTCHAR U+00E4
ENCODING 228
SWIDTH 500 0
DWIDTH 8 0
BBX 8 16 0 0
BITMAP
00
00
66
66
00
00
3C
06
3E
66
66
66
3E
00
00
00
ENDCHAR

STARTCHAR U+00E5
ENCODING 229
SWIDTH 500 0
DWIDTH 8 0
BBX 8 16 0 0
BITMAP
00
00
3C
66
3C
00
3C
06
3E
66
66
66
3E
00
00
00
ENDCHAR

STARTCHAR U+00E6
ENCODING 230
SWIDTH 500 0
DWIDTH 8 0
BBX 8 16 0 0
BITMAP
00
00
00
00
00
00
7E
1B
1B
7F
D8
D8
77
00
00
00
ENDCHAR

STARTCHAR U+00E7
ENCODING 231
SWIDTH 500 0
DWIDTH 8 0
BBX 8 16 0 0
BITMAP
00
00
00
00
00
00
3C
66
60
60
60
66
3C
0C
06
1C
ENDCHAR

STARTCHAR U+00E8
ENCODING 232
SWIDTH 500 0
DWIDTH 8 0
BBX 8 16 0 0
BITMAP
00
00
30
18
00
00
3C
66
66
7E
60
60
3C
00
00
00
ENDCHAR

STARTCHAR U+00E9
ENCODING 233
SWIDTH 500 0
DWIDTH 8 0
BBX 8 16 0 0
BITMAP
00
00
0C
18
00
00
3C
66
66
7E
60
60
3C
00
00
00
ENDCHAR

STARTCHAR U+00EA
ENCODING 234
SWIDTH 500 0
DWIDTH 8 0
BBX 8 16 0 0
BITMAP
00
18
3C
66
00
00
3C
66
66
7E
60
60
3C
00
00
00
ENDCHAR

STARTCHAR U+00EB
ENCODING 235
SWIDTH 500 0
DWIDTH 8 0
BBX 8 16 0 0
BITMAP
00
00
66
66
00
00
3C
66
66
7E
60
60
3C
00
00
00
ENDCHAR

STARTCHAR U+00EC
ENCODING 236
SWIDTH 500 0
DWIDTH 8 0
BBX 8 16 0 0
BITMAP
00
00
30
18
00
00
38
18
18
18
18
18
3C
00
00
00
ENDCHAR

STARTCHAR U+00ED
ENCODING 237
SWIDTH 500 0
DWIDTH 8 0
BBX 8 16 0 0
BITMAP
00
00
0C
18
00
00
38
18
18
18
18
18
3C
00
00
00
ENDCHAR

STARTCHAR U+00EE
ENCODING 238
SWIDTH 500 0
DWIDTH 8 0
BBX 8 16 0 0
BITMAP
00
18
3C
66
00
00
38
18
18
18
18
18
3C
00
00
00
ENDCHAR

STARTCHAR U+00EF
ENCODING 239
SWIDTH 500 0
DWIDTH 8 0
BBX 8 16 0 0
BITMAP
00
00
66
66
00
00
38
18
18
18
18
18
3C
00
00
00
ENDCHAR

STARTCHAR U+00F0
ENCODING 240
SWIDTH 500 0
DWIDTH 8 0
BBX 8 16 0 0
BITMAP
00
36
1C
1C
36
06
3E
66
66
66
66
66
3C
00
00
00
ENDCHAR

STARTCHAR U+00F1
ENCODING 241
SWIDTH 500 0
DWIDTH 8 0
BBX 8 16 0 0
BITMAP
00
00
76
DC
00
00
7C
66
66
66
66
66
66
00
00
00
ENDCHAR

STARTCHAR U+00F2
ENCODING 242
SWIDTH 500 0
DWIDTH 8 0
BBX 8 16 0 0
BITMAP
00
00
30
18
00
00
3C
66
66
66
66
66
3C
00
00
00
ENDCHAR

STARTCHAR U+00F3
ENCODING 243
SWIDTH 500 0
DWIDTH 8 0
BBX 8 16 0 0
BITMAP
00
00
0C
18
00
00
3C
66
66
66
66
66
3C
00
00
00
ENDCHAR

STARTCHAR U+00F4
ENCODING 244
SWIDTH 500 0
DWIDTH 8 0
BBX 8 16 0 0
BITMAP
00
18
3C
66
00
00
3C
66
66
66
66
66
3C
00
00
00
ENDCHAR

STARTCHAR U+00F5
ENCODING 245
SWIDTH 500 0
DWIDTH 8 0
BBX 8 16 0 0
BITMAP
00
00
76
DC
00
00
3C
66
66
66
66
66
3C
00
00
00
ENDCHAR

STARTCHAR U+00F6
ENCODING 246
SWIDTH 500 0
DWIDTH 8 0
BBX 8 16 0 0
BITMAP
00
00
66
66
00
00
3C
66
66
66
66
66
3C
00
00
00
ENDCHAR

STARTCHAR U+00F7
ENCODING 247
SWIDTH 500 0
DWIDTH 8 0
BBX 8 16 0 0
BITMAP
00
00
00
00
18
18
00
7E
00
18
18
00
00
00
00
00
ENDCHAR

STARTCHAR U+00F8
ENCODING 248
SWIDTH 500 0
DWIDTH 8 0
BBX 8 16 0 0
BITMAP
00
00
00
00
00
00
3D
66
6E
7E
76
66
BC
00
00
00
ENDCHAR

STARTCHAR U+00F9
ENCODING 249
SWIDTH 500 0
DWIDTH 8 0
BBX 8 16 0 0
BITMAP
00
00
30
18
00
00
66
66
66
66
66
66
3E
00
00
00
ENDCHAR

STARTCHAR U+00FA
ENCODING 250
SWIDTH 500 0
DWIDTH 8 0
BBX 8 16 0 0
BITMAP
00
00
0C
18
00
00
66
66
66
66
66
66
3E
00
00
00
ENDCHAR

STARTCHAR U+00FB
ENCODING 251
SWIDTH 500 0
DWIDTH 8 0
BBX 8 16 0 0
BITMAP
00
18
3C
66
00
00
66
66
66
66
66
66
3E
00
00
00
ENDCHAR

STARTCHAR U+00FC
ENCODING 252
SWIDTH 500 0
DWIDTH 8 0
BBX 8 16 0 0
BITMAP
00
00
66
66
00
00
66
66
66
66
66
66
3E
00
00
00
ENDCHAR

STARTCHAR U+00FD
ENCODING 253
SWIDTH 500 0
DWIDTH 8 0
BBX 8 16 0 0
BITMAP
00
00
0C
18
00
00
66
66
66
66
66
66
3E
06
06
3C
ENDCHAR

STARTCHAR U+00FE
ENCODING 254
SWIDTH 500 0
DWIDTH 8 0
BBX 8 16 0 0
BITMAP
00
00
00
60
60
60
7C
66
66
66
66
66
7C
60
60
60
ENDCHAR

STARTCHAR U+00FF
ENCODING 255
SWIDTH 500 0
DWIDTH 8 0
BBX 8 16 0 0
BITMAP
00
00
66
66
00
00
66
66
66
66
66
66
3E
06
06
3C
ENDCHAR

STARTCHAR U+0100
ENCODING 256
SWIDTH 500 0
DWIDTH 8 0
BBX 8 16 0 0
BITMAP
7E
00
18
3C
66
66
66
7E
66
66
66
66
66
00
00
00
ENDCHAR

STARTCHAR U+0101
ENCODING 257
SWIDTH 500 0
DWIDTH 8 0
BBX 8 16 0 0
BITMAP
00
00
00
7E
00
00
3C
06
3E
66
66
66
3E
00
00
00
ENDCHAR

STARTCHAR U+0102
ENCODING 258
SWIDTH 500 0
DWIDTH 8 0
BBX 8 16 0 0
BITMAP
66
3C
00
18
3C
66
66
66
7E
66
66
66
66
00
00
00
ENDCHAR

STARTCHAR U+0103
ENCODING 259
SWIDTH 500 0
DWIDTH 8 0
BBX 8 16 0 0
BITMAP
00
00
66
3C
00
00
3C
06
3E
66
66
66
3E
00
00
00
ENDCHAR

STARTCHAR U+0104
ENCODING 260
SWIDTH 500 0
DWIDTH 8 0
BBX 8 16 0 0
BITMAP
00
00
18
3C
66
66
66
7E
66
66
66
66
66
0C
18
0E
ENDCHAR

STARTCHAR U+0105
ENCODING 261
SWIDTH 500 0
DWIDTH 8 0
BBX 8 16 0 0
BITMAP
00
00
00
00
00
00
3C
06
3E
66
66
66
3E
0C
18
0E
ENDCHAR

STARTCHAR U+0106
ENCODING 262
SWIDTH 500 0
DWIDTH 8 0
BBX 8 16 0 0
BITMAP
0C
18
00
3C
66
66
60
60
60
60
66
66
3C
00
00
00
ENDCHAR

STARTCHAR U+0107
ENCODING 263
SWIDTH 500 0
DWIDTH 8 0
BBX 8 16 0 0
BITMAP
00
00
0C
18
00
00
3C
66
60
60
60
66
3C
00
00
00
ENDCHAR

STARTCHAR U+0108
ENCODING 264
SWIDTH 500 0
DWIDTH 8 0
BBX 8 16 0 0
BITMAP
18
66
00
3C
66
66
60
60
60
60
66
66
3C
00
00
00
ENDCHAR

STARTCHAR U+0109
ENCODING 265
SWIDTH 500 0
DWIDTH 8 0
BBX 8 16 0 0
BITMAP
00
18
3C
66
00
00
3C
66
60
60
60
66
3C
00
00
00
ENDCHAR

STARTCHAR U+010A
ENCODING 266
SWIDTH 500 0
DWIDTH 8 0
BBX 8 16 0 0
BITMAP
18
18
00
3C
66
66
60
60
60
60
66
66
3C
00
00
00
ENDCHAR

STARTCHAR U+010B
ENCODING 267
SWIDTH 500 0
DWIDTH 8 0
BBX 8 16 0 0
BITMAP
00
00
18
18
00
00
3C
66
60
60
60
66
3C
00
00
00
ENDCHAR

STARTCHAR U+010C
ENCODING 268
SWIDTH 500 0
DWIDTH 8 0
BBX 8 16 0 0
BITMAP
66
18
00
3C
66
66
60
60
60
60
66
66
3C
00
00
00
ENDCHAR

STARTCHAR U+010D
ENCODING 269
SWIDTH 500 0
DWIDTH 8 0
BBX 8 16 0 0
BITMAP
00
66
3C
18
00
00
3C
66
60
60
60
66
3C
00
00
00
ENDCHAR

STARTCHAR U+010E
ENCODING 270
SWIDTH 500 0
DWIDTH 8 0
BBX 8 16 0 0
BITMAP
66
18
00
78
6C
66
66
66
66
66
66
6C
78
00
00
00
ENDCHAR

STARTCHAR U+010F
ENCODING 271
SWIDTH 500 0
DWIDTH 8 0
BBX 8 16 0 0
BITMAP
00
00
1A
1A
1A
18
78
D8
D8
D8
D8
D8
78
00
00
00
ENDCHAR

STARTCHAR U+0110
ENCODING 272
SWIDTH 500 0
DWIDTH 8 0
BBX 8 16 0 0
BITMAP
00
00
78
6C
66
66
66
F6
66
66
66
6C
78
00
00
00
ENDCHAR

STARTCHAR U+0111
ENCODING 273
SWIDTH 500 0
DWIDTH 8 0
BBX 8 16 0 0
BITMAP
00
00
06
1F
06
06
3E
66
66
66
66
66
3E
00
00
00
ENDCHAR

STARTCHAR U+0112
ENCODING 274
SWIDTH 500 0
DWIDTH 8 0
BBX 8 16 0 0
BITMAP
7E
00
7E
60
60
60
60
7C
60
60
60
60
7E
00
00
00
ENDCHAR

STARTCHAR U+0113
ENCODING 275
SWIDTH 500 0
DWIDTH 8 0
BBX 8 16 0 0
BITMAP
00
00
00
7E
00
00
3C
66
66
7E
60
60
3C
00
00
00
ENDCHAR

STARTCHAR U+0114
ENCODING 276
SWIDTH 500 0
DWIDTH 8 0
BBX 8 16 0 0
BITMAP
66
3C
00
7E
60
60
60
7C
60
60
60
60
7E
00
00
00
ENDCHAR

STARTCHAR U+0115
ENCODING 277
SWIDTH 500 0
DWIDTH 8 0
BBX 8 16 0 0
BITMAP
00
00
66
3C
00
00
3C
66
66
7E
60
60
3C
00
00
00
ENDCHAR

STARTCHAR U+0116
ENCODING 278
SWIDTH 500 0
DWIDTH 8 0
BBX 8 16 0 0
BITMAP
18
18
00
7E
60
60
60
7C
60
60
60
60
7E
00
00
00
ENDCHAR

STARTCHAR U+0117
ENCODING 279
SWIDTH 500 0
DWIDTH 8 0
BBX 8 16 0 0
BITMAP
00
00
18
18
00
00
3C
66
66
7E
60
60
3C
00
00
00
ENDCHAR

STARTCHAR U+0118
ENCODING 280
SWIDTH 500 0
DWIDTH 8 0
BBX 8 16 0 0
BITMAP
00
00
7E
60
60
60
60
7C
60
60
60
60
7E
0C
18
0E
ENDCHAR

STARTCHAR U+0119
ENCODING 281
SWIDTH 500 0
DWIDTH 8 0
BBX 8 16 0 0
BITMAP
00
00
00
00
00
00
3C
66
66
7E
60
60
3C
0C
18
0E
ENDCHAR

STARTCHAR U+011A
ENCODING 282
SWIDTH 500 0
DWIDTH 8 0
BBX 8 16 0 0
BITMAP
66
18
00
7E
60
60
60
7C
60
60
60
60
7E
00
00
00
ENDCHAR

STARTCHAR U+011B
ENCODING 283
SWIDTH 500 0
DWIDTH 8 0
BBX 8 16 0 0
BITMAP
00
66
3C
18
00
00
3C
66
66
7E
60
60
3C
00
00
00
ENDCHAR

STARTCHAR U+011C
ENCODING 284
SWIDTH 500 0
DWIDTH 8 0
BBX 8 16 0 0
BITMAP
18
66
00
3C
66
66
60
60
6E
66
66
66
3E
00
00
00
ENDCHAR

STARTCHAR U+011D
ENCODING 285
SWIDTH 500 0
DWIDTH 8 0
BBX 8 16 0 0
BITMAP
00
18
3C
66
00
00
3E
66
66
66
66
66
3E
06
06
7C
ENDCHAR

STARTCHAR U+011E
ENCODING 286
SWIDTH 500 0
DWIDTH 8 0
BBX 8 16 0 0
BITMAP
66
3C
00
3C
66
66
60
60
6E
66
66
66
3E
00
00
00
ENDCHAR

STARTCHAR U+011F
ENCODING 287
SWIDTH 500 0
DWIDTH 8 0
BBX 8 16 0 0
BITMAP
00
00
66
3C
00
00
3E
66
66
66
66
66
3E
06
06
7C
ENDCHAR

STARTCHAR U+0120
ENCODING 288
SWIDTH 500 0
DWIDTH 8 0
BBX 8 16 0 0
BITMAP
18
18
00
3C
66
66
60
60
6E
66
66
66
3E
00
00
00
ENDCHAR

STARTCHAR U+0121
ENCODING 289
SWIDTH 500 0
DWIDTH 8 0
BBX 8 16 0 0
BITMAP
00
00
18
18
00
00
3E
66
66
66
66
66
3E
06
06
7C
ENDCHAR

STARTCHAR U+0122
ENCODING 290
SWIDTH 500 0
DWIDTH 8 0
BBX 8 16 0 0
BITMAP
00
00
3C
66
66
66
60
60
6E
66
66
66
3E
00
18
30
ENDCHAR

STARTCHAR U+0123
ENCODING 291
SWIDTH 500 0
DWIDTH 8 0
BBX 8 16 0 0
BITMAP
00
0C
18
18
00
3E
66
66
66
66
66
66
3E
06
06
3C
ENDCHAR

STARTCHAR U+0124
ENCODING 292
SWIDTH 500 0
DWIDTH 8 0
BBX 8 16 0 0
BITMAP
18
66
00
66
66
66
66
7E
66
66
66
66
66
00
00
00
ENDCHAR

STARTCHAR U+0125
ENCODING 293
SWIDTH 500 0
DWIDTH 8 0
BBX 8 16 0 0
BITMAP
18
3C
66
00
60
60
60
60
7C
66
66
66
66
00
00
00
ENDCHAR

STARTCHAR U+0126
ENCODING 294
SWIDTH 500 0
DWIDTH 8 0
BBX 8 16 0 0
BITMAP
00
00
66
66
66
FF
66
7E
66
66
66
66
66
00
00
00
ENDCHAR

STARTCHAR U+0127
ENCODING 295
SWIDTH 500 0
DWIDTH 8 0
BBX 8 16 0 0
BITMAP
00
60
78
60
7C
66
66
66
66
66
66
66
66
00
00
00
ENDCHAR

STARTCHAR U+0128
ENCODING 296
SWIDTH 500 0
DWIDTH 8 0
BBX 8 16 0 0
BITMAP
76
DC
00
7E
18
18
18
18
18
18
18
18
7E
00
00
00
ENDCHAR

STARTCHAR U+0129
ENCODING 297
SWIDTH 500 0
DWIDTH 8 0
BBX 8 16 0 0
BITMAP
00
00
76
DC
00
00
38
18
18
18
18
18
3C
00
00
00
ENDCHAR

STARTCHAR U+012A
ENCODING 298
SWIDTH 500 0
DWIDTH 8 0
BBX 8 16 0 0
BITMAP
7E
00
7E
18
18
18
18
18
18
18
18
18
7E
00
00
00
ENDCHAR

STARTCHAR U+012B
ENCODING 299
SWIDTH 500 0
DWIDTH 8 0
BBX 8 16 0 0
BITMAP
00
00
00
7E
00
00
38
18
18
18
18
18
3C
00
00
00
ENDCHAR

STARTCHAR U+012C
ENCODING 300
SWIDTH 500 0
DWIDTH 8 0
BBX 8 16 0 0
BITMAP
66
3C
00
7E
18
18
18
18
18
18
18
18
7E
00
00
00
ENDCHAR

STARTCHAR U+012D
ENCODING 301
SWIDTH 500 0
DWIDTH 8 0
BBX 8 16 0 0
BITMAP
00
00
66
3C
00
00
38
18
18
18
18
18
3C
00
00
00
ENDCHAR

STARTCHAR U+012E
ENCODING 302
SWIDTH 500 0
DWIDTH 8 0
BBX 8 16 0 0
BITMAP
00
00
7E
18
18
18
18
18
18
18
18
18
7E
0C
18
0E
ENDCHAR

STARTCHAR U+012F
ENCODING 303
SWIDTH 500 0
DWIDTH 8 0
BBX 8 16 0 0
BITMAP
00
00
18
18
00
00
78
18
18
18
18
18
1E
0C
18
0E
ENDCHAR

STARTCHAR U+0130
ENCODING 304
SWIDTH 500 0
DWIDTH 8 0
BBX 8 16 0 0
BITMAP
18
18
00
7E
18
18
18
18
18
18
18
18
7E
00
00
00
ENDCHAR

STARTCHAR U+0131
ENCODING 305
SWIDTH 500 0
DWIDTH 8 0
BBX 8 16 0 0
BITMAP
00
00
00
00
00
00
38
18
18
18
18
18
3C
00
00
00
ENDCHAR

STARTCHAR U+0132
ENCODING 306
SWIDTH 500 0
DWIDTH 8 0
BBX 8 16 0 0
BITMAP
00
00
C6
C6
C6
C6
C6
C6
C6
C6
C6
D6
CC
00
00
00
ENDCHAR

STARTCHAR U+0133
ENCODING 307
SWIDTH 500 0
DWIDTH 8 0
BBX 8 16 0 0
BITMAP
00
00
66
66
00
00
66
66
66
66
66
66
66
06
3C
00
ENDCHAR

STARTCHAR U+0134
ENCODING 308
SWIDTH 500 0
DWIDTH 8 0
BBX 8 16 0 0
BITMAP
18
66
00
06
06
06
06
06
06
06
66
66
3C
00
00
00
ENDCHAR

STARTCHAR U+0135
ENCODING 309
SWIDTH 500 0
DWIDTH 8 0
BBX 8 16 0 0
BITMAP
00
18
3C
66
00
00
0C
0C
0C
0C
0C
0C
0C
0C
0C
78
ENDCHAR

STARTCHAR U+0136
ENCODING 310
SWIDTH 500 0
DWIDTH 8 0
BBX 8 16 0 0
BITMAP
00
00
C6
C6
CC
CC
D8
F0
D8
CC
CC
C6
C6
0C
06
1C
ENDCHAR

STARTCHAR U+0137
ENCODING 311
SWIDTH 500 0
DWIDTH 8 0
BBX 8 16 0 0
BITMAP
00
00
60
60
60
60
66
66
6C
78
6C
66
66
0C
06
1C
ENDCHAR

STARTCHAR U+0138
ENCODING 312
SWIDTH 500 0
DWIDTH 8 0
BBX 8 16 0 0
BITMAP
00
00
00
00
00
00
66
66
6C
78
6C
66
66
00
00
00
ENDCHAR

STARTCHAR U+0139
ENCODING 313
SWIDTH 500 0
DWIDTH 8 0
BBX 8 16 0 0
BITMAP
0C
18
00
60
60
60
60
60
60
60
60
60
7E
00
00
00
ENDCHAR

STARTCHAR U+013A
ENCODING 314
SWIDTH 500 0
DWIDTH 8 0
BBX 8 16 0 0
BITMAP
0C
18
00
78
18
18
18
18
18
18
18
18
1E
00
00
00
ENDCHAR

STARTCHAR U+013B
ENCODING 315
SWIDTH 500 0
DWIDTH 8 0
BBX 8 16 0 0
BITMAP
00
00
60
60
60
60
60
60
60
60
60
60
7E
0C
06
1C
ENDCHAR

STARTCHAR U+013C
ENCODING 316
SWIDTH 500 0
DWIDTH 8 0
BBX 8 16 0 0
BITMAP
00
00
78
18
18
18
18
18
18
18
18
18
7E
00
18
30
ENDCHAR

STARTCHAR U+013D
ENCODING 317
SWIDTH 500 0
DWIDTH 8 0
BBX 8 16 0 0
BITMAP
00
00
66
66
62
64
60
60
60
60
60
60
7E
00
00
00
ENDCHAR

STARTCHAR U+013E
ENCODING 318
SWIDTH 500 0
DWIDTH 8 0
BBX 8 16 0 0
BITMAP
00
00
F6
36
32
34
30
30
30
30
30
30
FC
00
00
00
ENDCHAR

STARTCHAR U+013F
ENCODING 319
SWIDTH 500 0
DWIDTH 8 0
BBX 8 16 0 0
BITMAP
00
00
60
60
60
66
66
60
60
60
60
60
7E
00
00
00
ENDCHAR

STARTCHAR U+0140
ENCODING 320
SWIDTH 500 0
DWIDTH 8 0
BBX 8 16 0 0
BITMAP
0C
18
00
78
18
18
18
18
18
18
18
18
1E
00
00
00
ENDCHAR

STARTCHAR U+0141
ENCODING 321
SWIDTH 500 0
DWIDTH 8 0
BBX 8 16 0 0
BITMAP
00
00
30
30
30
34
3C
78
F0
B0
30
30
3E
00
00
00
ENDCHAR

STARTCHAR U+0142
ENCODING 322
SWIDTH 500 0
DWIDTH 8 0
BBX 8 16 0 0
BITMAP
00
00
78
18
18
1A
1E
3C
78
58
18
18
1E
00
00
00
ENDCHAR

STARTCHAR U+0143
ENCODING 323
SWIDTH 500 0
DWIDTH 8 0
BBX 8 16 0 0
BITMAP
0C
18
00
C6
C6
E6
F6
DE
CE
C6
C6
C6
C6
00
00
00
ENDCHAR

STARTCHAR U+0144
ENCODING 324
SWIDTH 500 0
DWIDTH 8 0
BBX 8 16 0 0
BITMAP
00
00
0C
18
00
00
7C
66
66
66
66
66
66
00
00
00
ENDCHAR

STARTCHAR U+0145
ENCODING 325
SWIDTH 500 0
DWIDTH 8 0
BBX 8 16 0 0
BITMAP
00
00
C6
C6
E6
E6
F6
FE
DE
CE
CE
C6
C6
0C
06
1C
ENDCHAR

STARTCHAR U+0146
ENCODING 326
SWIDTH 500 0
DWIDTH 8 0
BBX 8 16 0 0
BITMAP
00
00
00
00
00
00
7C
66
66
66
66
66
66
0C
06
1C
ENDCHAR

STARTCHAR U+0147
ENCODING 327
SWIDTH 500 0
DWIDTH 8 0
BBX 8 16 0 0
BITMAP
66
18
00
C6
C6
E6
F6
DE
CE
C6
C6
C6
C6
00
00
00
ENDCHAR

STARTCHAR U+0148
ENCODING 328
SWIDTH 500 0
DWIDTH 8 0
BBX 8 16 0 0
BITMAP
00
66
3C
18
00
00
7C
66
66
66
66
66
66
00
00
00
ENDCHAR

STARTCHAR U+0149
ENCODING 329
SWIDTH 500 0
DWIDTH 8 0
BBX 8 16 0 0
BITMAP
00
00
C0
C0
C0
7C
B6
36
36
36
36
36
36
00
00
00
ENDCHAR

STARTCHAR U+014A
ENCODING 330
SWIDTH 500 0
DWIDTH 8 0
BBX 8 16 0 0
BITMAP
00
00
00
FC
C6
C6
C6
C6
C6
C6
C6
C6
C6
06
06
3C
ENDCHAR

STARTCHAR U+014B
ENCODING 331
SWIDTH 500 0
DWIDTH 8 0
BBX 8 16 0 0
BITMAP
00
00
00
00
00
00
7C
66
66
66
66
66
66
06
06
3C
ENDCHAR

STARTCHAR U+014C
ENCODING 332
SWIDTH 500 0
DWIDTH 8 0
BBX 8 16 0 0
BITMAP
7E
00
3C
66
66
66
66
66
66
66
66
66
3C
00
00
00
ENDCHAR

STARTCHAR U+014D
ENCODING 333
SWIDTH 500 0
DWIDTH 8 0
BBX 8 16 0 0
BITMAP
00
00
00
7E
00
00
3C
66
66
66
66
66
3C
00
00
00
ENDCHAR

STARTCHAR U+014E
ENCODING 334
SWIDTH 500 0
DWIDTH 8 0
BBX 8 16 0 0
BITMAP
66
3C
00
3C
66
66
66
66
66
66
66
66
3C
00
00
00
ENDCHAR

STARTCHAR U+014F
ENCODING 335
SWIDTH 500 0
DWIDTH 8 0
BBX 8 16 0 0
BITMAP
00
00
66
3C
00
00
3C
66
66
66
66
66
3C
00
00
00
ENDCHAR

STARTCHAR U+0150
ENCODING 336
SWIDTH 500 0
DWIDTH 8 0
BBX 8 16 0 0
BITMAP
66
CC
00
3C
66
66
66
66
66
66
66
66
3C
00
00
00
ENDCHAR

STARTCHAR U+0151
ENCODING 337
SWIDTH 500 0
DWIDTH 8 0
BBX 8 16 0 0
BITMAP
00
00
66
CC
00
00
3C
66
66
66
66
66
3C
00
00
00
ENDCHAR

STARTCHAR U+0152
ENCODING 338
SWIDTH 500 0
DWIDTH 8 0
BBX 8 16 0 0
BITMAP
00
00
7E
CC
CC
CC
CC
CE
CC
CC
CC
CC
7E
00
00
00
ENDCHAR

STARTCHAR U+0153
ENCODING 339
SWIDTH 500 0
DWIDTH 8 0
BBX 8 16 0 0
BITMAP
00
00
00
00
00
00
7E
DB
DB
DF
D8
D8
77
00
00
00
ENDCHAR

STARTCHAR U+0154
ENCODING 340
SWIDTH 500 0
DWIDTH 8 0
BBX 8 16 0 0
BITMAP
0C
18
00
7C
66
66
66
7C
6C
66
66
66
66
00
00
00
ENDCHAR

STARTCHAR U+0155
ENCODING 341
SWIDTH 500 0
DWIDTH 8 0
BBX 8 16 0 0
BITMAP
00
00
0C
18
00
00
7C
66
66
60
60
60
60
00
00
00
ENDCHAR

STARTCHAR U+0156
ENCODING 342
SWIDTH 500 0
DWIDTH 8 0
BBX 8 16 0 0
BITMAP
00
00
7C
66
66
66
66
7C
6C
66
66
66
66
00
18
30
ENDCHAR

STARTCHAR U+0157
ENCODING 343
SWIDTH 500 0
DWIDTH 8 0
BBX 8 16 0 0
BITMAP
00
00
00
00
00
00
66
6E
70
60
60
60
60
00
30
60
ENDCHAR

STARTCHAR U+0158
ENCODING 344
SWIDTH 500 0
DWIDTH 8 0
BBX 8 16 0 0
BITMAP
66
18
00
7C
66
66
66
7C
6C
66
66
66
66
00
00
00
ENDCHAR

STARTCHAR U+0159
ENCODING 345
SWIDTH 500 0
DWIDTH 8 0
BBX 8 16 0 0
BITMAP
00
66
3C
18
00
00
7C
66
66
60
60
60
60
00
00
00
ENDCHAR

STARTCHAR U+015A
ENCODING 346
SWIDTH 500 0
DWIDTH 8 0
BBX 8 16 0 0
BITMAP
0C
18
00
3C
66
66
30
18
0C
06
66
66
3C
00
00
00
ENDCHAR

STARTCHAR U+015B
ENCODING 347
SWIDTH 500 0
DWIDTH 8 0
BBX 8 16 0 0
BITMAP
00
00
0C
18
00
00
3E
60
60
3C
06
06
7C
00
00
00
ENDCHAR

STARTCHAR U+015C
ENCODING 348
SWIDTH 500 0
DWIDTH 8 0
BBX 8 16 0 0
BITMAP
18
66
00
3C
66
66
30
18
0C
06
66
66
3C
00
00
00
ENDCHAR

STARTCHAR U+015D
ENCODING 349
SWIDTH 500 0
DWIDTH 8 0
BBX 8 16 0 0
BITMAP
00
18
3C
66
00
00
3E
60
60
3C
06
06
7C
00
00
00
ENDCHAR

STARTCHAR U+015E
ENCODING 350
SWIDTH 500 0
DWIDTH 8 0
BBX 8 16 0 0
BITMAP
00
00
3C
66
66
66
60
30
18
0C
06
66
3C
18
0C
38
ENDCHAR

STARTCHAR U+015F
ENCODING 351
SWIDTH 500 0
DWIDTH 8 0
BBX 8 16 0 0
BITMAP
00
00
00
00
00
00
3E
60
60
3C
06
06
7C
18
0C
38
ENDCHAR

STARTCHAR U+0160
ENCODING 352
SWIDTH 500 0
DWIDTH 8 0
BBX 8 16 0 0
BITMAP
66
18
00
3C
66
66
30
18
0C
06
66
66
3C
00
00
00
ENDCHAR

STARTCHAR U+0161
ENCODING 353
SWIDTH 500 0
DWIDTH 8 0
BBX 8 16 0 0
BITMAP
00
66
3C
18
00
00
3E
60
60
3C
06
06
7C
00
00
00
ENDCHAR

STARTCHAR U+0162
ENCODING 354
SWIDTH 500 0
DWIDTH 8 0
BBX 8 16 0 0
BITMAP
00
00
7E
18
18
18
18
18
18
18
18
18
18
18
0C
38
ENDCHAR

STARTCHAR U+0163
ENCODING 355
SWIDTH 500 0
DWIDTH 8 0
BBX 8 16 0 0
BITMAP
00
00
30
30
30
7E
30
30
30
30
30
30
1E
18
0C
38
ENDCHAR

STARTCHAR U+0164
ENCODING 356
SWIDTH 500 0
DWIDTH 8 0
BBX 8 16 0 0
BITMAP
66
18
00
7E
18
18
18
18
18
18
18
18
18
00
00
00
ENDCHAR

STARTCHAR U+0165
ENCODING 357
SWIDTH 500 0
DWIDTH 8 0
BBX 8 16 0 0
BITMAP
00
00
60
63
63
F9
62
60
60
60
60
60
38
00
00
00
ENDCHAR

STARTCHAR U+0166
ENCODING 358
SWIDTH 500 0
DWIDTH 8 0
BBX 8 16 0 0
BITMAP
00
00
7E
18
18
18
18
3C
18
18
18
18
18
00
00
00
ENDCHAR

STARTCHAR U+0167
ENCODING 359
SWIDTH 500 0
DWIDTH 8 0
BBX 8 16 0 0
BITMAP
00
00
30
30
30
7E
30
7C
30
30
30
30
1E
00
00
00
ENDCHAR

STARTCHAR U+0168
ENCODING 360
SWIDTH 500 0
DWIDTH 8 0
BBX 8 16 0 0
BITMAP
76
DC
00
66
66
66
66
66
66
66
66
66
3C
00
00
00
ENDCHAR

STARTCHAR U+0169
ENCODING 361
SWIDTH 500 0
DWIDTH 8 0
BBX 8 16 0 0
BITMAP
00
00
76
DC
00
00
66
66
66
66
66
66
3E
00
00
00
ENDCHAR

STARTCHAR U+016A
ENCODING 362
SWIDTH 500 0
DWIDTH 8 0
BBX 8 16 0 0
BITMAP
7E
00
66
66
66
66
66
66
66
66
66
66
3C
00
00
00
ENDCHAR

STARTCHAR U+016B
ENCODING 363
SWIDTH 500 0
DWIDTH 8 0
BBX 8 16 0 0
BITMAP
00
00
00
7E
00
00
66
66
66
66
66
66
3E
00
00
00
ENDCHAR

STARTCHAR U+016C
ENCODING 364
SWIDTH 500 0
DWIDTH 8 0
BBX 8 16 0 0
BITMAP
66
3C
00
66
66
66
66
66
66
66
66
66
3C
00
00
00
ENDCHAR

STARTCHAR U+016D
ENCODING 365
SWIDTH 500 0
DWIDTH 8 0
BBX 8 16 0 0
BITMAP
00
00
66
3C
00
00
66
66
66
66
66
66
3E
00
00
00
ENDCHAR

STARTCHAR U+016E
ENCODING 366
SWIDTH 500 0
DWIDTH 8 0
BBX 8 16 0 0
BITMAP
3C
66
3C
00
66
66
66
66
66
66
66
66
3C
00
00
00
ENDCHAR

STARTCHAR U+016F
ENCODING 367
SWIDTH 500 0
DWIDTH 8 0
BBX 8 16 0 0
BITMAP
00
00
3C
66
3C
00
66
66
66
66
66
66
3E
00
00
00
ENDCHAR

STARTCHAR U+0170
ENCODING 368
SWIDTH 500 0
DWIDTH 8 0
BBX 8 16 0 0
BITMAP
66
CC
00
66
66
66
66
66
66
66
66
66
3C
00
00
00
ENDCHAR

STARTCHAR U+0171
ENCODING 369
SWIDTH 500 0
DWIDTH 8 0
BBX 8 16 0 0
BITMAP
00
00
66
CC
00
00
66
66
66
66
66
66
3E
00
00
00
ENDCHAR

STARTCHAR U+0172
ENCODING 370
SWIDTH 500 0
DWIDTH 8 0
BBX 8 16 0 0
BITMAP
00
00
66
66
66
66
66
66
66
66
66
66
3C
0C
18
0E
ENDCHAR

STARTCHAR U+0173
ENCODING 371
SWIDTH 500 0
DWIDTH 8 0
BBX 8 16 0 0
BITMAP
00
00
00
00
00
00
66
66
66
66
66
66
3E
0C
18
0E
ENDCHAR

STARTCHAR U+0174
ENCODING 372
SWIDTH 500 0
DWIDTH 8 0
BBX 8 16 0 0
BITMAP
18
66
00
C6
C6
C6
C6
D6
D6
FE
EE
EE
C6
00
00
00
ENDCHAR

STARTCHAR U+0175
ENCODING 373
SWIDTH 500 0
DWIDTH 8 0
BBX 8 16 0 0
BITMAP
00
18
3C
66
00
00
C6
C6
D6
D6
D6
7C
6C
00
00
00
ENDCHAR

STARTCHAR U+0176
ENCODING 374
SWIDTH 500 0
DWIDTH 8 0
BBX 8 16 0 0
BITMAP
18
66
00
66
66
66
66
3C
18
18
18
18
18
00
00
00
ENDCHAR

STARTCHAR U+0177
ENCODING 375
SWIDTH 500 0
DWIDTH 8 0
BBX 8 16 0 0
BITMAP
00
18
3C
66
00
00
66
66
66
66
66
66
3E
06
06
3C
ENDCHAR

STARTCHAR U+0178
ENCODING 376
SWIDTH 500 0
DWIDTH 8 0
BBX 8 16 0 0
BITMAP
66
66
00
66
66
66
66
3C
18
18
18
18
18
00
00
00
ENDCHAR

STARTCHAR U+0179
ENCODING 377
SWIDTH 500 0
DWIDTH 8 0
BBX 8 16 0 0
BITMAP
0C
18
00
7E
06
06
0C
18
30
60
60
60
7E
00
00
00
ENDCHAR

STARTCHAR U+017A
ENCODING 378
SWIDTH 500 0
DWIDTH 8 0
BBX 8 16 0 0
BITMAP
00
00
0C
18
00
00
7E
06
0C
18
30
60
7E
00
00
00
ENDCHAR

STARTCHAR U+017B
ENCODING 379
SWIDTH 500 0
DWIDTH 8 0
BBX 8 16 0 0
BITMAP
18
18
00
7E
06
06
0C
18
30
60
60
60
7E
00
00
00
ENDCHAR

STARTCHAR U+017C
ENCODING 380
SWIDTH 500 0
DWIDTH 8 0
BBX 8 16 0 0
BITMAP
00
00
18
18
00
00
7E
06
0C
18
30
60
7E
00
00
00
ENDCHAR

STARTCHAR U+017D
ENCODING 381
SWIDTH 500 0
DWIDTH 8 0
BBX 8 16 0 0
BITMAP
66
18
00
7E
06
06
0C
18
30
60
60
60
7E
00
00
00
ENDCHAR

STARTCHAR U+017E
ENCODING 382
SWIDTH 500 0
DWIDTH 8 0
BBX 8 16 0 0
BITMAP
00
66
3C
18
00
00
7E
06
0C
18
30
60
7E
00
00
00
ENDCHAR

STARTCHAR U+017F
ENCODING 383
SWIDTH 500 0
DWIDTH 8 0
BBX 8 16 0 0
BITMAP
00
00
3C
66
60
60
60
60
60
60
60
60
60
00
00
00
ENDCHAR

STARTCHAR U+0180
ENCODING 384
SWIDTH 500 0
DWIDTH 8 0
BBX 8 16 0 0
BITMAP
00
00
60
F8
60
60
7C
66
66
66
66
66
7C
00
00
00
ENDCHAR

STARTCHAR U+0181
ENCODING 385
SWIDTH 500 0
DWIDTH 8 0
BBX 8 16 0 0
BITMAP
00
00
7C
B6
B6
B6
36
3C
36
36
36
36
3C
00
00
00
ENDCHAR

STARTCHAR U+0182
ENCODING 386
SWIDTH 500 0
DWIDTH 8 0
BBX 8 16 0 0
BITMAP
00
00
7E
60
60
60
60
7C
66
66
66
66
7C
00
00
00
ENDCHAR

STARTCHAR U+0183
ENCODING 387
SWIDTH 500 0
DWIDTH 8 0
BBX 8 16 0 0
BITMAP
00
00
7C
60
7C
66
66
66
66
66
66
66
7C
00
00
00
ENDCHAR

STARTCHAR U+0184
ENCODING 388
SWIDTH 500 0
DWIDTH 8 0
BBX 8 16 0 0
BITMAP
00
00
60
E0
60
60
7C
66
66
66
66
66
7C
00
00
00
ENDCHAR

STARTCHAR U+0185
ENCODING 389
SWIDTH 500 0
DWIDTH 8 0
BBX 8 16 0 0
BITMAP
00
00
60
E0
60
60
7C
66
66
66
66
66
3C
00
00
00
ENDCHAR

STARTCHAR U+0186
ENCODING 390
SWIDTH 500 0
DWIDTH 8 0
BBX 8 16 0 0
BITMAP
00
00
3C
66
66
06
06
06
06
06
66
66
3C
00
00
00
ENDCHAR

STARTCHAR U+0187
ENCODING 391
SWIDTH 500 0
DWIDTH 8 0
BBX 8 16 0 0
BITMAP
06
0C
7C
CC
CC
C0
C0
C0
C0
C0
CC
CC
78
00
00
00
ENDCHAR

STARTCHAR U+0188
ENCODING 392
SWIDTH 500 0
DWIDTH 8 0
BBX 8 16 0 0
BITMAP
00
00
06
0C
0C
0C
7C
CC
C0
C0
C0
CC
78
00
00
00
ENDCHAR

STARTCHAR U+0189
ENCODING 393
SWIDTH 500 0
DWIDTH 8 0
BBX 8 16 0 0
BITMAP
00
00
78
6C
66
66
66
F6
66
66
66
6C
78
00
00
00
ENDCHAR

STARTCHAR U+018A
ENCODING 394
SWIDTH 500 0
DWIDTH 8 0
BBX 8 16 0 0
BITMAP
00
00
7C
B6
B6
36
36
36
36
36
36
36
7C
00
00
00
ENDCHAR

STARTCHAR U+018B
ENCODING 395
SWIDTH 500 0
DWIDTH 8 0
BBX 8 16 0 0
BITMAP
00
00
3E
06
06
06
06
3E
66
66
66
66
3E
00
00
00
ENDCHAR

STARTCHAR U+018C
ENCODING 396
SWIDTH 500 0
DWIDTH 8 0
BBX 8 16 0 0
BITMAP
00
00
3E
06
3E
66
66
66
66
66
66
66
3E
00
00
00
ENDCHAR

STARTCHAR U+018D
ENCODING 397
SWIDTH 500 0
DWIDTH 8 0
BBX 8 16 0 0
BITMAP
00
00
00
00
00
00
3C
66
66
66
66
66
3C
0C
06
1C
ENDCHAR

STARTCHAR U+018E
ENCODING 398
SWIDTH 500 0
DWIDTH 8 0
BBX 8 16 0 0
BITMAP
00
00
7E
06
06
06
06
3E
06
06
06
06
7E
00
00
00
ENDCHAR

STARTCHAR U+018F
ENCODING 399
SWIDTH 500 0
DWIDTH 8 0
BBX 8 16 0 0
BITMAP
00
00
3C
66
66
06
7E
66
66
66
66
66
3C
00
00
00
ENDCHAR

STARTCHAR U+0190
ENCODING 400
SWIDTH 500 0
DWIDTH 8 0
BBX 8 16 0 0
BITMAP
00
00
3C
66
66
60
60
38
60
60
66
66
3C
00
00
00
ENDCHAR

STARTCHAR U+0191
ENCODING 401
SWIDTH 500 0
DWIDTH 8 0
BBX 8 16 0 0
BITMAP
00
00
7E
60
60
60
60
7C
60
60
60
60
60
60
60
C0
ENDCHAR

STARTCHAR U+0192
ENCODING 402
SWIDTH 500 0
DWIDTH 8 0
BBX 8 16 0 0
BITMAP
00
0E
1B
18
18
18
18
7E
18
18
18
18
D8
70
00
00
ENDCHAR

STARTCHAR U+0193
ENCODING 403
SWIDTH 500 0
DWIDTH 8 0
BBX 8 16 0 0
BITMAP
06
0C
7C
CC
CC
C0
C0
C0
DC
CC
CC
CC
7C
00
00
00
ENDCHAR

STARTCHAR U+0194
ENCODING 404
SWIDTH 500 0
DWIDTH 8 0
BBX 8 16 0 0
BITMAP
00
00
C6
C6
C6
C6
C6
C6
C6
C6
6C
6C
38
6C
38
00
ENDCHAR

STARTCHAR U+0195
ENCODING 405
SWIDTH 500 0
DWIDTH 8 0
BBX 8 16 0 0
BITMAP
00
00
C0
C0
C0
C0
F3
DB
DB
DB
DB
DB
CE
00
00
00
ENDCHAR

STARTCHAR U+0196
ENCODING 406
SWIDTH 500 0
DWIDTH 8 0
BBX 8 16 0 0
BITMAP
00
00
FC
30
30
30
30
30
30
30
30
30
1E
00
00
00
ENDCHAR

STARTCHAR U+0197
ENCODING 407
SWIDTH 500 0
DWIDTH 8 0
BBX 8 16 0 0
BITMAP
00
00
7E
18
18
18
18
7E
18
18
18
18
7E
00
00
00
ENDCHAR

STARTCHAR U+0198
ENCODING 408
SWIDTH 500 0
DWIDTH 8 0
BBX 8 16 0 0
BITMAP
00
00
CE
DA
DA
D8
D8
F0
D8
D8
CC
CC
CC
00
00
00
ENDCHAR

STARTCHAR U+0199
ENCODING 409
SWIDTH 500 0
DWIDTH 8 0
BBX 8 16 0 0
BITMAP
00
00
3C
60
60
60
66
66
6C
78
6C
66
66
00
00
00
ENDCHAR

STARTCHAR U+019A
ENCODING 410
SWIDTH 500 0
DWIDTH 8 0
BBX 8 16 0 0
BITMAP
00
00
78
18
18
18
18
7E
18
18
18
18
1E
00
00
00
ENDCHAR

STARTCHAR U+019B
ENCODING 411
SWIDTH 500 0
DWIDTH 8 0
BBX 8 16 0 0
BITMAP
00
00
36
1C
1C
36
06
3E
66
C6
C6
C6
C6
00
00
00
ENDCHAR

STARTCHAR U+019C
ENCODING 412
SWIDTH 500 0
DWIDTH 8 0
BBX 8 16 0 0
BITMAP
00
00
D6
D6
D6
D6
D6
D6
D6
D6
D6
D6
7E
00
00
00
ENDCHAR

STARTCHAR U+019D
ENCODING 413
SWIDTH 500 0
DWIDTH 8 0
BBX 8 16 0 0
BITMAP
00
00
C6
C6
E6
E6
F6
FE
DE
CE
CE
C6
C6
C0
C0
C0
ENDCHAR

STARTCHAR U+019E
ENCODING 414
SWIDTH 500 0
DWIDTH 8 0
BBX 8 16 0 0
BITMAP
00
00
00
00
00
00
7C
66
66
66
66
66
66
06
06
06
ENDCHAR

STARTCHAR U+019F
ENCODING 415
SWIDTH 500 0
DWIDTH 8 0
BBX 8 16 0 0
BITMAP
00
00
3C
66
66
66
66
7E
66
66
66
66
3C
00
00
00
ENDCHAR

STARTCHAR U+01CD
ENCODING 461
SWIDTH 500 0
DWIDTH 8 0
BBX 8 16 0 0
BITMAP
66
18
00
18
3C
66
66
66
7E
66
66
66
66
00
00
00
ENDCHAR

STARTCHAR U+01CE
ENCODING 462
SWIDTH 500 0
DWIDTH 8 0
BBX 8 16 0 0
BITMAP
00
66
3C
18
00
00
3C
06
3E
66
66
66
3E
00
00
00
ENDCHAR

STARTCHAR U+01CF
ENCODING 463
SWIDTH 500 0
DWIDTH 8 0
BBX 8 16 0 0
BITMAP
66
18
00
7E
18
18
18
18
18
18
18
18
7E
00
00
00
ENDCHAR

STARTCHAR U+01D0
ENCODING 464
SWIDTH 500 0
DWIDTH 8 0
BBX 8 16 0 0
BITMAP
00
66
3C
18
00
00
38
18
18
18
18
18
3C
00
00
00
ENDCHAR

STARTCHAR U+01D1
ENCODING 465
SWIDTH 500 0
DWIDTH 8 0
BBX 8 16 0 0
BITMAP
66
18
00
3C
66
66
66
66
66
66
66
66
3C
00
00
00
ENDCHAR

STARTCHAR U+01D2
ENCODING 466
SWIDTH 500 0
DWIDTH 8 0
BBX 8 16 0 0
BITMAP
00
66
3C
18
00
00
3C
66
66
66
66
66
3C
00
00
00
ENDCHAR

STARTCHAR U+01D3
ENCODING 467
SWIDTH 500 0
DWIDTH 8 0
BBX 8 16 0 0
BITMAP
66
18
00
66
66
66
66
66
66
66
66
66
3C
00
00
00
ENDCHAR

STARTCHAR U+01D4
ENCODING 468
SWIDTH 500 0
DWIDTH 8 0
BBX 8 16 0 0
BITMAP
00
66
3C
18
00
00
66
66
66
66
66
66
3E
00
00
00
ENDCHAR

STARTCHAR U+01D5
ENCODING 469
SWIDTH 500 0
DWIDTH 8 0
BBX 8 16 0 0
BITMAP
7E
00
66
00
66
66
66
66
66
66
66
66
3C
00
00
00
ENDCHAR

STARTCHAR U+01D6
ENCODING 470
SWIDTH 500 0
DWIDTH 8 0
BBX 8 16 0 0
BITMAP
00
7E
00
66
00
00
66
66
66
66
66
66
3E
00
00
00
ENDCHAR

STARTCHAR U+01D7
ENCODING 471
SWIDTH 500 0
DWIDTH 8 0
BBX 8 16 0 0
BITMAP
0C
18
C3
00
66
66
66
66
66
66
66
66
3C
00
00
00
ENDCHAR

STARTCHAR U+01D8
ENCODING 472
SWIDTH 500 0
DWIDTH 8 0
BBX 8 16 0 0
BITMAP
0C
18
00
66
00
00
66
66
66
66
66
66
3E
00
00
00
ENDCHAR

STARTCHAR U+01D9
ENCODING 473
SWIDTH 500 0
DWIDTH 8 0
BBX 8 16 0 0
BITMAP
66
3C
DB
00
66
66
66
66
66
66
66
66
3C
00
00
00
ENDCHAR

STARTCHAR U+01DA
ENCODING 474
SWIDTH 500 0
DWIDTH 8 0
BBX 8 16 0 0
BITMAP
66
3C
18
C3
00
00
66
66
66
66
66
66
3E
00
00
00
ENDCHAR

STARTCHAR U+01DB
ENCODING 475
SWIDTH 500 0
DWIDTH 8 0
BBX 8 16 0 0
BITMAP
30
18
C3
00
66
66
66
66
66
66
66
66
3C
00
00
00
ENDCHAR

STARTCHAR U+01DC
ENCODING 476
SWIDTH 500 0
DWIDTH 8 0
BBX 8 16 0 0
BITMAP
30
18
00
66
00
00
66
66
66
66
66
66
3E
00
00
00
ENDCHAR

STARTCHAR U+01DD
ENCODING 477
SWIDTH 500 0
DWIDTH 8 0
BBX 8 16 0 0
BITMAP
00
00
00
00
00
00
3C
06
06
7E
66
66
3C
00
00
00
ENDCHAR

STARTCHAR U+01DE
ENCODING 478
SWIDTH 500 0
DWIDTH 8 0
BBX 8 16 0 0
BITMAP
7E
00
66
00
18
3C
66
66
7E
66
66
66
66
00
00
00
ENDCHAR

STARTCHAR U+01DF
ENCODING 479
SWIDTH 500 0
DWIDTH 8 0
BBX 8 16 0 0
BITMAP
00
7E
00
66
00
00
3C
06
3E
66
66
66
3E
00
00
00
ENDCHAR

STARTCHAR U+01E0
ENCODING 480
SWIDTH 500 0
DWIDTH 8 0
BBX 8 16 0 0
BITMAP
7E
00
66
00
18
3C
66
66
7E
66
66
66
66
00
00
00
ENDCHAR

STARTCHAR U+01E1
ENCODING 481
SWIDTH 500 0
DWIDTH 8 0
BBX 8 16 0 0
BITMAP
00
7E
00
66
00
00
3C
06
3E
66
66
66
3E
00
00
00
ENDCHAR

STARTCHAR U+01E2
ENCODING 482
SWIDTH 500 0
DWIDTH 8 0
BBX 8 16 0 0
BITMAP
7E
00
3F
7C
FC
CC
CC
FE
CC
CC
CC
CC
CF
00
00
00
ENDCHAR

STARTCHAR U+01E3
ENCODING 483
SWIDTH 500 0
DWIDTH 8 0
BBX 8 16 0 0
BITMAP
00
00
00
7E
00
00
7E
1B
1B
7F
D8
D8
77
00
00
00
ENDCHAR

STARTCHAR U+01E6
ENCODING 486
SWIDTH 500 0
DWIDTH 8 0
BBX 8 16 0 0
BITMAP
66
18
00
3C
66
66
60
60
6E
66
66
66
3E
00
00
00
ENDCHAR

STARTCHAR U+01E7
ENCODING 487
SWIDTH 500 0
DWIDTH 8 0
BBX 8 16 0 0
BITMAP
00
66
3C
18
00
00
3E
66
66
66
66
66
3E
06
06
7C
ENDCHAR

STARTCHAR U+01E8
ENCODING 488
SWIDTH 500 0
DWIDTH 8 0
BBX 8 16 0 0
BITMAP
66
18
00
C6
C6
CC
D8
F0
D8
CC
CC
C6
C6
00
00
00
ENDCHAR

STARTCHAR U+01F0
ENCODING 496
SWIDTH 500 0
DWIDTH 8 0
BBX 8 16 0 0
BITMAP
00
66
3C
18
00
00
0C
0C
0C
0C
0C
0C
0C
0C
0C
78
ENDCHAR

STARTCHAR U+01F4
ENCODING 500
SWIDTH 500 0
DWIDTH 8 0
BBX 8 16 0 0
BITMAP
0C
18
00
3C
66
66
60
60
6E
66
66
66
3E
00
00
00
ENDCHAR

STARTCHAR U+01F5
ENCODING 501
SWIDTH 500 0
DWIDTH 8 0
BBX 8 16 0 0
BITMAP
00
00
0C
18
00
00
3E
66
66
66
66
66
3E
06
06
7C
ENDCHAR

STARTCHAR U+01F8
ENCODING 504
SWIDTH 500 0
DWIDTH 8 0
BBX 8 16 0 0
BITMAP
30
18
00
C6
C6
E6
F6
DE
CE
C6
C6
C6
C6
00
00
00
ENDCHAR

STARTCHAR U+01F9
ENCODING 505
SWIDTH 500 0
DWIDTH 8 0
BBX 8 16 0 0
BITMAP
00
00
30
18
00
00
7C
66
66
66
66
66
66
00
00
00
ENDCHAR

STARTCHAR U+01FA
ENCODING 506
SWIDTH 500 0
DWIDTH 8 0
BBX 8 16 0 0
BITMAP
70
DB
76
00
18
3C
66
66
7E
66
66
66
66
00
00
00
ENDCHAR

STARTCHAR U+01FB
ENCODING 507
SWIDTH 500 0
DWIDTH 8 0
BBX 8 16 0 0
BITMAP
00
00
70
DB
76
00
3C
06
3E
66
66
66
3E
00
00
00
ENDCHAR

STARTCHAR U+01FC
ENCODING 508
SWIDTH 500 0
DWIDTH 8 0
BBX 8 16 0 0
BITMAP
0C
18
00
3F
7C
FC
CC
CC
FE
CC
CC
CC
CF
00
00
00
ENDCHAR

STARTCHAR U+01FD
ENCODING 509
SWIDTH 500 0
DWIDTH 8 0
BBX 8 16 0 0
BITMAP
00
00
0C
18
00
00
7E
1B
1B
7F
D8
D8
77
00
00
00
ENDCHAR

STARTCHAR U+01FE
ENCODING 510
SWIDTH 500 0
DWIDTH 8 0
BBX 8 16 0 0
BITMAP
0C
18
00
3E
66
6E
6E
6E
76
76
76
66
7C
00
00
00
ENDCHAR

STARTCHAR U+01FF
ENCODING 511
SWIDTH 500 0
DWIDTH 8 0
BBX 8 16 0 0
BITMAP
00
00
0C
18
00
00
3D
66
6E
7E
76
66
BC
00
00
00
ENDCHAR

STARTCHAR U+0200
ENCODING 512
SWIDTH 500 0
DWIDTH 8 0
BBX 8 16 0 0
BITMAP
CC
66
00
18
3C
66
66
66
7E
66
66
66
66
00
00
00
ENDCHAR

STARTCHAR U+0201
ENCODING 513
SWIDTH 500 0
DWIDTH 8 0
BBX 8 16 0 0
BITMAP
00
00
CC
66
00
00
3C
06
3E
66
66
66
3E
00
00
00
ENDCHAR

STARTCHAR U+0202
ENCODING 514
SWIDTH 500 0
DWIDTH 8 0
BBX 8 16 0 0
BITMAP
3C
66
00
18
3C
66
66
66
7E
66
66
66
66
00
00
00
ENDCHAR

STARTCHAR U+0203
ENCODING 515
SWIDTH 500 0
DWIDTH 8 0
BBX 8 16 0 0
BITMAP
00
00
00
00
00
00
3C
06
3E
66
66
66
3E
00
3C
66
ENDCHAR

STARTCHAR U+0204
ENCODING 516
SWIDTH 500 0
DWIDTH 8 0
BBX 8 16 0 0
BITMAP
CC
66
00
7E
60
60
60
7C
60
60
60
60
7E
00
00
00
ENDCHAR

STARTCHAR U+0205
ENCODING 517
SWIDTH 500 0
DWIDTH 8 0
BBX 8 16 0 0
BITMAP
00
00
CC
66
00
00
3C
66
66
7E
60
60
3C
00
00
00
ENDCHAR

STARTCHAR U+0206
ENCODING 518
SWIDTH 500 0
DWIDTH 8 0
BBX 8 16 0 0
BITMAP
3C
66
00
7E
60
60
60
7C
60
60
60
60
7E
00
00
00
ENDCHAR

STARTCHAR U+0207
ENCODING 519
SWIDTH 500 0
DWIDTH 8 0
BBX 8 16 0 0
BITMAP
00
00
00
00
00
00
3C
66
66
7E
60
60
3C
00
3C
66
ENDCHAR

STARTCHAR U+0208
ENCODING 520
SWIDTH 500 0
DWIDTH 8 0
BBX 8 16 0 0
BITMAP
CC
66
00
7E
18
18
18
18
18
18
18
18
7E
00
00
00
ENDCHAR

STARTCHAR U+0209
ENCODING 521
SWIDTH 500 0
DWIDTH 8 0
BBX 8 16 0 0
BITMAP
00
00
CC
66
00
00
38
18
18
18
18
18
3C
00
00
00
ENDCHAR

STARTCHAR U+020A
ENCODING 522
SWIDTH 500 0
DWIDTH 8 0
BBX 8 16 0 0
BITMAP
3C
66
00
7E
18
18
18
18
18
18
18
18
7E
00
00
00
ENDCHAR

STARTCHAR U+020B
ENCODING 523
SWIDTH 500 0
DWIDTH 8 0
BBX 8 16 0 0
BITMAP
00
00
00
00
00
00
38
18
18
18
18
18
3C
00
3C
66
ENDCHAR

STARTCHAR U+020C
ENCODING 524
SWIDTH 500 0
DWIDTH 8 0
BBX 8 16 0 0
BITMAP
CC
66
00
3C
66
66
66
66
66
66
66
66
3C
00
00
00
ENDCHAR

STARTCHAR U+020D
ENCODING 525
SWIDTH 500 0
DWIDTH 8 0
BBX 8 16 0 0
BITMAP
00
00
CC
66
00
00
3C
66
66
66
66
66
3C
00
00
00
ENDCHAR

STARTCHAR U+020E
ENCODING 526
SWIDTH 500 0
DWIDTH 8 0
BBX 8 16 0 0
BITMAP
3C
66
00
3C
66
66
66
66
66
66
66
66
3C
00
00
00
ENDCHAR

STARTCHAR U+020F
ENCODING 527
SWIDTH 500 0
DWIDTH 8 0
BBX 8 16 0 0
BITMAP
00
00
00
00
00
00
3C
66
66
66
66
66
3C
00
3C
66
ENDCHAR

STARTCHAR U+0210
ENCODING 528
SWIDTH 500 0
DWIDTH 8 0
BBX 8 16 0 0
BITMAP
CC
66
00
7C
66
66
66
7C
6C
66
66
66
66
00
00
00
ENDCHAR

STARTCHAR U+0211
ENCODING 529
SWIDTH 500 0
DWIDTH 8 0
BBX 8 16 0 0
BITMAP
00
00
CC
66
00
00
7C
66
66
60
60
60
60
00
00
00
ENDCHAR

STARTCHAR U+0212
ENCODING 530
SWIDTH 500 0
DWIDTH 8 0
BBX 8 16 0 0
BITMAP
3C
66
00
7C
66
66
66
7C
6C
66
66
66
66
00
00
00
ENDCHAR

STARTCHAR U+0213
ENCODING 531
SWIDTH 500 0
DWIDTH 8 0
BBX 8 16 0 0
BITMAP
00
00
00
00
00
00
7C
66
66
60
60
60
60
00
3C
66
ENDCHAR

STARTCHAR U+0214
ENCODING 532
SWIDTH 500 0
DWIDTH 8 0
BBX 8 16 0 0
BITMAP
CC
66
00
66
66
66
66
66
66
66
66
66
3C
00
00
00
ENDCHAR

STARTCHAR U+0215
ENCODING 533
SWIDTH 500 0
DWIDTH 8 0
BBX 8 16 0 0
BITMAP
00
00
CC
66
00
00
66
66
66
66
66
66
3E
00
00
00
ENDCHAR

STARTCHAR U+0216
ENCODING 534
SWIDTH 500 0
DWIDTH 8 0
BBX 8 16 0 0
BITMAP
3C
66
00
66
66
66
66
66
66
66
66
66
3C
00
00
00
ENDCHAR

STARTCHAR U+0217
ENCODING 535
SWIDTH 500 0
DWIDTH 8 0
BBX 8 16 0 0
BITMAP
00
00
00
00
00
00
66
66
66
66
66
66
3E
00
3C
66
ENDCHAR

STARTCHAR U+0218
ENCODING 536
SWIDTH 500 0
DWIDTH 8 0
BBX 8 16 0 0
BITMAP
00
00
3C
66
66
60
30
18
0C
06
66
66
3C
00
18
30
ENDCHAR

STARTCHAR U+0219
ENCODING 537
SWIDTH 500 0
DWIDTH 8 0
BBX 8 16 0 0
BITMAP
00
00
00
00
00
00
3E
60
60
3C
06
06
7C
00
18
30
ENDCHAR

STARTCHAR U+021A
ENCODING 538
SWIDTH 500 0
DWIDTH 8 0
BBX 8 16 0 0
BITMAP
00
00
7E
18
18
18
18
18
18
18
18
18
18
00
18
30
ENDCHAR

STARTCHAR U+021B
ENCODING 539
SWIDTH 500 0
DWIDTH 8 0
BBX 8 16 0 0
BITMAP
00
00
00
30
30
30
7E
30
30
30
30
30
1E
00
18
30
ENDCHAR

STARTCHAR U+0226
ENCODING 550
SWIDTH 500 0
DWIDTH 8 0
BBX 8 16 0 0
BITMAP
18
18
00
18
3C
66
66
66
7E
66
66
66
66
00
00
00
ENDCHAR

STARTCHAR U+0227
ENCODING 551
SWIDTH 500 0
DWIDTH 8 0
BBX 8 16 0 0
BITMAP
00
00
18
18
00
00
3C
06
3E
66
66
66
3E
00
00
00
ENDCHAR

STARTCHAR U+022A
ENCODING 554
SWIDTH 500 0
DWIDTH 8 0
BBX 8 16 0 0
BITMAP
7E
00
66
00
3C
66
66
66
66
66
66
66
3C
00
00
00
ENDCHAR

STARTCHAR U+022B
ENCODING 555
SWIDTH 500 0
DWIDTH 8 0
BBX 8 16 0 0
BITMAP
00
7E
00
66
00
00
3C
66
66
66
66
66
3C
00
00
00
ENDCHAR

STARTCHAR U+022C
ENCODING 556
SWIDTH 500 0
DWIDTH 8 0
BBX 8 16 0 0
BITMAP
FE
00
76
DC
3C
66
66
66
66
66
66
66
3C
00
00
00
ENDCHAR

STARTCHAR U+022D
ENCODING 557
SWIDTH 500 0
DWIDTH 8 0
BBX 8 16 0 0
BITMAP
FE
00
76
DC
00
00
3C
66
66
66
66
66
3C
00
00
00
ENDCHAR

STARTCHAR U+022E
ENCODING 558
SWIDTH 500 0
DWIDTH 8 0
BBX 8 16 0 0
BITMAP
18
18
00
3C
66
66
66
66
66
66
66
66
3C
00
00
00
ENDCHAR

STARTCHAR U+022F
ENCODING 559
SWIDTH 500 0
DWIDTH 8 0
BBX 8 16 0 0
BITMAP
00
00
18
18
00
00
3C
66
66
66
66
66
3C
00
00
00
ENDCHAR

STARTCHAR U+0230
ENCODING 560
SWIDTH 500 0
DWIDTH 8 0
BBX 8 16 0 0
BITMAP
7E
00
66
00
3C
66
66
66
66
66
66
66
3C
00
00
00
ENDCHAR

STARTCHAR U+0231
ENCODING 561
SWIDTH 500 0
DWIDTH 8 0
BBX 8 16 0 0
BITMAP
00
7E
00
66
00
00
3C
66
66
66
66
66
3C
00
00
00
ENDCHAR

STARTCHAR U+0232
ENCODING 562
SWIDTH 500 0
DWIDTH 8 0
BBX 8 16 0 0
BITMAP
7E
00
C3
C3
66
66
3C
18
18
18
18
18
18
00
00
00
ENDCHAR

STARTCHAR U+0233
ENCODING 563
SWIDTH 500 0
DWIDTH 8 0
BBX 8 16 0 0
BITMAP
00
00
00
7E
00
00
66
66
66
66
66
66
3E
06
06
3C
ENDCHAR

STARTCHAR U+0258
ENCODING 600
SWIDTH 500 0
DWIDTH 8 0
BBX 8 16 0 0
BITMAP
00
00
00
00
00
00
3C
66
66
7E
06
06
3C
00
00
00
ENDCHAR

STARTCHAR U+0259
ENCODING 601
SWIDTH 500 0
DWIDTH 8 0
BBX 8 16 0 0
BITMAP
00
00
00
00
00
00
3C
06
06
7E
66
66
3C
00
00
00
ENDCHAR

STARTCHAR U+025B
ENCODING 603
SWIDTH 500 0
DWIDTH 8 0
BBX 8 16 0 0
BITMAP
00
00
00
00
00
00
3C
66
60
38
60
66
3C
00
00
00
ENDCHAR

STARTCHAR U+025C
ENCODING 604
SWIDTH 500 0
DWIDTH 8 0
BBX 8 16 0 0
BITMAP
00
00
00
00
00
00
3C
66
06
1C
06
66
3C
00
00
00
ENDCHAR

STARTCHAR U+0263
ENCODING 611
SWIDTH 500 0
DWIDTH 8 0
BBX 8 16 0 0
BITMAP
00
00
00
00
00
00
C6
C6
C6
C6
6C
6C
38
6C
38
00
ENDCHAR

STARTCHAR U+026A
ENCODING 618
SWIDTH 500 0
DWIDTH 8 0
BBX 8 16 0 0
BITMAP
00
00
00
00
00
00
7E
18
18
18
18
18
7E
00
00
00
ENDCHAR

STARTCHAR U+028A
ENCODING 650
SWIDTH 500 0
DWIDTH 8 0
BBX 8 16 0 0
BITMAP
00
00
00
00
00
00
EE
44
C6
C6
C6
C6
7C
00
00
00
ENDCHAR

STARTCHAR U+028B
ENCODING 651
SWIDTH 500 0
DWIDTH 8 0
BBX 8 16 0 0
BITMAP
00
00
00
00
00
00
6C
66
66
66
66
66
3C
00
00
00
ENDCHAR

STARTCHAR U+028C
ENCODING 652
SWIDTH 500 0
DWIDTH 8 0
BBX 8 16 0 0
BITMAP
00
00
00
00
00
00
18
3C
66
66
66
66
66
00
00
00
ENDCHAR

STARTCHAR U+028D
ENCODING 653
SWIDTH 500 0
DWIDTH 8 0
BBX 8 16 0 0
BITMAP
00
00
00
00
00
00
6C
D6
D6
D6
D6
D6
C6
00
00
00
ENDCHAR

STARTCHAR U+028E
ENCODING 654
SWIDTH 500 0
DWIDTH 8 0
BBX 8 16 0 0
BITMAP
00
00
1E
30
30
60
78
CC
CC
CC
CC
CC
CC
00
00
00
ENDCHAR

STARTCHAR U+028F
ENCODING 655
SWIDTH 500 0
DWIDTH 8 0
BBX 8 16 0 0
BITMAP
00
00
00
00
00
00
66
66
66
3C
18
18
18
00
00
00
ENDCHAR

STARTCHAR U+0290
ENCODING 656
SWIDTH 500 0
DWIDTH 8 0
BBX 8 16 0 0
BITMAP
00
00
00
00
00
00
FC
0C
18
30
60
C0
FC
0C
0C
06
ENDCHAR

STARTCHAR U+0291
ENCODING 657
SWIDTH 500 0
DWIDTH 8 0
BBX 8 16 0 0
BITMAP
00
00
00
00
00
00
FC
0C
18
34
6A
CA
FC
08
08
00
ENDCHAR

STARTCHAR U+0292
ENCODING 658
SWIDTH 500 0
DWIDTH 8 0
BBX 8 16 0 0
BITMAP
00
00
00
00
00
00
7E
06
0C
18
3C
06
06
06
66
3C
ENDCHAR

STARTCHAR U+0293
ENCODING 659
SWIDTH 500 0
DWIDTH 8 0
BBX 8 16 0 0
BITMAP
00
00
00
00
00
00
FC
0C
18
30
78
0C
7C
CE
CC
78
ENDCHAR

STARTCHAR U+0294
ENCODING 660
SWIDTH 500 0
DWIDTH 8 0
BBX 8 16 0 0
BITMAP
00
3C
66
66
06
06
1C
18
18
18
18
18
18
00
00
00
ENDCHAR

STARTCHAR U+0295
ENCODING 661
SWIDTH 500 0
DWIDTH 8 0
BBX 8 16 0 0
BITMAP
00
00
3C
66
66
66
60
30
18
18
18
18
18
00
00
00
ENDCHAR

STARTCHAR U+0296
ENCODING 662
SWIDTH 500 0
DWIDTH 8 0
BBX 8 16 0 0
BITMAP
00
00
18
18
18
18
18
0C
06
66
66
66
3C
00
00
00
ENDCHAR

STARTCHAR U+02C6
ENCODING 710
SWIDTH 500 0
DWIDTH 8 0
BBX 8 16 0 0
BITMAP
18
66
00
00
00
00
00
00
00
00
00
00
00
00
00
00
ENDCHAR

STARTCHAR U+02C9
ENCODING 713
SWIDTH 500 0
DWIDTH 8 0
BBX 8 16 0 0
BITMAP
3C
00
00
00
00
00
00
00
00
00
00
00
00
00
00
00
ENDCHAR

STARTCHAR U+02CD
ENCODING 717
SWIDTH 500 0
DWIDTH 8 0
BBX 8 16 0 0
BITMAP
00
00
00
00
00
00
00
00
00
00
00
00
00
00
00
3C
ENDCHAR

STARTCHAR U+02DC
ENCODING 732
SWIDTH 500 0
DWIDTH 8 0
BBX 8 16 0 0
BITMAP
FE
00
76
DC
00
00
00
00
00
00
00
00
00
00
00
00
ENDCHAR

STARTCHAR U+0300
ENCODING 768
SWIDTH 500 0
DWIDTH 8 0
BBX 8 16 0 0
BITMAP
30
18
00
00
00
00
00
00
00
00
00
00
00
00
00
00
ENDCHAR

STARTCHAR U+0301
ENCODING 769
SWIDTH 500 0
DWIDTH 8 0
BBX 8 16 0 0
BITMAP
0C
18
00
00
00
00
00
00
00
00
00
00
00
00
00
00
ENDCHAR

STARTCHAR U+0302
ENCODING 770
SWIDTH 500 0
DWIDTH 8 0
BBX 8 16 0 0
BITMAP
18
66
00
00
00
00
00
00
00
00
00
00
00
00
00
00
ENDCHAR

STARTCHAR U+0303
ENCODING 771
SWIDTH 500 0
DWIDTH 8 0
BBX 8 16 0 0
BITMAP
76
DC
00
00
00
00
00
00
00
00
00
00
00
00
00
00
ENDCHAR

STARTCHAR U+0304
ENCODING 772
SWIDTH 500 0
DWIDTH 8 0
BBX 8 16 0 0
BITMAP
7E
00
00
00
00
00
00
00
00
00
00
00
00
00
00
00
ENDCHAR

STARTCHAR U+0305
ENCODING 773
SWIDTH 500 0
DWIDTH 8 0
BBX 8 16 0 0
BITMAP
FF
00
00
00
00
00
00
00
00
00
00
00
00
00
00
00
ENDCHAR

STARTCHAR U+0306
ENCODING 774
SWIDTH 500 0
DWIDTH 8 0
BBX 8 16 0 0
BITMAP
66
3C
00
00
00
00
00
00
00
00
00
00
00
00
00
00
ENDCHAR

STARTCHAR U+0307
ENCODING 775
SWIDTH 500 0
DWIDTH 8 0
BBX 8 16 0 0
BITMAP
18
18
00
00
00
00
00
00
00
00
00
00
00
00
00
00
ENDCHAR

STARTCHAR U+0308
ENCODING 776
SWIDTH 500 0
DWIDTH 8 0
BBX 8 16 0 0
BITMAP
66
66
00
00
00
00
00
00
00
00
00
00
00
00
00
00
ENDCHAR

STARTCHAR U+0309
ENCODING 777
SWIDTH 500 0
DWIDTH 8 0
BBX 8 16 0 0
BITMAP
38
0C
18
00
00
00
00
00
00
00
00
00
00
00
00
00
ENDCHAR

STARTCHAR U+030A
ENCODING 778
SWIDTH 500 0
DWIDTH 8 0
BBX 8 16 0 0
BITMAP
3C
66
3C
00
00
00
00
00
00
00
00
00
00
00
00
00
ENDCHAR

STARTCHAR U+030B
ENCODING 779
SWIDTH 500 0
DWIDTH 8 0
BBX 8 16 0 0
BITMAP
66
CC
00
00
00
00
00
00
00
00
00
00
00
00
00
00
ENDCHAR

STARTCHAR U+030C
ENCODING 780
SWIDTH 500 0
DWIDTH 8 0
BBX 8 16 0 0
BITMAP
66
18
00
00
00
00
00
00
00
00
00
00
00
00
00
00
ENDCHAR

STARTCHAR U+030D
ENCODING 781
SWIDTH 500 0
DWIDTH 8 0
BBX 8 16 0 0
BITMAP
66
66
66
00
00
00
00
00
00
00
00
00
00
00
00
00
ENDCHAR

STARTCHAR U+030F
ENCODING 783
SWIDTH 500 0
DWIDTH 8 0
BBX 8 16 0 0
BITMAP
CC
66
00
00
00
00
00
00
00
00
00
00
00
00
00
00
ENDCHAR

STARTCHAR U+0310
ENCODING 784
SWIDTH 500 0
DWIDTH 8 0
BBX 8 16 0 0
BITMAP
5A
24
18
00
00
00
00
00
00
00
00
00
00
00
00
00
ENDCHAR

STARTCHAR U+0311
ENCODING 785
SWIDTH 500 0
DWIDTH 8 0
BBX 8 16 0 0
BITMAP
3C
66
00
00
00
00
00
00
00
00
00
00
00
00
00
00
ENDCHAR

STARTCHAR U+0313
ENCODING 787
SWIDTH 500 0
DWIDTH 8 0
BBX 8 16 0 0
BITMAP
18
18
30
00
00
00
00
00
00
00
00
00
00
00
00
00
ENDCHAR

STARTCHAR U+0314
ENCODING 788
SWIDTH 500 0
DWIDTH 8 0
BBX 8 16 0 0
BITMAP
30
30
18
00
00
00
00
00
00
00
00
00
00
00
00
00
ENDCHAR

STARTCHAR U+0315
ENCODING 789
SWIDTH 500 0
DWIDTH 8 0
BBX 8 16 0 0
BITMAP
03
03
06
00
00
00
00
00
00
00
00
00
00
00
00
00
ENDCHAR

STARTCHAR U+0316
ENCODING 790
SWIDTH 500 0
DWIDTH 8 0
BBX 8 16 0 0
BITMAP
00
00
00
00
00
00
00
00
00
00
00
00
00
00
18
0C
ENDCHAR

STARTCHAR U+0317
ENCODING 791
SWIDTH 500 0
DWIDTH 8 0
BBX 8 16 0 0
BITMAP
00
00
00
00
00
00
00
00
00
00
00
00
00
00
18
30
ENDCHAR

STARTCHAR U+0318
ENCODING 792
SWIDTH 500 0
DWIDTH 8 0
BBX 8 16 0 0
BITMAP
00
00
00
00
00
00
00
00
00
00
00
00
00
20
3C
20
ENDCHAR

STARTCHAR U+031B
ENCODING 795
SWIDTH 500 0
DWIDTH 8 0
BBX 8 16 0 0
BITMAP
03
06
00
00
00
00
00
00
00
00
00
00
00
00
00
00
ENDCHAR

STARTCHAR U+031C
ENCODING 796
SWIDTH 500 0
DWIDTH 8 0
BBX 8 16 0 0
BITMAP
00
00
00
00
00
00
00
00
00
00
00
00
00
18
20
18
ENDCHAR

STARTCHAR U+031F
ENCODING 799
SWIDTH 500 0
DWIDTH 8 0
BBX 8 16 0 0
BITMAP
00
00
00
00
00
00
00
00
00
00
00
00
00
10
7C
10
ENDCHAR

STARTCHAR U+0320
ENCODING 800
SWIDTH 500 0
DWIDTH 8 0
BBX 8 16 0 0
BITMAP
00
00
00
00
00
00
00
00
00
00
00
00
00
00
3C
24
ENDCHAR

STARTCHAR U+0321
ENCODING 801
SWIDTH 500 0
DWIDTH 8 0
BBX 8 16 0 0
BITMAP
00
00
00
00
00
00
00
00
00
00
00
00
06
06
06
3C
ENDCHAR

STARTCHAR U+0322
ENCODING 802
SWIDTH 500 0
DWIDTH 8 0
BBX 8 16 0 0
BITMAP
00
00
00
00
00
00
00
00
00
00
00
00
0C
0C
0C
07
ENDCHAR

STARTCHAR U+0323
ENCODING 803
SWIDTH 500 0
DWIDTH 8 0
BBX 8 16 0 0
BITMAP
00
00
00
00
00
00
00
00
00
00
00
00
00
00
18
18
ENDCHAR

STARTCHAR U+0324
ENCODING 804
SWIDTH 500 0
DWIDTH 8 0
BBX 8 16 0 0
BITMAP
00
00
00
00
00
00
00
00
00
00
00
00
00
00
66
66
ENDCHAR

STARTCHAR U+0325
ENCODING 805
SWIDTH 500 0
DWIDTH 8 0
BBX 8 16 0 0
BITMAP
00
00
00
00
00
00
00
00
00
00
00
00
00
18
24
18
ENDCHAR

STARTCHAR U+0326
ENCODING 806
SWIDTH 500 0
DWIDTH 8 0
BBX 8 16 0 0
BITMAP
00
00
00
00
00
00
00
00
00
00
00
00
00
00
18
30
ENDCHAR

STARTCHAR U+0327
ENCODING 807
SWIDTH 500 0
DWIDTH 8 0
BBX 8 16 0 0
BITMAP
00
00
00
00
00
00
00
00
00
00
00
00
00
0C
06
1C
ENDCHAR

STARTCHAR U+0328
ENCODING 808
SWIDTH 500 0
DWIDTH 8 0
BBX 8 16 0 0
BITMAP
00
00
00
00
00
00
00
00
00
00
00
00
00
0C
18
0E
ENDCHAR

STARTCHAR U+0329
ENCODING 809
SWIDTH 500 0
DWIDTH 8 0
BBX 8 16 0 0
BITMAP
00
00
00
00
00
00
00
00
00
00
00
00
00
18
18
18
ENDCHAR

STARTCHAR U+032B
ENCODING 811
SWIDTH 500 0
DWIDTH 8 0
BBX 8 16 0 0
BITMAP
00
00
00
00
00
00
00
00
00
00
00
00
00
00
92
6C
ENDCHAR

STARTCHAR U+032C
ENCODING 812
SWIDTH 500 0
DWIDTH 8 0
BBX 8 16 0 0
BITMAP
00
00
00
00
00
00
00
00
00
00
00
00
00
00
66
18
ENDCHAR

STARTCHAR U+032E
ENCODING 814
SWIDTH 500 0
DWIDTH 8 0
BBX 8 16 0 0
BITMAP
00
00
00
00
00
00
00
00
00
00
00
00
00
00
66
3C
ENDCHAR

STARTCHAR U+0330
ENCODING 816
SWIDTH 500 0
DWIDTH 8 0
BBX 8 16 0 0
BITMAP
00
00
00
00
00
00
00
76
DC
00
00
00
00
00
00
00
ENDCHAR

STARTCHAR U+0332
ENCODING 818
SWIDTH 500 0
DWIDTH 8 0
BBX 8 16 0 0
BITMAP
00
00
00
00
00
00
00
00
00
00
00
00
00
00
00
FF
ENDCHAR

STARTCHAR U+0333
ENCODING 819
SWIDTH 500 0
DWIDTH 8 0
BBX 8 16 0 0
BITMAP
00
00
00
00
00
00
00
00
00
00
00
00
00
FF
00
FF
ENDCHAR

STARTCHAR U+0335
ENCODING 821
SWIDTH 500 0
DWIDTH 8 0
BBX 8 16 0 0
BITMAP
00
00
00
00
00
00
00
7E
00
00
00
00
00
00
00
00
ENDCHAR

STARTCHAR U+0336
ENCODING 822
SWIDTH 500 0
DWIDTH 8 0
BBX 8 16 0 0
BITMAP
00
00
00
00
00
00
00
FF
00
00
00
00
00
00
00
00
ENDCHAR

STARTCHAR U+0337
ENCODING 823
SWIDTH 500 0
DWIDTH 8 0
BBX 8 16 0 0
BITMAP
00
00
00
06
06
0C
0C
18
18
30
30
60
60
00
00
00
ENDCHAR

STARTCHAR U+0338
ENCODING 824
SWIDTH 500 0
DWIDTH 8 0
BBX 8 16 0 0
BITMAP
03
03
06
06
0C
0C
18
18
30
30
60
60
C0
C0
80
80
ENDCHAR

STARTCHAR U+0339
ENCODING 825
SWIDTH 500 0
DWIDTH 8 0
BBX 8 16 0 0
BITMAP
00
00
00
00
00
00
00
00
00
00
00
00
00
18
04
18
ENDCHAR

STARTCHAR U+033A
ENCODING 826
SWIDTH 500 0
DWIDTH 8 0
BBX 8 16 0 0
BITMAP
00
00
00
00
00
00
00
00
00
00
00
00
00
00
24
3C
ENDCHAR

STARTCHAR U+033B
ENCODING 827
SWIDTH 500 0
DWIDTH 8 0
BBX 8 16 0 0
BITMAP
00
00
00
00
00
00
00
00
00
00
00
00
00
3C
24
3C
ENDCHAR

STARTCHAR U+033C
ENCODING 828
SWIDTH 500 0
DWIDTH 8 0
BBX 8 16 0 0
BITMAP
00
00
00
00
00
00
00
00
00
00
00
00
00
00
6C
92
ENDCHAR

STARTCHAR U+033D
ENCODING 829
SWIDTH 500 0
DWIDTH 8 0
BBX 8 16 0 0
BITMAP
6C
38
6C
00
00
00
00
00
00
00
00
00
00
00
00
00
ENDCHAR

STARTCHAR U+033E
ENCODING 830
SWIDTH 500 0
DWIDTH 8 0
BBX 8 16 0 0
BITMAP
FF
00
FF
00
00
00
00
00
00
00
00
00
00
00
00
00
ENDCHAR

STARTCHAR U+0340
ENCODING 832
SWIDTH 500 0
DWIDTH 8 0
BBX 8 16 0 0
BITMAP
30
18
00
00
00
00
00
00
00
00
00
00
00
00
00
00
ENDCHAR

STARTCHAR U+0341
ENCODING 833
SWIDTH 500 0
DWIDTH 8 0
BBX 8 16 0 0
BITMAP
0C
18
00
00
00
00
00
00
00
00
00
00
00
00
00
00
ENDCHAR

STARTCHAR U+0342
ENCODING 834
SWIDTH 500 0
DWIDTH 8 0
BBX 8 16 0 0
BITMAP
76
DC
00
00
00
00
00
00
00
00
00
00
00
00
00
00
ENDCHAR

STARTCHAR U+0343
ENCODING 835
SWIDTH 500 0
DWIDTH 8 0
BBX 8 16 0 0
BITMAP
18
30
30
00
00
00
00
00
00
00
00
00
00
00
00
00
ENDCHAR

STARTCHAR U+0344
ENCODING 836
SWIDTH 500 0
DWIDTH 8 0
BBX 8 16 0 0
BITMAP
0C
18
C3
00
00
00
00
00
00
00
00
00
00
00
00
00
ENDCHAR

STARTCHAR U+034F
ENCODING 847
SWIDTH 500 0
DWIDTH 8 0
BBX 8 16 0 0
BITMAP
00
00
00
00
00
00
00
00
00
00
00
00
00
00
00
00
ENDCHAR

STARTCHAR U+0362
ENCODING 866
SWIDTH 500 0
DWIDTH 8 0
BBX 8 16 0 0
BITMAP
00
00
00
00
00
00
00
00
00
00
00
00
00
02
3F
02
ENDCHAR

STARTCHAR U+0391
ENCODING 913
SWIDTH 500 0
DWIDTH 8 0
BBX 8 16 0 0
BITMAP
00
00
18
3C
66
66
66
7E
66
66
66
66
66
00
00
00
ENDCHAR

STARTCHAR U+0392
ENCODING 914
SWIDTH 500 0
DWIDTH 8 0
BBX 8 16 0 0
BITMAP
00
00
7C
66
66
66
6C
78
6C
66
66
66
7C
00
00
00
ENDCHAR

STARTCHAR U+0393
ENCODING 915
SWIDTH 500 0
DWIDTH 8 0
BBX 8 16 0 0
BITMAP
00
00
7E
60
60
60
60
60
60
60
60
60
60
00
00
00
ENDCHAR

STARTCHAR U+0394
ENCODING 916
SWIDTH 500 0
DWIDTH 8 0
BBX 8 16 0 0
BITMAP
00
00
10
38
6C
C6
C6
C6
C6
C6
C6
C6
FE
00
00
00
ENDCHAR

STARTCHAR U+0395
ENCODING 917
SWIDTH 500 0
DWIDTH 8 0
BBX 8 16 0 0
BITMAP
00
00
7E
60
60
60
60
7C
60
60
60
60
7E
00
00
00
ENDCHAR

STARTCHAR U+0396
ENCODING 918
SWIDTH 500 0
DWIDTH 8 0
BBX 8 16 0 0
BITMAP
00
00
7E
06
06
0C
0C
18
30
30
60
60
7E
00
00
00
ENDCHAR

STARTCHAR U+0397
ENCODING 919
SWIDTH 500 0
DWIDTH 8 0
BBX 8 16 0 0
BITMAP
00
00
66
66
66
66
66
7E
66
66
66
66
66
00
00
00
ENDCHAR

STARTCHAR U+0398
ENCODING 920
SWIDTH 500 0
DWIDTH 8 0
BBX 8 16 0 0
BITMAP
00
00
7C
C6
C6
C6
C6
FE
C6
C6
C6
C6
7C
00
00
00
ENDCHAR

STARTCHAR U+0399
ENCODING 921
SWIDTH 500 0
DWIDTH 8 0
BBX 8 16 0 0
BITMAP
00
00
7E
18
18
18
18
18
18
18
18
18
7E
00
00
00
ENDCHAR

STARTCHAR U+039A
ENCODING 922
SWIDTH 500 0
DWIDTH 8 0
BBX 8 16 0 0
BITMAP
00
00
C6
C6
CC
CC
D8
F0
D8
CC
CC
C6
C6
00
00
00
ENDCHAR

STARTCHAR U+039B
ENCODING 923
SWIDTH 500 0
DWIDTH 8 0
BBX 8 16 0 0
BITMAP
00
00
10
38
6C
C6
C6
C6
C6
C6
C6
C6
C6
00
00
00
ENDCHAR

STARTCHAR U+039C
ENCODING 924
SWIDTH 500 0
DWIDTH 8 0
BBX 8 16 0 0
BITMAP
00
00
C6
EE
EE
FE
D6
D6
C6
C6
C6
C6
C6
00
00
00
ENDCHAR

STARTCHAR U+039D
ENCODING 925
SWIDTH 500 0
DWIDTH 8 0
BBX 8 16 0 0
BITMAP
00
00
C6
C6
E6
E6
F6
FE
DE
CE
CE
C6
C6
00
00
00
ENDCHAR

STARTCHAR U+039E
ENCODING 926
SWIDTH 500 0
DWIDTH 8 0
BBX 8 16 0 0
BITMAP
00
00
FE
C6
00
00
00
7C
00
00
00
C6
FE
00
00
00
ENDCHAR

STARTCHAR U+039F
ENCODING 927
SWIDTH 500 0
DWIDTH 8 0
BBX 8 16 0 0
BITMAP
00
00
3C
66
66
66
66
66
66
66
66
66
3C
00
00
00
ENDCHAR

STARTCHAR U+03A0
ENCODING 928
SWIDTH 500 0
DWIDTH 8 0
BBX 8 16 0 0
BITMAP
00
00
FE
C6
C6
C6
C6
C6
C6
C6
C6
C6
C6
00
00
00
ENDCHAR

STARTCHAR U+03A1
ENCODING 929
SWIDTH 500 0
DWIDTH 8 0
BBX 8 16 0 0
BITMAP
00
00
7C
66
66
66
66
7C
60
60
60
60
60
00
00
00
ENDCHAR

STARTCHAR U+03A3
ENCODING 931
SWIDTH 500 0
DWIDTH 8 0
BBX 8 16 0 0
BITMAP
00
00
FE
C0
60
30
18
0C
18
30
60
C0
FE
00
00
00
ENDCHAR

STARTCHAR U+03A4
ENCODING 932
SWIDTH 500 0
DWIDTH 8 0
BBX 8 16 0 0
BITMAP
00
00
7E
18
18
18
18
18
18
18
18
18
18
00
00
00
ENDCHAR

STARTCHAR U+03A5
ENCODING 933
SWIDTH 500 0
DWIDTH 8 0
BBX 8 16 0 0
BITMAP
00
00
66
66
66
66
66
3C
18
18
18
18
18
00
00
00
ENDCHAR

STARTCHAR U+03A6
ENCODING 934
SWIDTH 500 0
DWIDTH 8 0
BBX 8 16 0 0
BITMAP
10
10
10
7C
D6
D6
D6
D6
D6
7C
10
10
10
00
00
00
ENDCHAR

STARTCHAR U+03A7
ENCODING 935
SWIDTH 500 0
DWIDTH 8 0
BBX 8 16 0 0
BITMAP
00
00
C3
C3
66
3C
18
18
18
3C
66
C3
C3
00
00
00
ENDCHAR

STARTCHAR U+03A8
ENCODING 936
SWIDTH 500 0
DWIDTH 8 0
BBX 8 16 0 0
BITMAP
00
00
00
10
D6
D6
D6
D6
D6
7C
10
10
10
00
00
00
ENDCHAR

STARTCHAR U+03A9
ENCODING 937
SWIDTH 500 0
DWIDTH 8 0
BBX 8 16 0 0
BITMAP
00
00
00
7C
C6
C6
C6
C6
C6
EE
6C
6C
EE
00
00
00
ENDCHAR

STARTCHAR U+03B1
ENCODING 945
SWIDTH 500 0
DWIDTH 8 0
BBX 8 16 0 0
BITMAP
00
00
00
00
00
00
76
CE
C6
C6
C6
CE
76
00
00
00
ENDCHAR

STARTCHAR U+03B2
ENCODING 946
SWIDTH 500 0
DWIDTH 8 0
BBX 8 16 0 0
BITMAP
00
00
7C
C6
C6
C6
C6
FC
C6
C6
C6
E6
DC
C0
C0
00
ENDCHAR

STARTCHAR U+03B3
ENCODING 947
SWIDTH 500 0
DWIDTH 8 0
BBX 8 16 0 0
BITMAP
00
00
00
00
00
00
C6
C6
C6
6C
6C
38
6C
6C
38
00
ENDCHAR

STARTCHAR U+03B4
ENCODING 948
SWIDTH 500 0
DWIDTH 8 0
BBX 8 16 0 0
BITMAP
00
00
FE
C0
C0
60
30
18
7C
C6
C6
C6
7C
00
00
00
ENDCHAR

STARTCHAR U+03B5
ENCODING 949
SWIDTH 500 0
DWIDTH 8 0
BBX 8 16 0 0
BITMAP
00
00
00
00
00
00
3E
60
60
3C
60
60
3E
00
00
00
ENDCHAR

STARTCHAR U+03B6
ENCODING 950
SWIDTH 500 0
DWIDTH 8 0
BBX 8 16 0 0
BITMAP
00
00
FE
06
0C
18
30
60
C0
C0
C0
C0
7C
06
1C
00
ENDCHAR

STARTCHAR U+03B7
ENCODING 951
SWIDTH 500 0
DWIDTH 8 0
BBX 8 16 0 0
BITMAP
00
00
00
00
00
00
7C
66
66
66
66
66
66
06
06
00
ENDCHAR

STARTCHAR U+03B8
ENCODING 952
SWIDTH 500 0
DWIDTH 8 0
BBX 8 16 0 0
BITMAP
00
00
3C
66
66
66
66
7E
66
66
66
66
3C
00
00
00
ENDCHAR

STARTCHAR U+03B9
ENCODING 953
SWIDTH 500 0
DWIDTH 8 0
BBX 8 16 0 0
BITMAP
00
00
00
00
00
00
18
18
18
18
18
18
0C
00
00
00
ENDCHAR

STARTCHAR U+03BA
ENCODING 954
SWIDTH 500 0
DWIDTH 8 0
BBX 8 16 0 0
BITMAP
00
00
00
00
00
00
66
66
6C
78
6C
66
66
00
00
00
ENDCHAR

STARTCHAR U+03BB
ENCODING 955
SWIDTH 500 0
DWIDTH 8 0
BBX 8 16 0 0
BITMAP
00
00
7C
C6
06
06
06
3E
66
C6
C6
C6
C6
00
00
00
ENDCHAR

STARTCHAR U+03BC
ENCODING 956
SWIDTH 500 0
DWIDTH 8 0
BBX 8 16 0 0
BITMAP
00
00
00
00
00
00
CC
CC
CC
CC
CC
CC
F6
C0
C0
00
ENDCHAR

STARTCHAR U+03BD
ENCODING 957
SWIDTH 500 0
DWIDTH 8 0
BBX 8 16 0 0
BITMAP
00
00
00
00
00
00
66
66
66
66
66
3C
18
00
00
00
ENDCHAR

STARTCHAR U+03BE
ENCODING 958
SWIDTH 500 0
DWIDTH 8 0
BBX 8 16 0 0
BITMAP
00
00
FE
06
0C
18
30
60
60
3C
60
C0
7C
06
3C
00
ENDCHAR

STARTCHAR U+03BF
ENCODING 959
SWIDTH 500 0
DWIDTH 8 0
BBX 8 16 0 0
BITMAP
00
00
00
00
00
00
3C
66
66
66
66
66
3C
00
00
00
ENDCHAR

STARTCHAR U+03C0
ENCODING 960
SWIDTH 500 0
DWIDTH 8 0
BBX 8 16 0 0
BITMAP
00
00
00
00
00
00
FE
6C
6C
6C
6C
6C
6C
00
00
00
ENDCHAR

STARTCHAR U+03C1
ENCODING 961
SWIDTH 500 0
DWIDTH 8 0
BBX 8 16 0 0
BITMAP
00
00
00
00
00
00
3C
66
66
66
66
66
7C
60
60
00
ENDCHAR

STARTCHAR U+03C2
ENCODING 962
SWIDTH 500 0
DWIDTH 8 0
BBX 8 16 0 0
BITMAP
00
00
00
00
7C
7C
C6
C6
C0
C0
C0
C0
7C
7C
06
06
ENDCHAR

STARTCHAR U+03C3
ENCODING 963
SWIDTH 500 0
DWIDTH 8 0
BBX 8 16 0 0
BITMAP
00
00
00
00
00
00
7E
CC
C6
C6
C6
C6
7C
00
00
00
ENDCHAR

STARTCHAR U+03C4
ENCODING 964
SWIDTH 500 0
DWIDTH 8 0
BBX 8 16 0 0
BITMAP
00
00
00
00
00
00
7E
18
18
18
18
18
0C
00
00
00
ENDCHAR

STARTCHAR U+03C5
ENCODING 965
SWIDTH 500 0
DWIDTH 8 0
BBX 8 16 0 0
BITMAP
00
00
00
00
00
00
C6
66
66
66
66
66
3C
00
00
00
ENDCHAR

STARTCHAR U+03C6
ENCODING 966
SWIDTH 500 0
DWIDTH 8 0
BBX 8 16 0 0
BITMAP
00
00
00
00
00
00
7C
C0
DC
D6
D6
D6
7C
10
10
00
ENDCHAR

STARTCHAR U+03C7
ENCODING 967
SWIDTH 500 0
DWIDTH 8 0
BBX 8 16 0 0
BITMAP
00
00
00
00
00
00
C6
C6
6C
38
6C
C6
C6
00
00
00
ENDCHAR

STARTCHAR U+03C8
ENCODING 968
SWIDTH 500 0
DWIDTH 8 0
BBX 8 16 0 0
BITMAP
00
00
00
00
00
00
D6
D6
D6
D6
D6
D6
7C
10
10
00
ENDCHAR

STARTCHAR U+03C9
ENCODING 969
SWIDTH 500 0
DWIDTH 8 0
BBX 8 16 0 0
BITMAP
00
00
00
00
00
00
6C
C6
D6
D6
D6
D6
6C
00
00
00
ENDCHAR

STARTCHAR U+0400
ENCODING 1024
SWIDTH 500 0
DWIDTH 8 0
BBX 8 16 0 0
BITMAP
30
18
00
7E
60
60
60
7C
60
60
60
60
7E
00
00
00
ENDCHAR

STARTCHAR U+0401
ENCODING 1025
SWIDTH 500 0
DWIDTH 8 0
BBX 8 16 0 0
BITMAP
66
66
00
7E
60
60
60
7C
60
60
60
60
7E
00
00
00
ENDCHAR

STARTCHAR U+0405
ENCODING 1029
SWIDTH 500 0
DWIDTH 8 0
BBX 8 16 0 0
BITMAP
00
00
3C
66
66
60
30
18
0C
06
66
66
3C
00
00
00
ENDCHAR

STARTCHAR U+0406
ENCODING 1030
SWIDTH 500 0
DWIDTH 8 0
BBX 8 16 0 0
BITMAP
00
00
7E
18
18
18
18
18
18
18
18
18
7E
00
00
00
ENDCHAR

STARTCHAR U+0407
ENCODING 1031
SWIDTH 500 0
DWIDTH 8 0
BBX 8 16 0 0
BITMAP
66
66
00
7E
18
18
18
18
18
18
18
18
7E
00
00
00
ENDCHAR

STARTCHAR U+0408
ENCODING 1032
SWIDTH 500 0
DWIDTH 8 0
BBX 8 16 0 0
BITMAP
00
00
06
06
06
06
06
06
06
06
66
66
3C
00
00
00
ENDCHAR

STARTCHAR U+0409
ENCODING 1033
SWIDTH 500 0
DWIDTH 8 0
BBX 8 16 0 0
BITMAP
00
00
3C
6C
6C
6C
6C
6E
6D
6D
6D
6D
CE
00
00
00
ENDCHAR

STARTCHAR U+0410
ENCODING 1040
SWIDTH 500 0
DWIDTH 8 0
BBX 8 16 0 0
BITMAP
00
00
18
3C
66
66
66
7E
66
66
66
66
66
00
00
00
ENDCHAR

STARTCHAR U+0411
ENCODING 1041
SWIDTH 500 0
DWIDTH 8 0
BBX 8 16 0 0
BITMAP
00
00
7E
60
60
60
60
7C
66
66
66
66
7C
00
00
00
ENDCHAR

STARTCHAR U+0412
ENCODING 1042
SWIDTH 500 0
DWIDTH 8 0
BBX 8 16 0 0
BITMAP
00
00
7C
66
66
66
6C
78
6C
66
66
66
7C
00
00
00
ENDCHAR

STARTCHAR U+0413
ENCODING 1043
SWIDTH 500 0
DWIDTH 8 0
BBX 8 16 0 0
BITMAP
00
00
7E
60
60
60
60
60
60
60
60
60
60
00
00
00
ENDCHAR

STARTCHAR U+0414
ENCODING 1044
SWIDTH 500 0
DWIDTH 8 0
BBX 8 16 0 0
BITMAP
00
00
1E
36
66
66
66
66
66
66
66
66
FF
C3
C3
00
ENDCHAR

STARTCHAR U+0415
ENCODING 1045
SWIDTH 500 0
DWIDTH 8 0
BBX 8 16 0 0
BITMAP
00
00
7E
60
60
60
60
7C
60
60
60
60
7E
00
00
00
ENDCHAR

STARTCHAR U+0416
ENCODING 1046
SWIDTH 500 0
DWIDTH 8 0
BBX 8 16 0 0
BITMAP
00
00
D6
D6
D6
D6
7C
38
7C
D6
D6
D6
D6
00
00
00
ENDCHAR

STARTCHAR U+0417
ENCODING 1047
SWIDTH 500 0
DWIDTH 8 0
BBX 8 16 0 0
BITMAP
00
00
3C
66
66
06
06
1C
06
06
66
66
3C
00
00
00
ENDCHAR

STARTCHAR U+0418
ENCODING 1048
SWIDTH 500 0
DWIDTH 8 0
BBX 8 16 0 0
BITMAP
00
00
C6
C6
CE
CE
DE
FE
F6
E6
E6
C6
C6
00
00
00
ENDCHAR

STARTCHAR U+0419
ENCODING 1049
SWIDTH 500 0
DWIDTH 8 0
BBX 8 16 0 0
BITMAP
C6
7C
00
C6
C6
CE
CE
DE
F6
E6
E6
C6
C6
00
00
00
ENDCHAR

STARTCHAR U+041A
ENCODING 1050
SWIDTH 500 0
DWIDTH 8 0
BBX 8 16 0 0
BITMAP
00
00
C6
C6
CC
CC
D8
F0
D8
CC
CC
C6
C6
00
00
00
ENDCHAR

STARTCHAR U+041B
ENCODING 1051
SWIDTH 500 0
DWIDTH 8 0
BBX 8 16 0 0
BITMAP
00
00
1E
36
66
66
66
66
66
66
66
66
C6
00
00
00
ENDCHAR

STARTCHAR U+041C
ENCODING 1052
SWIDTH 500 0
DWIDTH 8 0
BBX 8 16 0 0
BITMAP
00
00
C6
EE
EE
FE
D6
D6
C6
C6
C6
C6
C6
00
00
00
ENDCHAR

STARTCHAR U+041D
ENCODING 1053
SWIDTH 500 0
DWIDTH 8 0
BBX 8 16 0 0
BITMAP
00
00
66
66
66
66
66
7E
66
66
66
66
66
00
00
00
ENDCHAR

STARTCHAR U+041E
ENCODING 1054
SWIDTH 500 0
DWIDTH 8 0
BBX 8 16 0 0
BITMAP
00
00
3C
66
66
66
66
66
66
66
66
66
3C
00
00
00
ENDCHAR

STARTCHAR U+041F
ENCODING 1055
SWIDTH 500 0
DWIDTH 8 0
BBX 8 16 0 0
BITMAP
00
00
7E
66
66
66
66
66
66
66
66
66
66
00
00
00
ENDCHAR

STARTCHAR U+0420
ENCODING 1056
SWIDTH 500 0
DWIDTH 8 0
BBX 8 16 0 0
BITMAP
00
00
7C
66
66
66
66
7C
60
60
60
60
60
00
00
00
ENDCHAR

STARTCHAR U+0421
ENCODING 1057
SWIDTH 500 0
DWIDTH 8 0
BBX 8 16 0 0
BITMAP
00
00
3C
66
66
60
60
60
60
60
66
66
3C
00
00
00
ENDCHAR

STARTCHAR U+0422
ENCODING 1058
SWIDTH 500 0
DWIDTH 8 0
BBX 8 16 0 0
BITMAP
00
00
7E
18
18
18
18
18
18
18
18
18
18
00
00
00
ENDCHAR

STARTCHAR U+0423
ENCODING 1059
SWIDTH 500 0
DWIDTH 8 0
BBX 8 16 0 0
BITMAP
00
00
C6
C6
C6
C6
C6
C6
C6
7E
06
06
FC
00
00
00
ENDCHAR

STARTCHAR U+0424
ENCODING 1060
SWIDTH 500 0
DWIDTH 8 0
BBX 8 16 0 0
BITMAP
00
10
7C
D6
D6
D6
D6
D6
D6
D6
D6
D6
7C
10
10
00
ENDCHAR

STARTCHAR U+0425
ENCODING 1061
SWIDTH 500 0
DWIDTH 8 0
BBX 8 16 0 0
BITMAP
00
00
C3
C3
66
3C
18
18
18
3C
66
C3
C3
00
00
00
ENDCHAR

STARTCHAR U+0426
ENCODING 1062
SWIDTH 500 0
DWIDTH 8 0
BBX 8 16 0 0
BITMAP
00
00
CC
CC
CC
CC
CC
CC
CC
CC
CC
CC
FE
06
06
00
ENDCHAR

STARTCHAR U+0427
ENCODING 1063
SWIDTH 500 0
DWIDTH 8 0
BBX 8 16 0 0
BITMAP
00
00
C6
C6
C6
C6
C6
7E
06
06
06
06
06
00
00
00
ENDCHAR

STARTCHAR U+0428
ENCODING 1064
SWIDTH 500 0
DWIDTH 8 0
BBX 8 16 0 0
BITMAP
00
00
D6
D6
D6
D6
D6
D6
D6
D6
D6
D6
FE
00
00
00
ENDCHAR

STARTCHAR U+0429
ENCODING 1065
SWIDTH 500 0
DWIDTH 8 0
BBX 8 16 0 0
BITMAP
00
00
D6
D6
D6
D6
D6
D6
D6
D6
D6
D6
FF
03
03
00
ENDCHAR

STARTCHAR U+042A
ENCODING 1066
SWIDTH 500 0
DWIDTH 8 0
BBX 8 16 0 0
BITMAP
00
00
F0
F0
B0
30
30
3C
36
36
36
36
3C
00
00
00
ENDCHAR

STARTCHAR U+042B
ENCODING 1067
SWIDTH 500 0
DWIDTH 8 0
BBX 8 16 0 0
BITMAP
00
00
C6
C6
C6
C6
C6
F6
DE
DE
DE
DE
F6
00
00
00
ENDCHAR

STARTCHAR U+042C
ENCODING 1068
SWIDTH 500 0
DWIDTH 8 0
BBX 8 16 0 0
BITMAP
00
00
60
60
60
60
60
7C
66
66
66
66
7C
00
00
00
ENDCHAR

STARTCHAR U+042D
ENCODING 1069
SWIDTH 500 0
DWIDTH 8 0
BBX 8 16 0 0
BITMAP
00
00
78
CC
06
06
06
3E
06
06
06
CC
78
00
00
00
ENDCHAR

STARTCHAR U+042E
ENCODING 1070
SWIDTH 500 0
DWIDTH 8 0
BBX 8 16 0 0
BITMAP
00
00
CC
DE
D6
D6
D6
F6
D6
D6
D6
DE
CC
00
00
00
ENDCHAR

STARTCHAR U+042F
ENCODING 1071
SWIDTH 500 0
DWIDTH 8 0
BBX 8 16 0 0
BITMAP
00
00
3E
66
66
66
66
3E
1E
36
66
66
66
00
00
00
ENDCHAR

STARTCHAR U+0430
ENCODING 1072
SWIDTH 500 0
DWIDTH 8 0
BBX 8 16 0 0
BITMAP
00
00
00
00
00
00
3C
06
3E
66
66
66
3E
00
00
00
ENDCHAR

STARTCHAR U+0431
ENCODING 1073
SWIDTH 500 0
DWIDTH 8 0
BBX 8 16 0 0
BITMAP
00
00
00
06
3C
60
7C
66
66
66
66
66
3C
00
00
00
ENDCHAR

STARTCHAR U+0432
ENCODING 1074
SWIDTH 500 0
DWIDTH 8 0
BBX 8 16 0 0
BITMAP
00
00
00
00
00
00
7C
66
66
7C
66
66
7C
00
00
00
ENDCHAR

STARTCHAR U+0433
ENCODING 1075
SWIDTH 500 0
DWIDTH 8 0
BBX 8 16 0 0
BITMAP
00
00
00
00
00
00
7E
60
60
60
60
60
60
00
00
00
ENDCHAR

STARTCHAR U+0434
ENCODING 1076
SWIDTH 500 0
DWIDTH 8 0
BBX 8 16 0 0
BITMAP
00
00
00
00
00
00
3C
6C
6C
6C
6C
6C
FE
C6
00
00
ENDCHAR

STARTCHAR U+0435
ENCODING 1077
SWIDTH 500 0
DWIDTH 8 0
BBX 8 16 0 0
BITMAP
00
00
00
00
00
00
3C
66
66
7E
60
60
3C
00
00
00
ENDCHAR

STARTCHAR U+0436
ENCODING 1078
SWIDTH 500 0
DWIDTH 8 0
BBX 8 16 0 0
BITMAP
00
00
00
00
00
00
92
D6
7C
38
7C
D6
92
00
00
00
ENDCHAR

STARTCHAR U+0437
ENCODING 1079
SWIDTH 500 0
DWIDTH 8 0
BBX 8 16 0 0
BITMAP
00
00
00
00
00
00
3C
66
06
1C
06
66
3C
00
00
00
ENDCHAR

STARTCHAR U+0438
ENCODING 1080
SWIDTH 500 0
DWIDTH 8 0
BBX 8 16 0 0
BITMAP
00
00
00
00
00
00
C6
CE
DE
FE
F6
E6
C6
00
00
00
ENDCHAR

STARTCHAR U+0439
ENCODING 1081
SWIDTH 500 0
DWIDTH 8 0
BBX 8 16 0 0
BITMAP
00
00
00
C6
7C
00
C6
CE
DE
FE
F6
E6
C6
00
00
00
ENDCHAR

STARTCHAR U+043A
ENCODING 1082
SWIDTH 500 0
DWIDTH 8 0
BBX 8 16 0 0
BITMAP
00
00
00
00
00
00
66
66
6C
78
6C
66
66
00
00
00
ENDCHAR

STARTCHAR U+043B
ENCODING 1083
SWIDTH 500 0
DWIDTH 8 0
BBX 8 16 0 0
BITMAP
00
00
00
00
00
00
3E
66
66
66
66
66
E6
00
00
00
ENDCHAR

STARTCHAR U+043C
ENCODING 1084
SWIDTH 500 0
DWIDTH 8 0
BBX 8 16 0 0
BITMAP
00
00
00
00
00
00
C6
EE
FE
FE
D6
D6
C6
00
00
00
ENDCHAR

STARTCHAR U+043D
ENCODING 1085
SWIDTH 500 0
DWIDTH 8 0
BBX 8 16 0 0
BITMAP
00
00
00
00
00
00
66
66
66
7E
66
66
66
00
00
00
ENDCHAR

STARTCHAR U+043E
ENCODING 1086
SWIDTH 500 0
DWIDTH 8 0
BBX 8 16 0 0
BITMAP
00
00
00
00
00
00
3C
66
66
66
66
66
3C
00
00
00
ENDCHAR

STARTCHAR U+043F
ENCODING 1087
SWIDTH 500 0
DWIDTH 8 0
BBX 8 16 0 0
BITMAP
00
00
00
00
00
00
7E
66
66
66
66
66
66
00
00
00
ENDCHAR

STARTCHAR U+0440
ENCODING 1088
SWIDTH 500 0
DWIDTH 8 0
BBX 8 16 0 0
BITMAP
00
00
00
00
00
00
7C
66
66
66
66
66
7C
60
60
60
ENDCHAR

STARTCHAR U+0441
ENCODING 1089
SWIDTH 500 0
DWIDTH 8 0
BBX 8 16 0 0
BITMAP
00
00
00
00
00
00
3C
66
60
60
60
66
3C
00
00
00
ENDCHAR

STARTCHAR U+0442
ENCODING 1090
SWIDTH 500 0
DWIDTH 8 0
BBX 8 16 0 0
BITMAP
00
00
00
00
00
00
7E
18
18
18
18
18
18
00
00
00
ENDCHAR

STARTCHAR U+0443
ENCODING 1091
SWIDTH 500 0
DWIDTH 8 0
BBX 8 16 0 0
BITMAP
00
00
00
00
00
00
66
66
66
66
66
66
3E
06
06
3C
ENDCHAR

STARTCHAR U+0444
ENCODING 1092
SWIDTH 500 0
DWIDTH 8 0
BBX 8 16 0 0
BITMAP
00
00
00
00
10
10
7C
D6
D6
D6
D6
D6
7C
10
10
00
ENDCHAR

STARTCHAR U+0445
ENCODING 1093
SWIDTH 500 0
DWIDTH 8 0
BBX 8 16 0 0
BITMAP
00
00
00
00
00
00
C6
C6
6C
38
6C
C6
C6
00
00
00
ENDCHAR

STARTCHAR U+0446
ENCODING 1094
SWIDTH 500 0
DWIDTH 8 0
BBX 8 16 0 0
BITMAP
00
00
00
00
00
00
CC
CC
CC
CC
CC
CC
FE
06
00
00
ENDCHAR

STARTCHAR U+0447
ENCODING 1095
SWIDTH 500 0
DWIDTH 8 0
BBX 8 16 0 0
BITMAP
00
00
00
00
00
00
66
66
66
3E
06
06
06
00
00
00
ENDCHAR

STARTCHAR U+0448
ENCODING 1096
SWIDTH 500 0
DWIDTH 8 0
BBX 8 16 0 0
BITMAP
00
00
00
00
00
00
D6
D6
D6
D6
D6
D6
FE
00
00
00
ENDCHAR

STARTCHAR U+0449
ENCODING 1097
SWIDTH 500 0
DWIDTH 8 0
BBX 8 16 0 0
BITMAP
00
00
00
00
00
00
D6
D6
D6
D6
D6
D6
FE
06
00
00
ENDCHAR

STARTCHAR U+044A
ENCODING 1098
SWIDTH 500 0
DWIDTH 8 0
BBX 8 16 0 0
BITMAP
00
00
00
00
00
00
E0
E0
60
7C
66
66
7C
00
00
00
ENDCHAR

STARTCHAR U+044B
ENCODING 1099
SWIDTH 500 0
DWIDTH 8 0
BBX 8 16 0 0
BITMAP
00
00
00
00
00
00
C6
C6
C6
F6
DE
DE
F6
00
00
00
ENDCHAR

STARTCHAR U+044C
ENCODING 1100
SWIDTH 500 0
DWIDTH 8 0
BBX 8 16 0 0
BITMAP
00
00
00
00
00
00
60
60
60
7C
66
66
7C
00
00
00
ENDCHAR

STARTCHAR U+044D
ENCODING 1101
SWIDTH 500 0
DWIDTH 8 0
BBX 8 16 0 0
BITMAP
00
00
00
00
00
00
78
CC
06
1E
06
CC
78
00
00
00
ENDCHAR

STARTCHAR U+044E
ENCODING 1102
SWIDTH 500 0
DWIDTH 8 0
BBX 8 16 0 0
BITMAP
00
00
00
00
00
00
CC
D6
D6
F6
D6
D6
CC
00
00
00
ENDCHAR

STARTCHAR U+044F
ENCODING 1103
SWIDTH 500 0
DWIDTH 8 0
BBX 8 16 0 0
BITMAP
00
00
00
00
00
00
3E
66
66
3E
1E
36
66
00
00
00
ENDCHAR

STARTCHAR U+0450
ENCODING 1104
SWIDTH 500 0
DWIDTH 8 0
BBX 8 16 0 0
BITMAP
00
00
30
18
00
00
3C
66
66
7E
60
60
3C
00
00
00
ENDCHAR

STARTCHAR U+0451
ENCODING 1105
SWIDTH 500 0
DWIDTH 8 0
BBX 8 16 0 0
BITMAP
00
00
66
66
00
00
3C
66
66
7E
60
60
3C
00
00
00
ENDCHAR

STARTCHAR U+0455
ENCODING 1109
SWIDTH 500 0
DWIDTH 8 0
BBX 8 16 0 0
BITMAP
00
00
00
00
00
00
3E
60
60
3C
06
06
7C
00
00
00
ENDCHAR

STARTCHAR U+0456
ENCODING 1110
SWIDTH 500 0
DWIDTH 8 0
BBX 8 16 0 0
BITMAP
00
00
18
18
00
00
78
18
18
18
18
18
1E
00
00
00
ENDCHAR

STARTCHAR U+0457
ENCODING 1111
SWIDTH 500 0
DWIDTH 8 0
BBX 8 16 0 0
BITMAP
00
00
66
66
00
00
38
18
18
18
18
18
3C
00
00
00
ENDCHAR

STARTCHAR U+0458
ENCODING 1112
SWIDTH 500 0
DWIDTH 8 0
BBX 8 16 0 0
BITMAP
00
00
0C
0C
00
00
0C
0C
0C
0C
0C
0C
0C
0C
0C
78
ENDCHAR

STARTCHAR U+04D0
ENCODING 1232
SWIDTH 500 0
DWIDTH 8 0
BBX 8 16 0 0
BITMAP
66
3C
00
18
3C
66
66
66
7E
66
66
66
66
00
00
00
ENDCHAR

STARTCHAR U+04D1
ENCODING 1233
SWIDTH 500 0
DWIDTH 8 0
BBX 8 16 0 0
BITMAP
00
00
66
3C
00
00
3C
06
3E
66
66
66
3E
00
00
00
ENDCHAR

STARTCHAR U+04D2
ENCODING 1234
SWIDTH 500 0
DWIDTH 8 0
BBX 8 16 0 0
BITMAP
66
66
00
18
3C
66
66
66
7E
66
66
66
66
00
00
00
ENDCHAR

STARTCHAR U+04D3
ENCODING 1235
SWIDTH 500 0
DWIDTH 8 0
BBX 8 16 0 0
BITMAP
00
00
66
66
00
00
3C
06
3E
66
66
66
3E
00
00
00
ENDCHAR

STARTCHAR U+04D4
ENCODING 1236
SWIDTH 500 0
DWIDTH 8 0
BBX 8 16 0 0
BITMAP
00
00
3F
7C
FC
CC
CC
FE
CC
CC
CC
CC
CF
00
00
00
ENDCHAR

STARTCHAR U+04D5
ENCODING 1237
SWIDTH 500 0
DWIDTH 8 0
BBX 8 16 0 0
BITMAP
00
00
00
00
00
00
7E
1B
1B
7F
D8
D8
77
00
00
00
ENDCHAR

STARTCHAR U+04D6
ENCODING 1238
SWIDTH 500 0
DWIDTH 8 0
BBX 8 16 0 0
BITMAP
66
3C
00
7E
60
60
60
7C
60
60
60
60
7E
00
00
00
ENDCHAR

STARTCHAR U+04D7
ENCODING 1239
SWIDTH 500 0
DWIDTH 8 0
BBX 8 16 0 0
BITMAP
00
00
66
3C
00
00
3C
66
66
7E
60
60
3C
00
00
00
ENDCHAR

STARTCHAR U+04E6
ENCODING 1254
SWIDTH 500 0
DWIDTH 8 0
BBX 8 16 0 0
BITMAP
66
66
00
3C
66
66
66
66
66
66
66
66
3C
00
00
00
ENDCHAR

STARTCHAR U+04E7
ENCODING 1255
SWIDTH 500 0
DWIDTH 8 0
BBX 8 16 0 0
BITMAP
00
00
66
66
00
00
3C
66
66
66
66
66
3C
00
00
00
ENDCHAR

STARTCHAR U+04F1
ENCODING 1265
SWIDTH 500 0
DWIDTH 8 0
BBX 8 16 0 0
BITMAP
00
00
66
66
00
00
66
66
66
66
66
66
3E
06
06
3C
ENDCHAR

STARTCHAR U+05D0
ENCODING 1488
SWIDTH 500 0
DWIDTH 8 0
BBX 8 16 0 0
BITMAP
00
00
00
00
00
00
66
66
36
3C
6C
66
66
00
00
00
ENDCHAR

STARTCHAR U+05D1
ENCODING 1489
SWIDTH 500 0
DWIDTH 8 0
BBX 8 16 0 0
BITMAP
00
00
00
00
00
00
78
0C
0C
0C
0C
0C
7E
00
00
00
ENDCHAR

STARTCHAR U+05D2
ENCODING 1490
SWIDTH 500 0
DWIDTH 8 0
BBX 8 16 0 0
BITMAP
00
00
00
00
00
00
38
0C
0C
0C
0C
1C
76
00
00
00
ENDCHAR

STARTCHAR U+05D3
ENCODING 1491
SWIDTH 500 0
DWIDTH 8 0
BBX 8 16 0 0
BITMAP
00
00
00
00
00
00
7E
0C
0C
0C
0C
0C
0C
00
00
00
ENDCHAR

STARTCHAR U+05D4
ENCODING 1492
SWIDTH 500 0
DWIDTH 8 0
BBX 8 16 0 0
BITMAP
00
00
00
00
00
00
7C
06
66
66
66
66
66
00
00
00
ENDCHAR

STARTCHAR U+05D5
ENCODING 1493
SWIDTH 500 0
DWIDTH 8 0
BBX 8 16 0 0
BITMAP
00
00
00
00
00
00
38
0C
0C
0C
0C
0C
0C
00
00
00
ENDCHAR

STARTCHAR U+05D6
ENCODING 1494
SWIDTH 500 0
DWIDTH 8 0
BBX 8 16 0 0
BITMAP
00
00
00
00
00
00
7E
0C
18
18
18
18
18
00
00
00
ENDCHAR

STARTCHAR U+05D7
ENCODING 1495
SWIDTH 500 0
DWIDTH 8 0
BBX 8 16 0 0
BITMAP
00
00
00
00
00
00
7C
36
36
36
36
36
36
00
00
00
ENDCHAR

STARTCHAR U+05D8
ENCODING 1496
SWIDTH 500 0
DWIDTH 8 0
BBX 8 16 0 0
BITMAP
00
00
00
00
00
00
60
6C
66
66
66
66
3C
00
00
00
ENDCHAR

STARTCHAR U+05D9
ENCODING 1497
SWIDTH 500 0
DWIDTH 8 0
BBX 8 16 0 0
BITMAP
00
00
00
00
00
00
38
0C
0C
0C
0C
00
00
00
00
00
ENDCHAR

STARTCHAR U+05DA
ENCODING 1498
SWIDTH 500 0
DWIDTH 8 0
BBX 8 16 0 0
BITMAP
00
00
00
00
00
00
7C
06
06
06
06
06
06
06
06
00
ENDCHAR

STARTCHAR U+05DB
ENCODING 1499
SWIDTH 500 0
DWIDTH 8 0
BBX 8 16 0 0
BITMAP
00
00
00
00
00
00
7C
06
06
06
06
06
7C
00
00
00
ENDCHAR

STARTCHAR U+05DC
ENCODING 1500
SWIDTH 500 0
DWIDTH 8 0
BBX 8 16 0 0
BITMAP
00
00
00
00
60
60
7C
06
06
0C
18
18
18
00
00
00
ENDCHAR

STARTCHAR U+05DD
ENCODING 1501
SWIDTH 500 0
DWIDTH 8 0
BBX 8 16 0 0
BITMAP
00
00
00
00
00
00
FC
66
66
66
66
66
7E
00
00
00
ENDCHAR

STARTCHAR U+05DE
ENCODING 1502
SWIDTH 500 0
DWIDTH 8 0
BBX 8 16 0 0
BITMAP
00
00
00
00
00
00
7C
66
66
66
66
66
6E
00
00
00
ENDCHAR

STARTCHAR U+05DF
ENCODING 1503
SWIDTH 500 0
DWIDTH 8 0
BBX 8 16 0 0
BITMAP
00
00
00
00
00
00
38
0C
0C
0C
0C
0C
0C
0C
0C
00
ENDCHAR

STARTCHAR U+05E0
ENCODING 1504
SWIDTH 500 0
DWIDTH 8 0
BBX 8 16 0 0
BITMAP
00
00
00
00
00
00
38
0C
0C
0C
0C
0C
3C
00
00
00
ENDCHAR

STARTCHAR U+05E1
ENCODING 1505
SWIDTH 500 0
DWIDTH 8 0
BBX 8 16 0 0
BITMAP
00
00
00
00
00
00
7E
66
66
66
66
66
3C
00
00
00
ENDCHAR

STARTCHAR U+05E2
ENCODING 1506
SWIDTH 500 0
DWIDTH 8 0
BBX 8 16 0 0
BITMAP
00
00
00
00
00
00
66
66
66
66
66
66
FC
00
00
00
ENDCHAR

STARTCHAR U+05E3
ENCODING 1507
SWIDTH 500 0
DWIDTH 8 0
BBX 8 16 0 0
BITMAP
00
00
00
00
00
00
7C
66
66
66
36
06
06
06
06
00
ENDCHAR

STARTCHAR U+05E4
ENCODING 1508
SWIDTH 500 0
DWIDTH 8 0
BBX 8 16 0 0
BITMAP
00
00
00
00
00
00
7C
66
66
66
36
06
7C
00
00
00
ENDCHAR

STARTCHAR U+05E5
ENCODING 1509
SWIDTH 500 0
DWIDTH 8 0
BBX 8 16 0 0
BITMAP
00
00
00
00
00
00
66
66
66
66
6C
38
30
30
30
00
ENDCHAR

STARTCHAR U+05E6
ENCODING 1510
SWIDTH 500 0
DWIDTH 8 0
BBX 8 16 0 0
BITMAP
00
00
00
00
00
00
66
66
66
3C
06
06
7E
00
00
00
ENDCHAR

STARTCHAR U+05E7
ENCODING 1511
SWIDTH 500 0
DWIDTH 8 0
BBX 8 16 0 0
BITMAP
00
00
00
00
00
00
7C
06
66
66
66
6C
68
60
60
00
ENDCHAR

STARTCHAR U+05E8
ENCODING 1512
SWIDTH 500 0
DWIDTH 8 0
BBX 8 16 0 0
BITMAP
00
00
00
00
00
00
7C
06
06
06
06
06
06
00
00
00
ENDCHAR

STARTCHAR U+05E9
ENCODING 1513
SWIDTH 500 0
DWIDTH 8 0
BBX 8 16 0 0
BITMAP
00
00
00
00
00
00
D6
D6
D6
D6
D6
E6
7C
00
00
00
ENDCHAR

STARTCHAR U+05EA
ENCODING 1514
SWIDTH 500 0
DWIDTH 8 0
BBX 8 16 0 0
BITMAP
00
00
00
00
00
00
FC
66
66
66
66
66
C6
00
00
00
ENDCHAR

STARTCHAR U+0623
ENCODING 1571
SWIDTH 500 0
DWIDTH 8 0
BBX 8 16 0 0
BITMAP
30
40
38
40
10
10
10
10
10
10
00
00
00
00
00
00
ENDCHAR

STARTCHAR U+0627
ENCODING 1575
SWIDTH 500 0
DWIDTH 8 0
BBX 8 16 0 0
BITMAP
08
08
08
08
08
08
08
08
08
08
00
00
00
00
00
00
ENDCHAR

STARTCHAR U+0628
ENCODING 1576
SWIDTH 500 0
DWIDTH 8 0
BBX 8 16 0 0
BITMAP
00
00
00
00
00
81
81
81
FF
7E
00
18
00
00
00
00
ENDCHAR

STARTCHAR U+0629
ENCODING 1577
SWIDTH 500 0
DWIDTH 8 0
BBX 8 16 0 0
BITMAP
00
00
33
00
0E
1F
11
11
1F
0E
00
00
00
00
00
00
ENDCHAR

STARTCHAR U+062A
ENCODING 1578
SWIDTH 500 0
DWIDTH 8 0
BBX 8 16 0 0
BITMAP
00
00
00
36
00
81
81
81
FF
7E
00
00
00
00
00
00
ENDCHAR

STARTCHAR U+062B
ENCODING 1579
SWIDTH 500 0
DWIDTH 8 0
BBX 8 16 0 0
BITMAP
00
18
00
66
00
81
81
81
FF
7E
00
00
00
00
00
00
ENDCHAR

STARTCHAR U+062C
ENCODING 1580
SWIDTH 500 0
DWIDTH 8 0
BBX 8 16 0 0
BITMAP
00
00
00
78
0C
06
3F
7E
C0
98
C0
7E
3C
00
00
00
ENDCHAR

STARTCHAR U+062D
ENCODING 1581
SWIDTH 500 0
DWIDTH 8 0
BBX 8 16 0 0
BITMAP
00
00
00
78
0C
06
3F
7E
C0
80
C0
7E
3C
00
00
00
ENDCHAR

STARTCHAR U+062F
ENCODING 1583
SWIDTH 500 0
DWIDTH 8 0
BBX 8 16 0 0
BITMAP
00
00
00
1C
1E
03
01
03
7E
3C
00
00
00
00
00
00
ENDCHAR

STARTCHAR U+0630
ENCODING 1584
SWIDTH 500 0
DWIDTH 8 0
BBX 8 16 0 0
BITMAP
00
0C
00
1C
1E
03
01
03
7E
3C
00
00
00
00
00
00
ENDCHAR

STARTCHAR U+0631
ENCODING 1585
SWIDTH 500 0
DWIDTH 8 0
BBX 8 16 0 0
BITMAP
00
00
00
00
00
02
07
03
01
01
02
7C
38
00
00
00
ENDCHAR

STARTCHAR U+0632
ENCODING 1586
SWIDTH 500 0
DWIDTH 8 0
BBX 8 16 0 0
BITMAP
00
00
00
06
00
02
07
03
01
01
02
7C
38
00
00
00
ENDCHAR

STARTCHAR U+0633
ENCODING 1587
SWIDTH 500 0
DWIDTH 8 0
BBX 8 16 0 0
BITMAP
00
00
00
11
15
9F
8A
84
FC
78
00
00
00
00
00
00
ENDCHAR

STARTCHAR U+0634
ENCODING 1588
SWIDTH 500 0
DWIDTH 8 0
BBX 8 16 0 0
BITMAP
0C
00
33
00
11
15
9F
84
FC
78
00
00
00
00
00
00
ENDCHAR

STARTCHAR U+0635
ENCODING 1589
SWIDTH 500 0
DWIDTH 8 0
BBX 8 16 0 0
BITMAP
00
00
1E
31
1F
9E
88
84
FC
78
00
00
00
00
00
00
ENDCHAR

STARTCHAR U+0637
ENCODING 1591
SWIDTH 500 0
DWIDTH 8 0
BBX 8 16 0 0
BITMAP
20
20
20
20
26
2F
39
31
FF
FE
00
00
00
00
00
00
ENDCHAR

STARTCHAR U+0638
ENCODING 1592
SWIDTH 500 0
DWIDTH 8 0
BBX 8 16 0 0
BITMAP
20
26
20
20
26
2F
39
31
FF
FE
00
00
00
00
00
00
ENDCHAR

STARTCHAR U+0639
ENCODING 1593
SWIDTH 500 0
DWIDTH 8 0
BBX 8 16 0 0
BITMAP
00
00
00
38
7C
40
7C
38
60
41
63
7E
3C
00
00
00
ENDCHAR

STARTCHAR U+063A
ENCODING 1594
SWIDTH 500 0
DWIDTH 8 0
BBX 8 16 0 0
BITMAP
00
30
00
38
7C
40
7C
38
60
41
63
7E
3C
00
00
00
ENDCHAR

STARTCHAR U+0640
ENCODING 1600
SWIDTH 500 0
DWIDTH 8 0
BBX 8 16 0 0
BITMAP
00
00
00
00
00
00
00
00
FF
FF
00
00
00
00
00
00
ENDCHAR

STARTCHAR U+0641
ENCODING 1601
SWIDTH 500 0
DWIDTH 8 0
BBX 8 16 0 0
BITMAP
00
00
0C
00
0E
1F
11
9F
81
FF
7E
00
00
00
00
00
ENDCHAR

STARTCHAR U+0642
ENCODING 1602
SWIDTH 500 0
DWIDTH 8 0
BBX 8 16 0 0
BITMAP
00
00
1B
00
0E
1F
11
9F
81
FF
7E
00
00
00
00
00
ENDCHAR

STARTCHAR U+0643
ENCODING 1603
SWIDTH 500 0
DWIDTH 8 0
BBX 8 16 0 0
BITMAP
01
19
21
19
21
01
81
81
FF
7E
00
00
00
00
00
00
ENDCHAR

STARTCHAR U+0644
ENCODING 1604
SWIDTH 500 0
DWIDTH 8 0
BBX 8 16 0 0
BITMAP
02
02
02
02
02
02
02
82
82
82
C6
7C
38
00
00
00
ENDCHAR

STARTCHAR U+0645
ENCODING 1605
SWIDTH 500 0
DWIDTH 8 0
BBX 8 16 0 0
BITMAP
00
00
00
00
00
38
7C
46
1E
7E
40
40
40
00
00
00
ENDCHAR

STARTCHAR U+0646
ENCODING 1606
SWIDTH 500 0
DWIDTH 8 0
BBX 8 16 0 0
BITMAP
00
00
00
18
00
81
81
81
FF
7E
00
00
00
00
00
00
ENDCHAR

STARTCHAR U+0647
ENCODING 1607
SWIDTH 500 0
DWIDTH 8 0
BBX 8 16 0 0
BITMAP
00
00
00
00
38
7C
44
44
7C
38
00
00
00
00
00
00
ENDCHAR

STARTCHAR U+0648
ENCODING 1608
SWIDTH 500 0
DWIDTH 8 0
BBX 8 16 0 0
BITMAP
00
00
00
00
00
38
7C
44
7C
3C
08
38
30
00
00
00
ENDCHAR

STARTCHAR U+0649
ENCODING 1609
SWIDTH 500 0
DWIDTH 8 0
BBX 8 16 0 0
BITMAP
00
00
00
0F
1F
10
1E
8F
81
FF
7E
00
00
00
00
00
ENDCHAR

STARTCHAR U+064A
ENCODING 1610
SWIDTH 500 0
DWIDTH 8 0
BBX 8 16 0 0
BITMAP
00
00
00
0F
1F
10
1E
8F
81
FF
7E
00
36
00
00
00
ENDCHAR

STARTCHAR U+0671
ENCODING 1649
SWIDTH 500 0
DWIDTH 8 0
BBX 8 16 0 0
BITMAP
0C
12
7C
00
10
10
10
10
10
10
00
00
00
00
00
00
ENDCHAR

STARTCHAR U+0672
ENCODING 1650
SWIDTH 500 0
DWIDTH 8 0
BBX 8 16 0 0
BITMAP
06
28
5E
00
10
10
10
10
10
10
00
00
00
00
00
00
ENDCHAR

STARTCHAR U+0673
ENCODING 1651
SWIDTH 500 0
DWIDTH 8 0
BBX 8 16 0 0
BITMAP
08
08
08
08
08
08
08
08
08
08
00
03
34
6F
00
00
ENDCHAR

STARTCHAR U+1560
ENCODING 5472
SWIDTH 500 0
DWIDTH 8 0
BBX 8 16 0 0
BITMAP
18
18
00
3C
66
66
30
18
0C
06
66
66
3C
00
00
00
ENDCHAR

STARTCHAR U+1561
ENCODING 5473
SWIDTH 500 0
DWIDTH 8 0
BBX 8 16 0 0
BITMAP
00
00
18
18
00
00
3E
60
60
3C
06
06
7C
00
00
00
ENDCHAR

STARTCHAR U+1562
ENCODING 5474
SWIDTH 500 0
DWIDTH 8 0
BBX 8 16 0 0
BITMAP
00
00
3C
66
66
60
30
18
0C
06
66
66
3C
00
18
18
ENDCHAR

STARTCHAR U+1563
ENCODING 5475
SWIDTH 500 0
DWIDTH 8 0
BBX 8 16 0 0
BITMAP
00
00
00
00
00
00
3E
60
60
3C
06
06
7C
00
18
18
ENDCHAR

STARTCHAR U+156A
ENCODING 5482
SWIDTH 500 0
DWIDTH 8 0
BBX 8 16 0 0
BITMAP
18
18
00
7E
18
18
18
18
18
18
18
18
18
00
00
00
ENDCHAR

STARTCHAR U+156C
ENCODING 5484
SWIDTH 500 0
DWIDTH 8 0
BBX 8 16 0 0
BITMAP
00
00
7E
18
18
18
18
18
18
18
18
18
18
00
18
18
ENDCHAR

STARTCHAR U+156D
ENCODING 5485
SWIDTH 500 0
DWIDTH 8 0
BBX 8 16 0 0
BITMAP
00
00
00
30
30
30
7E
30
30
30
30
30
1E
00
18
18
ENDCHAR

STARTCHAR U+156E
ENCODING 5486
SWIDTH 500 0
DWIDTH 8 0
BBX 8 16 0 0
BITMAP
00
00
7E
18
18
18
18
18
18
18
18
18
18
00
7E
00
ENDCHAR

STARTCHAR U+156F
ENCODING 5487
SWIDTH 500 0
DWIDTH 8 0
BBX 8 16 0 0
BITMAP
00
00
00
30
30
30
7E
30
30
30
30
30
1E
00
7E
00
ENDCHAR

STARTCHAR U+1570
ENCODING 5488
SWIDTH 500 0
DWIDTH 8 0
BBX 8 16 0 0
BITMAP
00
00
7E
18
18
18
18
18
18
18
18
18
18
00
66
3C
ENDCHAR

STARTCHAR U+1571
ENCODING 5489
SWIDTH 500 0
DWIDTH 8 0
BBX 8 16 0 0
BITMAP
00
00
00
30
30
30
7E
30
30
30
30
30
1E
00
66
3C
ENDCHAR

STARTCHAR U+15EC
ENCODING 5612
SWIDTH 500 0
DWIDTH 8 0
BBX 8 16 0 0
BITMAP
7E
00
7C
66
66
66
66
7C
6C
66
66
66
66
00
18
18
ENDCHAR

STARTCHAR U+15ED
ENCODING 5613
SWIDTH 500 0
DWIDTH 8 0
BBX 8 16 0 0
BITMAP
00
00
00
7E
00
00
7C
66
66
60
60
60
60
00
18
18
ENDCHAR

STARTCHAR U+15EF
ENCODING 5615
SWIDTH 500 0
DWIDTH 8 0
BBX 8 16 0 0
BITMAP
00
00
00
00
00
00
7C
66
66
60
60
60
60
00
7E
00
ENDCHAR

STARTCHAR U+16A0
ENCODING 5792
SWIDTH 500 0
DWIDTH 8 0
BBX 8 16 0 0
BITMAP
6C
6C
78
78
60
60
6C
6C
78
78
60
60
60
60
00
00
ENDCHAR

STARTCHAR U+16A1
ENCODING 5793
SWIDTH 500 0
DWIDTH 8 0
BBX 8 16 0 0
BITMAP
D6
D6
CC
CC
F8
F8
C0
C0
CC
CC
F8
F8
C0
C0
00
00
ENDCHAR

STARTCHAR U+16A2
ENCODING 5794
SWIDTH 500 0
DWIDTH 8 0
BBX 8 16 0 0
BITMAP
60
60
70
70
78
78
6C
6C
66
66
66
66
66
66
00
00
ENDCHAR

STARTCHAR U+16A3
ENCODING 5795
SWIDTH 500 0
DWIDTH 8 0
BBX 8 16 0 0
BITMAP
C0
C0
E0
E0
F0
F0
D8
D8
CC
CC
C6
C6
D6
D6
00
00
ENDCHAR

STARTCHAR U+16A4
ENCODING 5796
SWIDTH 500 0
DWIDTH 8 0
BBX 8 16 0 0
BITMAP
38
38
6C
6C
6C
6C
C6
C6
D6
D6
C6
C6
C6
C6
00
00
ENDCHAR

STARTCHAR U+16A5
ENCODING 5797
SWIDTH 500 0
DWIDTH 8 0
BBX 8 16 0 0
BITMAP
18
18
18
18
3C
3C
3C
3C
66
66
66
66
66
66
00
00
ENDCHAR

STARTCHAR U+16A6
ENCODING 5798
SWIDTH 500 0
DWIDTH 8 0
BBX 8 16 0 0
BITMAP
30
30
30
30
3C
3C
36
36
3C
3C
30
30
30
30
00
00
ENDCHAR

STARTCHAR U+16A7
ENCODING 5799
SWIDTH 500 0
DWIDTH 8 0
BBX 8 16 0 0
BITMAP
C0
C0
FC
FC
C6
C6
D6
D6
C6
C6
FC
FC
C0
C0
00
00
ENDCHAR

STARTCHAR U+16A8
ENCODING 5800
SWIDTH 500 0
DWIDTH 8 0
BBX 8 16 0 0
BITMAP
3C
3C
36
36
30
30
3C
3C
36
36
30
30
30
30
00
00
ENDCHAR

STARTCHAR U+16A9
ENCODING 5801
SWIDTH 500 0
DWIDTH 8 0
BBX 8 16 0 0
BITMAP
76
76
6C
6C
60
60
76
76
6C
6C
60
60
60
60
00
00
ENDCHAR

STARTCHAR U+16AA
ENCODING 5802
SWIDTH 500 0
DWIDTH 8 0
BBX 8 16 0 0
BITMAP
76
76
6C
6C
60
60
78
78
6C
6C
60
60
60
60
00
00
ENDCHAR

STARTCHAR U+16AB
ENCODING 5803
SWIDTH 500 0
DWIDTH 8 0
BBX 8 16 0 0
BITMAP
3C
3C
36
36
30
30
3C
3C
36
36
30
30
30
30
00
00
ENDCHAR

STARTCHAR U+16B1
ENCODING 5809
SWIDTH 500 0
DWIDTH 8 0
BBX 8 16 0 0
BITMAP
78
78
6C
6C
66
66
6C
6C
78
78
6C
6C
66
66
00
00
ENDCHAR

STARTCHAR U+16B2
ENCODING 5810
SWIDTH 500 0
DWIDTH 8 0
BBX 8 16 0 0
BITMAP
00
00
18
18
30
30
60
60
30
30
18
18
00
00
00
00
ENDCHAR

STARTCHAR U+16B3
ENCODING 5811
SWIDTH 500 0
DWIDTH 8 0
BBX 8 16 0 0
BITMAP
60
60
60
60
60
60
70
70
78
78
6C
6C
66
66
00
00
ENDCHAR

STARTCHAR U+16B4
ENCODING 5812
SWIDTH 500 0
DWIDTH 8 0
BBX 8 16 0 0
BITMAP
36
36
36
36
3C
3C
30
30
30
30
30
30
30
30
00
00
ENDCHAR

STARTCHAR U+16B5
ENCODING 5813
SWIDTH 500 0
DWIDTH 8 0
BBX 8 16 0 0
BITMAP
D6
D6
C6
C6
CC
CC
D8
D8
F0
F0
C0
C0
C0
C0
00
00
ENDCHAR

STARTCHAR U+16B6
ENCODING 5814
SWIDTH 500 0
DWIDTH 8 0
BBX 8 16 0 0
BITMAP
36
36
36
36
7C
7C
30
30
30
30
30
30
30
30
00
00
ENDCHAR

STARTCHAR U+16B7
ENCODING 5815
SWIDTH 500 0
DWIDTH 8 0
BBX 8 16 0 0
BITMAP
66
66
66
66
3C
3C
18
18
3C
3C
66
66
66
66
00
00
ENDCHAR

STARTCHAR U+16B8
ENCODING 5816
SWIDTH 500 0
DWIDTH 8 0
BBX 8 16 0 0
BITMAP
66
66
66
66
3C
3C
5A
5A
3C
3C
66
66
66
66
00
00
ENDCHAR

STARTCHAR U+16B9
ENCODING 5817
SWIDTH 500 0
DWIDTH 8 0
BBX 8 16 0 0
BITMAP
78
78
6C
6C
66
66
6C
6C
78
78
60
60
60
60
00
00
ENDCHAR

STARTCHAR U+16BA
ENCODING 5818
SWIDTH 500 0
DWIDTH 8 0
BBX 8 16 0 0
BITMAP
66
66
66
66
76
76
6E
6E
66
66
66
66
66
66
00
00
ENDCHAR

STARTCHAR U+16BB
ENCODING 5819
SWIDTH 500 0
DWIDTH 8 0
BBX 8 16 0 0
BITMAP
66
66
66
66
76
76
6E
6E
76
76
6E
6E
66
66
00
00
ENDCHAR

STARTCHAR U+16BC
ENCODING 5820
SWIDTH 500 0
DWIDTH 8 0
BBX 8 16 0 0
BITMAP
18
18
18
18
5A
5A
3C
3C
5A
5A
18
18
18
18
00
00
ENDCHAR

STARTCHAR U+16BD
ENCODING 5821
SWIDTH 500 0
DWIDTH 8 0
BBX 8 16 0 0
BITMAP
18
18
18
18
18
18
3C
3C
18
18
18
18
18
18
00
00
ENDCHAR

STARTCHAR U+16BE
ENCODING 5822
SWIDTH 500 0
DWIDTH 8 0
BBX 8 16 0 0
BITMAP
18
18
18
18
58
58
7E
7E
1A
1A
18
18
18
18
00
00
ENDCHAR

STARTCHAR U+16BF
ENCODING 5823
SWIDTH 500 0
DWIDTH 8 0
BBX 8 16 0 0
BITMAP
30
30
30
30
30
30
3C
3C
36
36
30
30
30
30
00
00
ENDCHAR

STARTCHAR U+16C0
ENCODING 5824
SWIDTH 500 0
DWIDTH 8 0
BBX 8 16 0 0
BITMAP
18
18
18
18
58
58
7E
7E
1A
1A
18
18
18
18
00
00
ENDCHAR

STARTCHAR U+16C1
ENCODING 5825
SWIDTH 500 0
DWIDTH 8 0
BBX 8 16 0 0
BITMAP
18
18
18
18
18
18
18
18
18
18
18
18
18
18
00
00
ENDCHAR

STARTCHAR U+16C2
ENCODING 5826
SWIDTH 500 0
DWIDTH 8 0
BBX 8 16 0 0
BITMAP
18
18
18
18
18
18
3C
3C
18
18
18
18
18
18
00
00
ENDCHAR

STARTCHAR U+16C3
ENCODING 5827
SWIDTH 500 0
DWIDTH 8 0
BBX 8 16 0 0
BITMAP
00
00
00
00
60
60
CC
CC
66
66
0C
0C
00
00
00
00
ENDCHAR

STARTCHAR U+16C4
ENCODING 5828
SWIDTH 500 0
DWIDTH 8 0
BBX 8 16 0 0
BITMAP
18
18
18
18
3C
3C
5A
5A
3C
3C
18
18
18
18
00
00
ENDCHAR

STARTCHAR U+16C5
ENCODING 5829
SWIDTH 500 0
DWIDTH 8 0
BBX 8 16 0 0
BITMAP
18
18
18
18
1A
1A
7E
7E
58
58
18
18
18
18
00
00
ENDCHAR

STARTCHAR U+16C6
ENCODING 5830
SWIDTH 500 0
DWIDTH 8 0
BBX 8 16 0 0
BITMAP
0C
0C
0C
0C
0C
0C
3C
3C
6C
6C
0C
0C
0C
0C
00
00
ENDCHAR

STARTCHAR U+16C7
ENCODING 5831
SWIDTH 500 0
DWIDTH 8 0
BBX 8 16 0 0
BITMAP
1C
1C
1A
1A
18
18
18
18
18
18
58
58
38
38
00
00
ENDCHAR

STARTCHAR U+16C8
ENCODING 5832
SWIDTH 500 0
DWIDTH 8 0
BBX 8 16 0 0
BITMAP
66
66
66
66
7C
7C
60
60
7C
7C
66
66
66
66
00
00
ENDCHAR

STARTCHAR U+16C9
ENCODING 5833
SWIDTH 500 0
DWIDTH 8 0
BBX 8 16 0 0
BITMAP
D6
D6
D6
D6
7C
7C
18
18
18
18
18
18
18
18
00
00
ENDCHAR

STARTCHAR U+16CA
ENCODING 5834
SWIDTH 500 0
DWIDTH 8 0
BBX 8 16 0 0
BITMAP
1C
1C
30
30
18
18
0C
0C
18
18
30
30
1C
1C
00
00
ENDCHAR

STARTCHAR U+16CB
ENCODING 5835
SWIDTH 500 0
DWIDTH 8 0
BBX 8 16 0 0
BITMAP
30
30
30
30
34
34
3C
3C
2C
2C
0C
0C
0C
0C
00
00
ENDCHAR

STARTCHAR U+16CC
ENCODING 5836
SWIDTH 500 0
DWIDTH 8 0
BBX 8 16 0 0
BITMAP
18
18
18
18
18
18
18
18
00
00
00
00
00
00
00
00
ENDCHAR

STARTCHAR U+16CD
ENCODING 5837
SWIDTH 500 0
DWIDTH 8 0
BBX 8 16 0 0
BITMAP
18
18
18
18
18
18
3C
3C
00
00
00
00
00
00
00
00
ENDCHAR

STARTCHAR U+16CE
ENCODING 5838
SWIDTH 500 0
DWIDTH 8 0
BBX 8 16 0 0
BITMAP
18
18
5A
5A
3C
3C
18
18
00
00
00
00
00
00
00
00
ENDCHAR

STARTCHAR U+16CF
ENCODING 5839
SWIDTH 500 0
DWIDTH 8 0
BBX 8 16 0 0
BITMAP
18
18
3C
3C
5A
5A
18
18
18
18
18
18
18
18
00
00
ENDCHAR

STARTCHAR U+16D0
ENCODING 5840
SWIDTH 500 0
DWIDTH 8 0
BBX 8 16 0 0
BITMAP
0C
0C
3C
3C
6C
6C
0C
0C
0C
0C
0C
0C
0C
0C
00
00
ENDCHAR

STARTCHAR U+16D1
ENCODING 5841
SWIDTH 500 0
DWIDTH 8 0
BBX 8 16 0 0
BITMAP
0C
0C
3C
3C
6C
6C
0C
0C
1E
1E
0C
0C
0C
0C
00
00
ENDCHAR

STARTCHAR U+16D2
ENCODING 5842
SWIDTH 500 0
DWIDTH 8 0
BBX 8 16 0 0
BITMAP
78
78
6C
6C
78
78
6C
6C
66
66
6C
6C
78
78
00
00
ENDCHAR

STARTCHAR U+16D3
ENCODING 5843
SWIDTH 500 0
DWIDTH 8 0
BBX 8 16 0 0
BITMAP
60
60
6C
6C
78
78
64
64
78
78
60
60
60
60
00
00
ENDCHAR

STARTCHAR U+16D4
ENCODING 5844
SWIDTH 500 0
DWIDTH 8 0
BBX 8 16 0 0
BITMAP
FC
FC
D6
D6
FC
FC
C6
C6
D6
D6
C6
C6
FC
FC
00
00
ENDCHAR

STARTCHAR U+16D5
ENCODING 5845
SWIDTH 500 0
DWIDTH 8 0
BBX 8 16 0 0
BITMAP
66
66
6C
6C
7C
7C
60
60
78
78
6C
6C
66
66
00
00
ENDCHAR

STARTCHAR U+16D6
ENCODING 5846
SWIDTH 500 0
DWIDTH 8 0
BBX 8 16 0 0
BITMAP
82
82
C6
C6
FE
FE
D6
D6
C6
C6
C6
C6
C6
C6
00
00
ENDCHAR

STARTCHAR U+16D7
ENCODING 5847
SWIDTH 500 0
DWIDTH 8 0
BBX 8 16 0 0
BITMAP
66
66
7E
7E
5A
5A
7E
7E
66
66
66
66
66
66
00
00
ENDCHAR

STARTCHAR U+16D8
ENCODING 5848
SWIDTH 500 0
DWIDTH 8 0
BBX 8 16 0 0
BITMAP
5A
5A
7E
7E
18
18
18
18
18
18
18
18
18
18
00
00
ENDCHAR

STARTCHAR U+16D9
ENCODING 5849
SWIDTH 500 0
DWIDTH 8 0
BBX 8 16 0 0
BITMAP
3C
3C
18
18
18
18
18
18
18
18
18
18
18
18
00
00
ENDCHAR

STARTCHAR U+16DA
ENCODING 5850
SWIDTH 500 0
DWIDTH 8 0
BBX 8 16 0 0
BITMAP
38
38
3C
3C
36
36
30
30
30
30
30
30
30
30
00
00
ENDCHAR

STARTCHAR U+16DB
ENCODING 5851
SWIDTH 500 0
DWIDTH 8 0
BBX 8 16 0 0
BITMAP
38
38
3C
3C
36
36
30
30
78
78
30
30
30
30
00
00
ENDCHAR

STARTCHAR U+16DC
ENCODING 5852
SWIDTH 500 0
DWIDTH 8 0
BBX 8 16 0 0
BITMAP
00
00
18
18
3C
3C
66
66
3C
3C
18
18
00
00
00
00
ENDCHAR

STARTCHAR U+16DD
ENCODING 5853
SWIDTH 500 0
DWIDTH 8 0
BBX 8 16 0 0
BITMAP
66
66
66
66
3C
3C
66
66
3C
3C
66
66
66
66
00
00
ENDCHAR

STARTCHAR U+16DE
ENCODING 5854
SWIDTH 500 0
DWIDTH 8 0
BBX 8 16 0 0
BITMAP
42
42
66
66
7E
7E
5A
5A
7E
7E
66
66
42
42
00
00
ENDCHAR

STARTCHAR U+16DF
ENCODING 5855
SWIDTH 500 0
DWIDTH 8 0
BBX 8 16 0 0
BITMAP
18
18
3C
3C
66
66
3C
3C
18
18
3C
3C
66
66
00
00
ENDCHAR

STARTCHAR U+16E0
ENCODING 5856
SWIDTH 500 0
DWIDTH 8 0
BBX 8 16 0 0
BITMAP
5A
5A
7E
7E
5A
5A
18
18
18
18
18
18
18
18
00
00
ENDCHAR

STARTCHAR U+16E1
ENCODING 5857
SWIDTH 500 0
DWIDTH 8 0
BBX 8 16 0 0
BITMAP
00
00
18
18
30
30
60
60
30
30
18
18
00
00
00
00
ENDCHAR

STARTCHAR U+16E2
ENCODING 5858
SWIDTH 500 0
DWIDTH 8 0
BBX 8 16 0 0
BITMAP
58
58
78
78
58
58
18
18
18
18
1A
1A
1E
1E
1A
1A
ENDCHAR

STARTCHAR U+16E3
ENCODING 5859
SWIDTH 500 0
DWIDTH 8 0
BBX 8 16 0 0
BITMAP
18
18
18
18
18
18
18
18
7C
7C
D6
D6
D6
D6
00
00
ENDCHAR

STARTCHAR U+16E4
ENCODING 5860
SWIDTH 500 0
DWIDTH 8 0
BBX 8 16 0 0
BITMAP
D6
D6
D6
D6
7C
7C
D6
D6
7C
7C
D6
D6
D6
D6
00
00
ENDCHAR

STARTCHAR U+16E5
ENCODING 5861
SWIDTH 500 0
DWIDTH 8 0
BBX 8 16 0 0
BITMAP
42
42
66
66
7E
7E
66
66
7E
7E
66
66
42
42
00
00
ENDCHAR

STARTCHAR U+16E6
ENCODING 5862
SWIDTH 500 0
DWIDTH 8 0
BBX 8 16 0 0
BITMAP
E0
E0
F8
F8
CE
CE
C6
C6
FE
FE
D6
D6
D6
D6
00
00
ENDCHAR

STARTCHAR U+16E7
ENCODING 5863
SWIDTH 500 0
DWIDTH 8 0
BBX 8 16 0 0
BITMAP
00
00
00
00
00
00
18
18
18
18
18
18
18
18
00
00
ENDCHAR

STARTCHAR U+16E8
ENCODING 5864
SWIDTH 500 0
DWIDTH 8 0
BBX 8 16 0 0
BITMAP
18
18
3C
3C
5A
5A
18
18
5A
5A
3C
3C
18
18
00
00
ENDCHAR

STARTCHAR U+16E9
ENCODING 5865
SWIDTH 500 0
DWIDTH 8 0
BBX 8 16 0 0
BITMAP
3C
3C
6C
6C
CC
CC
6C
6C
3C
3C
0C
0C
0C
0C
00
00
ENDCHAR

STARTCHAR U+16EA
ENCODING 5866
SWIDTH 500 0
DWIDTH 8 0
BBX 8 16 0 0
BITMAP
60
60
F0
F0
64
64
7C
7C
4C
4C
1E
1E
0C
0C
00
00
ENDCHAR

STARTCHAR U+16EB
ENCODING 5867
SWIDTH 500 0
DWIDTH 8 0
BBX 8 16 0 0
BITMAP
00
00
00
00
00
00
18
18
00
00
00
00
00
00
00
00
ENDCHAR

STARTCHAR U+16EC
ENCODING 5868
SWIDTH 500 0
DWIDTH 8 0
BBX 8 16 0 0
BITMAP
00
00
00
00
18
18
00
00
00
00
18
18
00
00
00
00
ENDCHAR

STARTCHAR U+16ED
ENCODING 5869
SWIDTH 500 0
DWIDTH 8 0
BBX 8 16 0 0
BITMAP
3C
3C
18
18
5A
5A
7E
7E
5A
5A
18
18
3C
3C
00
00
ENDCHAR

STARTCHAR U+16EE
ENCODING 5870
SWIDTH 500 0
DWIDTH 8 0
BBX 8 16 0 0
BITMAP
38
38
3C
3C
36
36
F0
F0
B0
B0
30
30
30
30
00
00
ENDCHAR

STARTCHAR U+16EF
ENCODING 5871
SWIDTH 500 0
DWIDTH 8 0
BBX 8 16 0 0
BITMAP
D6
D6
D6
D6
7C
7C
18
18
7C
7C
D6
D6
D6
D6
00
00
ENDCHAR

STARTCHAR U+16F0
ENCODING 5872
SWIDTH 500 0
DWIDTH 8 0
BBX 8 16 0 0
BITMAP
10
10
10
10
7C
7C
D6
D6
7C
7C
10
10
10
10
00
00
ENDCHAR

STARTCHAR U+16F1
ENCODING 5873
SWIDTH 500 0
DWIDTH 8 0
BBX 8 16 0 0
BITMAP
60
60
60
60
60
60
7C
7C
6C
6C
66
66
66
66
00
00
ENDCHAR

STARTCHAR U+16F2
ENCODING 5874
SWIDTH 500 0
DWIDTH 8 0
BBX 8 16 0 0
BITMAP
0C
0C
0C
0C
2C
2C
3C
3C
34
34
30
30
30
30
00
00
ENDCHAR

STARTCHAR U+16F3
ENCODING 5875
SWIDTH 500 0
DWIDTH 8 0
BBX 8 16 0 0
BITMAP
18
18
3C
3C
5A
5A
3C
3C
18
18
18
18
18
18
00
00
ENDCHAR

STARTCHAR U+16F4
ENCODING 5876
SWIDTH 500 0
DWIDTH 8 0
BBX 8 16 0 0
BITMAP
30
30
30
30
36
36
3C
3C
6C
6C
0C
0C
0C
0C
00
00
ENDCHAR

STARTCHAR U+16F5
ENCODING 5877
SWIDTH 500 0
DWIDTH 8 0
BBX 8 16 0 0
BITMAP
18
18
30
30
18
18
30
30
18
18
30
30
18
18
00
00
ENDCHAR

STARTCHAR U+16F6
ENCODING 5878
SWIDTH 500 0
DWIDTH 8 0
BBX 8 16 0 0
BITMAP
60
60
60
60
36
36
18
18
6C
6C
06
06
06
06
00
00
ENDCHAR

STARTCHAR U+16F7
ENCODING 5879
SWIDTH 500 0
DWIDTH 8 0
BBX 8 16 0 0
BITMAP
60
60
60
60
7C
7C
66
66
66
66
66
66
66
66
00
00
ENDCHAR

STARTCHAR U+16F8
ENCODING 5880
SWIDTH 500 0
DWIDTH 8 0
BBX 8 16 0 0
BITMAP
18
18
18
18
18
18
18
18
3C
3C
66
66
66
66
00
00
ENDCHAR

STARTCHAR U+1E00
ENCODING 7680
SWIDTH 500 0
DWIDTH 8 0
BBX 8 16 0 0
BITMAP
00
00
18
3C
66
66
66
7E
66
66
66
66
66
18
24
18
ENDCHAR

STARTCHAR U+1E01
ENCODING 7681
SWIDTH 500 0
DWIDTH 8 0
BBX 8 16 0 0
BITMAP
00
00
00
00
00
00
3C
06
3E
66
66
66
3E
18
24
18
ENDCHAR

STARTCHAR U+1E02
ENCODING 7682
SWIDTH 500 0
DWIDTH 8 0
BBX 8 16 0 0
BITMAP
18
18
00
7C
66
66
6C
78
6C
66
66
66
7C
00
00
00
ENDCHAR

STARTCHAR U+1E04
ENCODING 7684
SWIDTH 500 0
DWIDTH 8 0
BBX 8 16 0 0
BITMAP
00
00
7C
66
66
66
6C
78
6C
66
66
66
7C
00
18
18
ENDCHAR

STARTCHAR U+1E05
ENCODING 7685
SWIDTH 500 0
DWIDTH 8 0
BBX 8 16 0 0
BITMAP
00
00
60
60
60
60
7C
66
66
66
66
66
7C
00
18
18
ENDCHAR

STARTCHAR U+1E06
ENCODING 7686
SWIDTH 500 0
DWIDTH 8 0
BBX 8 16 0 0
BITMAP
00
00
7C
66
66
66
6C
78
6C
66
66
66
7C
00
7E
00
ENDCHAR

STARTCHAR U+1E07
ENCODING 7687
SWIDTH 500 0
DWIDTH 8 0
BBX 8 16 0 0
BITMAP
00
00
60
60
60
60
7C
66
66
66
66
66
7C
00
7E
00
ENDCHAR

STARTCHAR U+1E0A
ENCODING 7690
SWIDTH 500 0
DWIDTH 8 0
BBX 8 16 0 0
BITMAP
18
18
00
78
6C
66
66
66
66
66
66
6C
78
00
00
00
ENDCHAR

STARTCHAR U+1E0C
ENCODING 7692
SWIDTH 500 0
DWIDTH 8 0
BBX 8 16 0 0
BITMAP
00
00
78
6C
66
66
66
66
66
66
66
6C
78
00
18
18
ENDCHAR

STARTCHAR U+1E0D
ENCODING 7693
SWIDTH 500 0
DWIDTH 8 0
BBX 8 16 0 0
BITMAP
00
00
06
06
06
06
3E
66
66
66
66
66
3E
00
18
18
ENDCHAR

STARTCHAR U+1E0E
ENCODING 7694
SWIDTH 500 0
DWIDTH 8 0
BBX 8 16 0 0
BITMAP
00
00
78
6C
66
66
66
66
66
66
66
6C
78
00
7E
00
ENDCHAR

STARTCHAR U+1E0F
ENCODING 7695
SWIDTH 500 0
DWIDTH 8 0
BBX 8 16 0 0
BITMAP
00
00
06
06
06
06
3E
66
66
66
66
66
3E
00
7E
00
ENDCHAR

STARTCHAR U+1E41
ENCODING 7745
SWIDTH 500 0
DWIDTH 8 0
BBX 8 16 0 0
BITMAP
00
00
18
18
00
00
CC
FE
D6
D6
D6
D6
C6
00
00
00
ENDCHAR

STARTCHAR U+1E42
ENCODING 7746
SWIDTH 500 0
DWIDTH 8 0
BBX 8 16 0 0
BITMAP
00
00
C6
EE
EE
FE
D6
D6
C6
C6
C6
C6
C6
00
18
18
ENDCHAR

STARTCHAR U+1E43
ENCODING 7747
SWIDTH 500 0
DWIDTH 8 0
BBX 8 16 0 0
BITMAP
00
00
00
00
00
00
CC
FE
D6
D6
D6
D6
C6
00
18
18
ENDCHAR

STARTCHAR U+1E44
ENCODING 7748
SWIDTH 500 0
DWIDTH 8 0
BBX 8 16 0 0
BITMAP
18
18
C6
C6
E6
E6
F6
FE
DE
CE
CE
C6
C6
00
00
00
ENDCHAR

STARTCHAR U+1E45
ENCODING 7749
SWIDTH 500 0
DWIDTH 8 0
BBX 8 16 0 0
BITMAP
00
00
18
18
00
00
7C
66
66
66
66
66
66
00
00
00
ENDCHAR

STARTCHAR U+1E46
ENCODING 7750
SWIDTH 500 0
DWIDTH 8 0
BBX 8 16 0 0
BITMAP
00
00
C6
C6
E6
E6
F6
FE
DE
CE
CE
C6
C6
00
18
18
ENDCHAR

STARTCHAR U+1E47
ENCODING 7751
SWIDTH 500 0
DWIDTH 8 0
BBX 8 16 0 0
BITMAP
00
00
00
00
00
00
7C
66
66
66
66
66
66
00
18
18
ENDCHAR

STARTCHAR U+1E48
ENCODING 7752
SWIDTH 500 0
DWIDTH 8 0
BBX 8 16 0 0
BITMAP
00
00
C6
C6
E6
E6
F6
FE
DE
CE
CE
C6
C6
00
7E
00
ENDCHAR

STARTCHAR U+1E49
ENCODING 7753
SWIDTH 500 0
DWIDTH 8 0
BBX 8 16 0 0
BITMAP
00
00
00
00
00
00
7C
66
66
66
66
66
66
00
7E
00
ENDCHAR

STARTCHAR U+1E4A
ENCODING 7754
SWIDTH 500 0
DWIDTH 8 0
BBX 8 16 0 0
BITMAP
00
00
C6
C6
E6
E6
F6
FE
DE
CE
CE
C6
C6
00
66
3C
ENDCHAR

STARTCHAR U+1E4B
ENCODING 7755
SWIDTH 500 0
DWIDTH 8 0
BBX 8 16 0 0
BITMAP
00
00
00
00
00
00
7C
66
66
66
66
66
66
00
66
3C
ENDCHAR

STARTCHAR U+1E58
ENCODING 7768
SWIDTH 500 0
DWIDTH 8 0
BBX 8 16 0 0
BITMAP
18
18
00
7C
66
66
66
7C
6C
66
66
66
66
00
00
00
ENDCHAR

STARTCHAR U+1E59
ENCODING 7769
SWIDTH 500 0
DWIDTH 8 0
BBX 8 16 0 0
BITMAP
00
00
18
18
00
00
7C
66
66
60
60
60
60
00
00
00
ENDCHAR

STARTCHAR U+1E5A
ENCODING 7770
SWIDTH 500 0
DWIDTH 8 0
BBX 8 16 0 0
BITMAP
00
00
7C
66
66
66
66
7C
6C
66
66
66
66
00
18
18
ENDCHAR

STARTCHAR U+1E5B
ENCODING 7771
SWIDTH 500 0
DWIDTH 8 0
BBX 8 16 0 0
BITMAP
00
00
00
00
00
00
7C
66
66
60
60
60
60
00
18
18
ENDCHAR

STARTCHAR U+1E5E
ENCODING 7774
SWIDTH 500 0
DWIDTH 8 0
BBX 8 16 0 0
BITMAP
00
00
7C
66
66
66
66
7C
6C
66
66
66
66
00
7E
00
ENDCHAR

STARTCHAR U+2010
ENCODING 8208
SWIDTH 500 0
DWIDTH 8 0
BBX 8 16 0 0
BITMAP
00
00
00
00
00
00
00
3C
00
00
00
00
00
00
00
00
ENDCHAR

STARTCHAR U+2011
ENCODING 8209
SWIDTH 500 0
DWIDTH 8 0
BBX 8 16 0 0
BITMAP
00
00
00
00
00
00
00
3C
00
00
00
00
00
00
00
00
ENDCHAR

STARTCHAR U+2012
ENCODING 8210
SWIDTH 500 0
DWIDTH 8 0
BBX 8 16 0 0
BITMAP
00
00
00
00
00
00
00
7C
00
00
00
00
00
00
00
00
ENDCHAR

STARTCHAR U+2013
ENCODING 8211
SWIDTH 500 0
DWIDTH 8 0
BBX 8 16 0 0
BITMAP
00
00
00
00
00
00
00
FE
00
00
00
00
00
00
00
00
ENDCHAR

STARTCHAR U+2014
ENCODING 8212
SWIDTH 500 0
DWIDTH 8 0
BBX 8 16 0 0
BITMAP
00
00
00
00
00
00
00
FF
00
00
00
00
00
00
00
00
ENDCHAR

STARTCHAR U+2015
ENCODING 8213
SWIDTH 500 0
DWIDTH 8 0
BBX 8 16 0 0
BITMAP
00
00
00
00
00
00
00
FE
00
00
00
00
00
00
00
00
ENDCHAR

STARTCHAR U+2016
ENCODING 8214
SWIDTH 500 0
DWIDTH 8 0
BBX 8 16 0 0
BITMAP
6C
6C
6C
6C
6C
6C
6C
6C
6C
6C
6C
6C
6C
6C
00
00
ENDCHAR

STARTCHAR U+2017
ENCODING 8215
SWIDTH 500 0
DWIDTH 8 0
BBX 8 16 0 0
BITMAP
00
00
00
00
00
00
00
00
00
00
00
00
00
FF
00
FF
ENDCHAR

STARTCHAR U+2018
ENCODING 8216
SWIDTH 500 0
DWIDTH 8 0
BBX 8 16 0 0
BITMAP
30
18
00
00
00
00
00
00
00
00
00
00
00
00
00
00
ENDCHAR

STARTCHAR U+2019
ENCODING 8217
SWIDTH 500 0
DWIDTH 8 0
BBX 8 16 0 0
BITMAP
0C
18
00
00
00
00
00
00
00
00
00
00
00
00
00
00
ENDCHAR

STARTCHAR U+201C
ENCODING 8220
SWIDTH 500 0
DWIDTH 8 0
BBX 8 16 0 0
BITMAP
CC
66
00
00
00
00
00
00
00
00
00
00
00
00
00
00
ENDCHAR

STARTCHAR U+201D
ENCODING 8221
SWIDTH 500 0
DWIDTH 8 0
BBX 8 16 0 0
BITMAP
66
CC
00
00
00
00
00
00
00
00
00
00
00
00
00
00
ENDCHAR

STARTCHAR U+2020
ENCODING 8224
SWIDTH 500 0
DWIDTH 8 0
BBX 8 16 0 0
BITMAP
00
00
18
18
18
7E
18
18
18
18
18
18
18
00
00
00
ENDCHAR

STARTCHAR U+2021
ENCODING 8225
SWIDTH 500 0
DWIDTH 8 0
BBX 8 16 0 0
BITMAP
00
00
18
18
18
7E
18
18
18
7E
18
18
18
00
00
00
ENDCHAR

STARTCHAR U+2022
ENCODING 8226
SWIDTH 500 0
DWIDTH 8 0
BBX 8 16 0 0
BITMAP
00
00
00
00
18
18
3C
3C
3C
3C
18
18
00
00
00
00
ENDCHAR

STARTCHAR U+2024
ENCODING 8228
SWIDTH 500 0
DWIDTH 8 0
BBX 8 16 0 0
BITMAP
00
00
00
00
00
00
00
00
00
00
18
18
18
00
00
00
ENDCHAR

STARTCHAR U+2025
ENCODING 8229
SWIDTH 500 0
DWIDTH 8 0
BBX 8 16 0 0
BITMAP
00
00
00
00
00
00
00
00
00
00
66
66
66
66
00
00
ENDCHAR

STARTCHAR U+2026
ENCODING 8230
SWIDTH 500 0
DWIDTH 8 0
BBX 8 16 0 0
BITMAP
00
00
00
00
00
00
00
00
00
00
00
92
92
00
00
00
ENDCHAR

STARTCHAR U+2030
ENCODING 8240
SWIDTH 500 0
DWIDTH 8 0
BBX 8 16 0 0
BITMAP
00
00
C6
C6
CC
CC
18
18
60
60
DB
DB
DB
DB
00
00
ENDCHAR

STARTCHAR U+2031
ENCODING 8241
SWIDTH 500 0
DWIDTH 8 0
BBX 8 16 0 0
BITMAP
00
00
C6
C6
CC
CC
18
18
60
60
D5
D5
D5
D5
00
00
ENDCHAR

STARTCHAR U+203C
ENCODING 8252
SWIDTH 500 0
DWIDTH 8 0
BBX 8 16 0 0
BITMAP
66
66
66
66
66
66
66
66
66
66
00
00
66
66
00
00
ENDCHAR

STARTCHAR U+2047
ENCODING 8263
SWIDTH 500 0
DWIDTH 8 0
BBX 8 16 0 0
BITMAP
CC
CC
66
66
66
66
CC
CC
CC
CC
00
00
CC
CC
00
00
ENDCHAR

STARTCHAR U+2048
ENCODING 8264
SWIDTH 500 0
DWIDTH 8 0
BBX 8 16 0 0
BITMAP
E6
E6
36
36
36
36
66
66
C6
C6
00
00
C6
C6
00
00
ENDCHAR

STARTCHAR U+2049
ENCODING 8265
SWIDTH 500 0
DWIDTH 8 0
BBX 8 16 0 0
BITMAP
DC
DC
C6
C6
C6
C6
CC
CC
D8
D8
00
00
D8
D8
00
00
ENDCHAR

STARTCHAR U+2070
ENCODING 8304
SWIDTH 500 0
DWIDTH 8 0
BBX 8 16 0 0
BITMAP
00
38
6C
6C
6C
6C
6C
38
00
00
00
00
00
00
00
00
ENDCHAR

STARTCHAR U+2074
ENCODING 8308
SWIDTH 500 0
DWIDTH 8 0
BBX 8 16 0 0
BITMAP
00
1C
3C
6C
7E
0C
0C
0C
00
00
00
00
00
00
00
00
ENDCHAR

STARTCHAR U+2075
ENCODING 8309
SWIDTH 500 0
DWIDTH 8 0
BBX 8 16 0 0
BITMAP
00
7C
60
78
0C
0C
6C
38
00
00
00
00
00
00
00
00
ENDCHAR

STARTCHAR U+2076
ENCODING 8310
SWIDTH 500 0
DWIDTH 8 0
BBX 8 16 0 0
BITMAP
00
38
60
60
78
6C
6C
38
00
00
00
00
00
00
00
00
ENDCHAR

STARTCHAR U+2077
ENCODING 8311
SWIDTH 500 0
DWIDTH 8 0
BBX 8 16 0 0
BITMAP
00
7C
0C
0C
18
30
30
30
00
00
00
00
00
00
00
00
ENDCHAR

STARTCHAR U+2078
ENCODING 8312
SWIDTH 500 0
DWIDTH 8 0
BBX 8 16 0 0
BITMAP
00
38
6C
6C
38
6C
6C
38
00
00
00
00
00
00
00
00
ENDCHAR

STARTCHAR U+2079
ENCODING 8313
SWIDTH 500 0
DWIDTH 8 0
BBX 8 16 0 0
BITMAP
00
38
6C
6C
3C
0C
0C
38
00
00
00
00
00
00
00
00
ENDCHAR

STARTCHAR U+207F
ENCODING 8319
SWIDTH 500 0
DWIDTH 8 0
BBX 8 16 0 0
BITMAP
00
00
00
78
6C
6C
6C
6C
00
00
00
00
00
00
00
00
ENDCHAR

STARTCHAR U+20A7
ENCODING 8359
SWIDTH 500 0
DWIDTH 8 0
BBX 8 16 0 0
BITMAP
00
FC
66
66
7C
62
66
6F
66
66
66
F3
00
00
00
00
ENDCHAR

STARTCHAR U+20AC
ENCODING 8364
SWIDTH 500 0
DWIDTH 8 0
BBX 8 16 0 0
BITMAP
00
00
3C
66
66
60
FC
60
F8
60
66
66
3C
00
00
00
ENDCHAR

STARTCHAR U+2117
ENCODING 8471
SWIDTH 500 0
DWIDTH 8 0
BBX 8 16 0 0
BITMAP
7E
7E
81
81
B9
B9
A5
A5
B9
B9
A1
A1
81
81
7E
7E
ENDCHAR

STARTCHAR U+2120
ENCODING 8480
SWIDTH 500 0
DWIDTH 8 0
BBX 8 16 0 0
BITMAP
00
6A
8E
8E
4A
2A
2A
CA
00
00
00
00
00
00
00
00
ENDCHAR

STARTCHAR U+2122
ENCODING 8482
SWIDTH 500 0
DWIDTH 8 0
BBX 8 16 0 0
BITMAP
00
EA
4E
4E
4A
4A
4A
4A
00
00
00
00
00
00
00
00
ENDCHAR

STARTCHAR U+2190
ENCODING 8592
SWIDTH 500 0
DWIDTH 8 0
BBX 8 16 0 0
BITMAP
00
00
00
00
00
10
30
7F
7F
30
10
00
00
00
00
00
ENDCHAR

STARTCHAR U+2191
ENCODING 8593
SWIDTH 500 0
DWIDTH 8 0
BBX 8 16 0 0
BITMAP
18
3C
7E
18
18
18
18
18
18
18
18
18
18
18
18
18
ENDCHAR

STARTCHAR U+2192
ENCODING 8594
SWIDTH 500 0
DWIDTH 8 0
BBX 8 16 0 0
BITMAP
00
00
00
00
00
08
0C
FE
FE
0C
08
00
00
00
00
00
ENDCHAR

STARTCHAR U+2194
ENCODING 8596
SWIDTH 500 0
DWIDTH 8 0
BBX 8 16 0 0
BITMAP
00
00
00
00
00
24
66
FF
FF
66
24
00
00
00
00
00
ENDCHAR

STARTCHAR U+2196
ENCODING 8598
SWIDTH 500 0
DWIDTH 8 0
BBX 8 16 0 0
BITMAP
F0
F0
E0
E0
F0
F0
B8
B8
1C
1C
0E
0E
04
04
00
00
ENDCHAR

STARTCHAR U+2197
ENCODING 8599
SWIDTH 500 0
DWIDTH 8 0
BBX 8 16 0 0
BITMAP
0F
0F
07
07
0F
0F
1D
1D
38
38
70
70
20
20
00
00
ENDCHAR

STARTCHAR U+2198
ENCODING 8600
SWIDTH 500 0
DWIDTH 8 0
BBX 8 16 0 0
BITMAP
00
00
20
20
70
70
38
38
1D
1D
0F
0F
07
07
0F
0F
ENDCHAR

STARTCHAR U+2199
ENCODING 8601
SWIDTH 500 0
DWIDTH 8 0
BBX 8 16 0 0
BITMAP
00
00
04
04
0E
0E
1C
1C
B8
B8
F0
F0
E0
E0
F0
F0
ENDCHAR

STARTCHAR U+21A5
ENCODING 8613
SWIDTH 500 0
DWIDTH 8 0
BBX 8 16 0 0
BITMAP
18
3C
7E
18
18
18
18
18
18
18
18
18
18
7E
3C
18
ENDCHAR

STARTCHAR U+21A8
ENCODING 8616
SWIDTH 500 0
DWIDTH 8 0
BBX 8 16 0 0
BITMAP
18
3C
7E
18
18
18
18
18
18
18
18
18
7E
3C
18
FF
ENDCHAR

STARTCHAR U+21E6
ENCODING 8678
SWIDTH 500 0
DWIDTH 8 0
BBX 8 16 0 0
BITMAP
18
18
38
38
6F
6F
C1
C1
C1
C1
6F
6F
38
38
18
18
ENDCHAR

STARTCHAR U+21E7
ENCODING 8679
SWIDTH 500 0
DWIDTH 8 0
BBX 8 16 0 0
BITMAP
18
18
3C
3C
66
66
C3
C3
E7
E7
24
24
24
24
3C
3C
ENDCHAR

STARTCHAR U+21E8
ENCODING 8680
SWIDTH 500 0
DWIDTH 8 0
BBX 8 16 0 0
BITMAP
18
18
1C
1C
F6
F6
83
83
83
83
F6
F6
1C
1C
18
18
ENDCHAR

STARTCHAR U+21E9
ENCODING 8681
SWIDTH 500 0
DWIDTH 8 0
BBX 8 16 0 0
BITMAP
3C
3C
24
24
24
24
E7
E7
C3
C3
66
66
3C
3C
18
18
ENDCHAR

STARTCHAR U+2212
ENCODING 8722
SWIDTH 500 0
DWIDTH 8 0
BBX 8 16 0 0
BITMAP
00
00
00
00
00
00
00
7E
00
00
00
00
00
00
00
00
ENDCHAR

STARTCHAR U+2218
ENCODING 8728
SWIDTH 500 0
DWIDTH 8 0
BBX 8 16 0 0
BITMAP
00
00
00
00
3C
3C
66
66
66
66
3C
3C
00
00
00
00
ENDCHAR

STARTCHAR U+221A
ENCODING 8730
SWIDTH 500 0
DWIDTH 8 0
BBX 8 16 0 0
BITMAP
00
03
03
06
06
06
06
06
CC
CC
6C
38
18
00
00
00
ENDCHAR

STARTCHAR U+221E
ENCODING 8734
SWIDTH 500 0
DWIDTH 8 0
BBX 8 16 0 0
BITMAP
00
00
00
00
00
76
DB
DB
DB
6E
00
00
00
00
00
00
ENDCHAR

STARTCHAR U+221F
ENCODING 8735
SWIDTH 500 0
DWIDTH 8 0
BBX 8 16 0 0
BITMAP
00
00
00
00
00
00
FE
06
06
06
06
00
00
00
00
00
ENDCHAR

STARTCHAR U+2229
ENCODING 8745
SWIDTH 500 0
DWIDTH 8 0
BBX 8 16 0 0
BITMAP
00
00
00
3C
66
66
66
66
66
66
66
66
00
00
00
00
ENDCHAR

STARTCHAR U+2248
ENCODING 8776
SWIDTH 500 0
DWIDTH 8 0
BBX 8 16 0 0
BITMAP
00
00
00
00
72
D6
9C
00
72
D6
9C
00
00
00
00
00
ENDCHAR

STARTCHAR U+2261
ENCODING 8801
SWIDTH 500 0
DWIDTH 8 0
BBX 8 16 0 0
BITMAP
00
00
00
00
7E
00
00
7E
00
00
7E
00
00
00
00
00
ENDCHAR

STARTCHAR U+2264
ENCODING 8804
SWIDTH 500 0
DWIDTH 8 0
BBX 8 16 0 0
BITMAP
00
00
00
00
0C
18
30
60
30
18
0C
00
7E
00
00
00
ENDCHAR

STARTCHAR U+2265
ENCODING 8805
SWIDTH 500 0
DWIDTH 8 0
BBX 8 16 0 0
BITMAP
00
00
00
00
30
18
0C
06
0C
18
30
00
7E
00
00
00
ENDCHAR

STARTCHAR U+22C5
ENCODING 8901
SWIDTH 500 0
DWIDTH 8 0
BBX 8 16 0 0
BITMAP
00
00
00
00
18
18
18
18
00
00
00
00
00
00
00
00
ENDCHAR

STARTCHAR U+2320
ENCODING 8992
SWIDTH 500 0
DWIDTH 8 0
BBX 8 16 0 0
BITMAP
00
00
0E
1B
1B
1B
18
18
18
18
18
18
18
18
18
18
ENDCHAR

STARTCHAR U+2321
ENCODING 8993
SWIDTH 500 0
DWIDTH 8 0
BBX 8 16 0 0
BITMAP
18
18
18
18
18
18
18
18
18
D8
D8
D8
70
00
00
00
ENDCHAR

STARTCHAR U+23EA
ENCODING 9194
SWIDTH 500 0
DWIDTH 8 0
BBX 8 16 0 0
BITMAP
00
00
00
00
22
22
66
66
EE
EE
66
66
22
22
00
00
ENDCHAR

STARTCHAR U+23EB
ENCODING 9195
SWIDTH 500 0
DWIDTH 8 0
BBX 8 16 0 0
BITMAP
10
10
38
38
7C
7C
00
00
10
10
38
38
7C
7C
00
00
ENDCHAR

STARTCHAR U+23EC
ENCODING 9196
SWIDTH 500 0
DWIDTH 8 0
BBX 8 16 0 0
BITMAP
00
00
00
00
88
88
CC
CC
EE
EE
CC
CC
88
88
00
00
ENDCHAR

STARTCHAR U+2500
ENCODING 9472
SWIDTH 500 0
DWIDTH 8 0
BBX 8 16 0 0
BITMAP
00
00
00
00
00
00
00
FF
FF
00
00
00
00
00
00
00
ENDCHAR

STARTCHAR U+2501
ENCODING 9473
SWIDTH 500 0
DWIDTH 8 0
BBX 8 16 0 0
BITMAP
00
00
00
00
00
00
FF
FF
FF
FF
00
00
00
00
00
00
ENDCHAR

STARTCHAR U+2502
ENCODING 9474
SWIDTH 500 0
DWIDTH 8 0
BBX 8 16 0 0
BITMAP
18
18
18
18
18
18
18
18
18
18
18
18
18
18
18
18
ENDCHAR

STARTCHAR U+2503
ENCODING 9475
SWIDTH 500 0
DWIDTH 8 0
BBX 8 16 0 0
BITMAP
3C
3C
3C
3C
3C
3C
3C
3C
3C
3C
3C
3C
3C
3C
3C
3C
ENDCHAR

STARTCHAR U+2504
ENCODING 9476
SWIDTH 500 0
DWIDTH 8 0
BBX 8 16 0 0
BITMAP
00
00
00
00
00
00
00
DB
DB
00
00
00
00
00
00
00
ENDCHAR

STARTCHAR U+2505
ENCODING 9477
SWIDTH 500 0
DWIDTH 8 0
BBX 8 16 0 0
BITMAP
00
00
00
00
00
00
DB
DB
DB
DB
00
00
00
00
00
00
ENDCHAR

STARTCHAR U+2506
ENCODING 9478
SWIDTH 500 0
DWIDTH 8 0
BBX 8 16 0 0
BITMAP
18
18
00
18
18
00
18
18
00
18
18
00
18
18
00
18
ENDCHAR

STARTCHAR U+2507
ENCODING 9479
SWIDTH 500 0
DWIDTH 8 0
BBX 8 16 0 0
BITMAP
3C
3C
3C
3C
00
00
3C
3C
3C
3C
3C
3C
00
00
3C
3C
ENDCHAR

STARTCHAR U+2508
ENCODING 9480
SWIDTH 500 0
DWIDTH 8 0
BBX 8 16 0 0
BITMAP
00
00
00
00
00
00
00
AA
AA
00
00
00
00
00
00
00
ENDCHAR

STARTCHAR U+2509
ENCODING 9481
SWIDTH 500 0
DWIDTH 8 0
BBX 8 16 0 0
BITMAP
00
00
00
00
00
00
AA
AA
AA
AA
00
00
00
00
00
00
ENDCHAR

STARTCHAR U+250A
ENCODING 9482
SWIDTH 500 0
DWIDTH 8 0
BBX 8 16 0 0
BITMAP
18
00
18
00
18
00
18
00
18
00
18
00
18
00
18
00
ENDCHAR

STARTCHAR U+250B
ENCODING 9483
SWIDTH 500 0
DWIDTH 8 0
BBX 8 16 0 0
BITMAP
3C
00
3C
00
3C
00
3C
00
3C
00
3C
00
3C
00
3C
00
ENDCHAR

STARTCHAR U+250C
ENCODING 9484
SWIDTH 500 0
DWIDTH 8 0
BBX 8 16 0 0
BITMAP
00
00
00
00
00
00
00
1F
1F
18
18
18
18
18
18
18
ENDCHAR

STARTCHAR U+250D
ENCODING 9485
SWIDTH 500 0
DWIDTH 8 0
BBX 8 16 0 0
BITMAP
00
00
00
00
00
00
0F
0F
1F
1F
18
18
18
18
18
18
ENDCHAR

STARTCHAR U+250E
ENCODING 9486
SWIDTH 500 0
DWIDTH 8 0
BBX 8 16 0 0
BITMAP
00
00
00
00
00
00
3C
3F
3F
3C
3C
3C
3C
3C
3C
3C
ENDCHAR

STARTCHAR U+250F
ENCODING 9487
SWIDTH 500 0
DWIDTH 8 0
BBX 8 16 0 0
BITMAP
00
00
00
00
00
00
3F
3F
3F
3F
3C
3C
3C
3C
3C
3C
ENDCHAR

STARTCHAR U+2510
ENCODING 9488
SWIDTH 500 0
DWIDTH 8 0
BBX 8 16 0 0
BITMAP
00
00
00
00
00
00
00
F8
F8
18
18
18
18
18
18
18
ENDCHAR

STARTCHAR U+2511
ENCODING 9489
SWIDTH 500 0
DWIDTH 8 0
BBX 8 16 0 0
BITMAP
00
00
00
00
00
00
F8
F8
F8
F8
18
18
18
18
18
18
ENDCHAR

STARTCHAR U+2512
ENCODING 9490
SWIDTH 500 0
DWIDTH 8 0
BBX 8 16 0 0
BITMAP
00
00
00
00
00
00
3C
FC
FC
3C
3C
3C
3C
3C
3C
3C
ENDCHAR

STARTCHAR U+2513
ENCODING 9491
SWIDTH 500 0
DWIDTH 8 0
BBX 8 16 0 0
BITMAP
00
00
00
00
00
00
FC
FC
FC
FC
3C
3C
3C
3C
3C
3C
ENDCHAR

STARTCHAR U+2514
ENCODING 9492
SWIDTH 500 0
DWIDTH 8 0
BBX 8 16 0 0
BITMAP
18
18
18
18
18
18
18
1F
1F
00
00
00
00
00
00
00
ENDCHAR

STARTCHAR U+2515
ENCODING 9493
SWIDTH 500 0
DWIDTH 8 0
BBX 8 16 0 0
BITMAP
18
18
18
18
18
18
1F
1F
0F
0F
00
00
00
00
00
00
ENDCHAR

STARTCHAR U+2516
ENCODING 9494
SWIDTH 500 0
DWIDTH 8 0
BBX 8 16 0 0
BITMAP
3C
3C
3C
3C
3C
3C
3C
3F
1F
00
00
00
00
00
00
00
ENDCHAR

STARTCHAR U+2517
ENCODING 9495
SWIDTH 500 0
DWIDTH 8 0
BBX 8 16 0 0
BITMAP
3C
3C
3C
3C
3C
3C
3F
3F
0F
0F
00
00
00
00
00
00
ENDCHAR

STARTCHAR U+2518
ENCODING 9496
SWIDTH 500 0
DWIDTH 8 0
BBX 8 16 0 0
BITMAP
18
18
18
18
18
18
18
F8
F8
00
00
00
00
00
00
00
ENDCHAR

STARTCHAR U+2519
ENCODING 9497
SWIDTH 500 0
DWIDTH 8 0
BBX 8 16 0 0
BITMAP
18
18
18
18
18
18
F8
F8
F8
F8
00
00
00
00
00
00
ENDCHAR

STARTCHAR U+251A
ENCODING 9498
SWIDTH 500 0
DWIDTH 8 0
BBX 8 16 0 0
BITMAP
3C
3C
3C
3C
3C
3C
3C
FC
F8
00
00
00
00
00
00
00
ENDCHAR

STARTCHAR U+251B
ENCODING 9499
SWIDTH 500 0
DWIDTH 8 0
BBX 8 16 0 0
BITMAP
3C
3C
3C
3C
3C
3C
FC
FC
F8
F8
00
00
00
00
00
00
ENDCHAR

STARTCHAR U+251C
ENCODING 9500
SWIDTH 500 0
DWIDTH 8 0
BBX 8 16 0 0
BITMAP
18
18
18
18
18
18
18
1F
1F
18
18
18
18
18
18
18
ENDCHAR

STARTCHAR U+251D
ENCODING 9501
SWIDTH 500 0
DWIDTH 8 0
BBX 8 16 0 0
BITMAP
18
18
18
18
18
18
1F
1F
1F
1F
18
18
18
18
18
18
ENDCHAR

STARTCHAR U+251E
ENCODING 9502
SWIDTH 500 0
DWIDTH 8 0
BBX 8 16 0 0
BITMAP
3C
3C
3C
3C
3C
3C
3C
3F
1F
18
18
18
18
18
18
18
ENDCHAR

STARTCHAR U+251F
ENCODING 9503
SWIDTH 500 0
DWIDTH 8 0
BBX 8 16 0 0
BITMAP
18
18
18
18
18
18
3F
3F
3F
3F
3C
3C
3C
3C
3C
3C
ENDCHAR

STARTCHAR U+2520
ENCODING 9504
SWIDTH 500 0
DWIDTH 8 0
BBX 8 16 0 0
BITMAP
3C
3C
3C
3C
3C
3C
3C
3F
3F
3C
3C
3C
3C
3C
3C
3C
ENDCHAR

STARTCHAR U+2521
ENCODING 9505
SWIDTH 500 0
DWIDTH 8 0
BBX 8 16 0 0
BITMAP
3C
3C
3C
3C
3C
3C
3F
3F
1F
1F
18
18
18
18
18
18
ENDCHAR

STARTCHAR U+2522
ENCODING 9506
SWIDTH 500 0
DWIDTH 8 0
BBX 8 16 0 0
BITMAP
18
18
18
18
18
18
3C
3F
3F
3C
3C
3C
3C
3C
3C
3C
ENDCHAR

STARTCHAR U+2523
ENCODING 9507
SWIDTH 500 0
DWIDTH 8 0
BBX 8 16 0 0
BITMAP
3C
3C
3C
3C
3C
3C
3F
3F
3F
3F
3C
3C
3C
3C
3C
3C
ENDCHAR

STARTCHAR U+2524
ENCODING 9508
SWIDTH 500 0
DWIDTH 8 0
BBX 8 16 0 0
BITMAP
18
18
18
18
18
18
18
F8
F8
18
18
18
18
18
18
18
ENDCHAR

STARTCHAR U+2525
ENCODING 9509
SWIDTH 500 0
DWIDTH 8 0
BBX 8 16 0 0
BITMAP
18
18
18
18
18
18
F8
F8
F8
F8
18
18
18
18
18
18
ENDCHAR

STARTCHAR U+2526
ENCODING 9510
SWIDTH 500 0
DWIDTH 8 0
BBX 8 16 0 0
BITMAP
3C
3C
3C
3C
3C
3C
3C
FC
F8
18
18
18
18
18
18
18
ENDCHAR

STARTCHAR U+2527
ENCODING 9511
SWIDTH 500 0
DWIDTH 8 0
BBX 8 16 0 0
BITMAP
18
18
18
18
18
18
FC
FC
FC
FC
3C
3C
3C
3C
3C
3C
ENDCHAR

STARTCHAR U+2528
ENCODING 9512
SWIDTH 500 0
DWIDTH 8 0
BBX 8 16 0 0
BITMAP
3C
3C
3C
3C
3C
3C
3C
FC
FC
3C
3C
3C
3C
3C
3C
3C
ENDCHAR

STARTCHAR U+2529
ENCODING 9513
SWIDTH 500 0
DWIDTH 8 0
BBX 8 16 0 0
BITMAP
3C
3C
3C
3C
3C
3C
FC
FC
F8
F8
18
18
18
18
18
18
ENDCHAR

STARTCHAR U+252A
ENCODING 9514
SWIDTH 500 0
DWIDTH 8 0
BBX 8 16 0 0
BITMAP
18
18
18
18
18
18
3C
FC
FC
3C
3C
3C
3C
3C
3C
3C
ENDCHAR

STARTCHAR U+252B
ENCODING 9515
SWIDTH 500 0
DWIDTH 8 0
BBX 8 16 0 0
BITMAP
3C
3C
3C
3C
3C
3C
FC
FC
FC
FC
3C
3C
3C
3C
3C
3C
ENDCHAR

STARTCHAR U+252C
ENCODING 9516
SWIDTH 500 0
DWIDTH 8 0
BBX 8 16 0 0
BITMAP
00
00
00
00
00
00
00
FF
FF
18
18
18
18
18
18
18
ENDCHAR

STARTCHAR U+252D
ENCODING 9517
SWIDTH 500 0
DWIDTH 8 0
BBX 8 16 0 0
BITMAP
00
00
00
00
00
00
F8
FF
FF
F8
18
18
18
18
18
18
ENDCHAR

STARTCHAR U+252E
ENCODING 9518
SWIDTH 500 0
DWIDTH 8 0
BBX 8 16 0 0
BITMAP
00
00
00
00
00
00
0F
FF
FF
1F
18
18
18
18
18
18
ENDCHAR

STARTCHAR U+252F
ENCODING 9519
SWIDTH 500 0
DWIDTH 8 0
BBX 8 16 0 0
BITMAP
00
00
00
00
00
00
FF
FF
FF
FF
18
18
18
18
18
18
ENDCHAR

STARTCHAR U+2530
ENCODING 9520
SWIDTH 500 0
DWIDTH 8 0
BBX 8 16 0 0
BITMAP
00
00
00
00
00
00
3C
FF
FF
3C
3C
3C
3C
3C
3C
3C
ENDCHAR

STARTCHAR U+2531
ENCODING 9521
SWIDTH 500 0
DWIDTH 8 0
BBX 8 16 0 0
BITMAP
00
00
00
00
00
00
FC
FF
FF
FC
3C
3C
3C
3C
3C
3C
ENDCHAR

STARTCHAR U+2532
ENCODING 9522
SWIDTH 500 0
DWIDTH 8 0
BBX 8 16 0 0
BITMAP
00
00
00
00
00
00
3F
FF
FF
3F
3C
3C
3C
3C
3C
3C
ENDCHAR

STARTCHAR U+2533
ENCODING 9523
SWIDTH 500 0
DWIDTH 8 0
BBX 8 16 0 0
BITMAP
00
00
00
00
00
00
FF
FF
FF
FF
3C
3C
3C
3C
3C
3C
ENDCHAR

STARTCHAR U+2534
ENCODING 9524
SWIDTH 500 0
DWIDTH 8 0
BBX 8 16 0 0
BITMAP
18
18
18
18
18
18
18
FF
FF
00
00
00
00
00
00
00
ENDCHAR

STARTCHAR U+2535
ENCODING 9525
SWIDTH 500 0
DWIDTH 8 0
BBX 8 16 0 0
BITMAP
18
18
18
18
18
18
F8
FF
FF
F8
00
00
00
00
00
00
ENDCHAR

STARTCHAR U+2536
ENCODING 9526
SWIDTH 500 0
DWIDTH 8 0
BBX 8 16 0 0
BITMAP
18
18
18
18
18
18
1F
FF
FF
0F
00
00
00
00
00
00
ENDCHAR

STARTCHAR U+2537
ENCODING 9527
SWIDTH 500 0
DWIDTH 8 0
BBX 8 16 0 0
BITMAP
18
18
18
18
18
18
FF
FF
FF
FF
00
00
00
00
00
00
ENDCHAR

STARTCHAR U+2538
ENCODING 9528
SWIDTH 500 0
DWIDTH 8 0
BBX 8 16 0 0
BITMAP
3C
3C
3C
3C
3C
3C
3C
FF
FF
00
00
00
00
00
00
00
ENDCHAR

STARTCHAR U+2539
ENCODING 9529
SWIDTH 500 0
DWIDTH 8 0
BBX 8 16 0 0
BITMAP
3C
3C
3C
3C
3C
3C
FC
FF
FF
F8
00
00
00
00
00
00
ENDCHAR

STARTCHAR U+253A
ENCODING 9530
SWIDTH 500 0
DWIDTH 8 0
BBX 8 16 0 0
BITMAP
3C
3C
3C
3C
3C
3C
3F
FF
FF
0F
00
00
00
00
00
00
ENDCHAR

STARTCHAR U+253B
ENCODING 9531
SWIDTH 500 0
DWIDTH 8 0
BBX 8 16 0 0
BITMAP
3C
3C
3C
3C
3C
3C
FF
FF
FF
FF
00
00
00
00
00
00
ENDCHAR

STARTCHAR U+253C
ENCODING 9532
SWIDTH 500 0
DWIDTH 8 0
BBX 8 16 0 0
BITMAP
18
18
18
18
18
18
18
FF
FF
18
18
18
18
18
18
18
ENDCHAR

STARTCHAR U+253D
ENCODING 9533
SWIDTH 500 0
DWIDTH 8 0
BBX 8 16 0 0
BITMAP
18
18
18
18
18
18
F8
FF
FF
F8
18
18
18
18
18
18
ENDCHAR

STARTCHAR U+253E
ENCODING 9534
SWIDTH 500 0
DWIDTH 8 0
BBX 8 16 0 0
BITMAP
18
18
18
18
18
18
1F
FF
FF
1F
18
18
18
18
18
18
ENDCHAR

STARTCHAR U+253F
ENCODING 9535
SWIDTH 500 0
DWIDTH 8 0
BBX 8 16 0 0
BITMAP
18
18
18
18
18
18
FF
FF
FF
FF
18
18
18
18
18
18
ENDCHAR

STARTCHAR U+2540
ENCODING 9536
SWIDTH 500 0
DWIDTH 8 0
BBX 8 16 0 0
BITMAP
3C
3C
3C
3C
3C
3C
3C
FF
FF
18
18
18
18
18
18
18
ENDCHAR

STARTCHAR U+2541
ENCODING 9537
SWIDTH 500 0
DWIDTH 8 0
BBX 8 16 0 0
BITMAP
18
18
18
18
18
18
3C
FF
FF
3C
3C
3C
3C
3C
3C
3C
ENDCHAR

STARTCHAR U+2542
ENCODING 9538
SWIDTH 500 0
DWIDTH 8 0
BBX 8 16 0 0
BITMAP
3C
3C
3C
3C
3C
3C
3C
FF
FF
3C
3C
3C
3C
3C
3C
3C
ENDCHAR

STARTCHAR U+2543
ENCODING 9539
SWIDTH 500 0
DWIDTH 8 0
BBX 8 16 0 0
BITMAP
3C
3C
3C
3C
3C
3C
FC
FF
FF
F8
18
18
18
18
18
18
ENDCHAR

STARTCHAR U+2544
ENCODING 9540
SWIDTH 500 0
DWIDTH 8 0
BBX 8 16 0 0
BITMAP
3C
3C
3C
3C
3C
3C
3F
FF
FF
1F
18
18
18
18
18
18
ENDCHAR

STARTCHAR U+2545
ENCODING 9541
SWIDTH 500 0
DWIDTH 8 0
BBX 8 16 0 0
BITMAP
18
18
18
18
18
18
FC
FF
FF
FC
3C
3C
3C
3C
3C
3C
ENDCHAR

STARTCHAR U+2546
ENCODING 9542
SWIDTH 500 0
DWIDTH 8 0
BBX 8 16 0 0
BITMAP
18
18
18
18
18
18
3F
FF
FF
3F
3C
3C
3C
3C
3C
3C
ENDCHAR

STARTCHAR U+2547
ENCODING 9543
SWIDTH 500 0
DWIDTH 8 0
BBX 8 16 0 0
BITMAP
3C
3C
3C
3C
3C
3C
FF
FF
FF
FF
18
18
18
18
18
18
ENDCHAR

STARTCHAR U+2548
ENCODING 9544
SWIDTH 500 0
DWIDTH 8 0
BBX 8 16 0 0
BITMAP
18
18
18
18
18
18
FF
FF
FF
FF
3C
3C
3C
3C
3C
3C
ENDCHAR

STARTCHAR U+2549
ENCODING 9545
SWIDTH 500 0
DWIDTH 8 0
BBX 8 16 0 0
BITMAP
3C
3C
3C
3C
3C
3C
FC
FF
FF
FC
3C
3C
3C
3C
3C
3C
ENDCHAR

STARTCHAR U+254A
ENCODING 9546
SWIDTH 500 0
DWIDTH 8 0
BBX 8 16 0 0
BITMAP
3C
3C
3C
3C
3C
3C
3F
FF
FF
3F
3C
3C
3C
3C
3C
3C
ENDCHAR

STARTCHAR U+254B
ENCODING 9547
SWIDTH 500 0
DWIDTH 8 0
BBX 8 16 0 0
BITMAP
3C
3C
3C
3C
3C
3C
FF
FF
FF
FF
3C
3C
3C
3C
3C
3C
ENDCHAR

STARTCHAR U+254C
ENCODING 9548
SWIDTH 500 0
DWIDTH 8 0
BBX 8 16 0 0
BITMAP
00
00
00
00
00
00
00
EE
EE
00
00
00
00
00
00
00
ENDCHAR

STARTCHAR U+254D
ENCODING 9549
SWIDTH 500 0
DWIDTH 8 0
BBX 8 16 0 0
BITMAP
00
00
00
00
00
00
EE
EE
EE
EE
00
00
00
00
00
00
ENDCHAR

STARTCHAR U+254E
ENCODING 9550
SWIDTH 500 0
DWIDTH 8 0
BBX 8 16 0 0
BITMAP
18
18
18
00
18
18
18
00
18
18
18
00
18
18
18
00
ENDCHAR

STARTCHAR U+254F
ENCODING 9551
SWIDTH 500 0
DWIDTH 8 0
BBX 8 16 0 0
BITMAP
3C
3C
3C
00
3C
3C
3C
00
3C
3C
3C
00
3C
3C
3C
00
ENDCHAR

STARTCHAR U+2550
ENCODING 9552
SWIDTH 500 0
DWIDTH 8 0
BBX 8 16 0 0
BITMAP
00
00
00
00
00
00
FF
00
FF
00
00
00
00
00
00
00
ENDCHAR

STARTCHAR U+2551
ENCODING 9553
SWIDTH 500 0
DWIDTH 8 0
BBX 8 16 0 0
BITMAP
6C
6C
6C
6C
6C
6C
6C
6C
6C
6C
6C
6C
6C
6C
6C
6C
ENDCHAR

STARTCHAR U+2552
ENCODING 9554
SWIDTH 500 0
DWIDTH 8 0
BBX 8 16 0 0
BITMAP
00
00
00
00
00
00
1F
18
1F
18
18
18
18
18
18
18
ENDCHAR

STARTCHAR U+2553
ENCODING 9555
SWIDTH 500 0
DWIDTH 8 0
BBX 8 16 0 0
BITMAP
00
00
00
00
00
00
00
7F
7F
6C
6C
6C
6C
6C
6C
6C
ENDCHAR

STARTCHAR U+2554
ENCODING 9556
SWIDTH 500 0
DWIDTH 8 0
BBX 8 16 0 0
BITMAP
00
00
00
00
00
00
7F
60
6F
6C
6C
6C
6C
6C
6C
6C
ENDCHAR

STARTCHAR U+2555
ENCODING 9557
SWIDTH 500 0
DWIDTH 8 0
BBX 8 16 0 0
BITMAP
00
00
00
00
00
00
F8
18
F8
18
18
18
18
18
18
18
ENDCHAR

STARTCHAR U+2556
ENCODING 9558
SWIDTH 500 0
DWIDTH 8 0
BBX 8 16 0 0
BITMAP
00
00
00
00
00
00
00
FC
FC
6C
6C
6C
6C
6C
6C
6C
ENDCHAR

STARTCHAR U+2557
ENCODING 9559
SWIDTH 500 0
DWIDTH 8 0
BBX 8 16 0 0
BITMAP
00
00
00
00
00
00
FC
0C
EC
6C
6C
6C
6C
6C
6C
6C
ENDCHAR

STARTCHAR U+2558
ENCODING 9560
SWIDTH 500 0
DWIDTH 8 0
BBX 8 16 0 0
BITMAP
18
18
18
18
18
18
1F
18
1F
00
00
00
00
00
00
00
ENDCHAR

STARTCHAR U+2559
ENCODING 9561
SWIDTH 500 0
DWIDTH 8 0
BBX 8 16 0 0
BITMAP
6C
6C
6C
6C
6C
6C
7F
7F
00
00
00
00
00
00
00
00
ENDCHAR

STARTCHAR U+255A
ENCODING 9562
SWIDTH 500 0
DWIDTH 8 0
BBX 8 16 0 0
BITMAP
6C
6C
6C
6C
6C
6C
6F
60
7F
00
00
00
00
00
00
00
ENDCHAR

STARTCHAR U+255B
ENCODING 9563
SWIDTH 500 0
DWIDTH 8 0
BBX 8 16 0 0
BITMAP
18
18
18
18
18
18
F8
18
F8
00
00
00
00
00
00
00
ENDCHAR

STARTCHAR U+255C
ENCODING 9564
SWIDTH 500 0
DWIDTH 8 0
BBX 8 16 0 0
BITMAP
6C
6C
6C
6C
6C
6C
FC
FC
00
00
00
00
00
00
00
00
ENDCHAR

STARTCHAR U+255D
ENCODING 9565
SWIDTH 500 0
DWIDTH 8 0
BBX 8 16 0 0
BITMAP
6C
6C
6C
6C
6C
6C
EC
0C
FC
00
00
00
00
00
00
00
ENDCHAR

STARTCHAR U+255E
ENCODING 9566
SWIDTH 500 0
DWIDTH 8 0
BBX 8 16 0 0
BITMAP
18
18
18
18
18
18
1F
18
1F
18
18
18
18
18
18
18
ENDCHAR

STARTCHAR U+255F
ENCODING 9567
SWIDTH 500 0
DWIDTH 8 0
BBX 8 16 0 0
BITMAP
6C
6C
6C
6C
6C
6C
6C
6F
6F
6C
6C
6C
6C
6C
6C
6C
ENDCHAR

STARTCHAR U+2560
ENCODING 9568
SWIDTH 500 0
DWIDTH 8 0
BBX 8 16 0 0
BITMAP
6C
6C
6C
6C
6C
6C
6F
60
6F
6C
6C
6C
6C
6C
6C
6C
ENDCHAR

STARTCHAR U+2561
ENCODING 9569
SWIDTH 500 0
DWIDTH 8 0
BBX 8 16 0 0
BITMAP
18
18
18
18
18
18
F8
18
F8
18
18
18
18
18
18
18
ENDCHAR

STARTCHAR U+2562
ENCODING 9570
SWIDTH 500 0
DWIDTH 8 0
BBX 8 16 0 0
BITMAP
6C
6C
6C
6C
6C
6C
6C
EC
EC
6C
6C
6C
6C
6C
6C
6C
ENDCHAR

STARTCHAR U+2563
ENCODING 9571
SWIDTH 500 0
DWIDTH 8 0
BBX 8 16 0 0
BITMAP
6C
6C
6C
6C
6C
6C
EC
0C
EC
6C
6C
6C
6C
6C
6C
6C
ENDCHAR

STARTCHAR U+2564
ENCODING 9572
SWIDTH 500 0
DWIDTH 8 0
BBX 8 16 0 0
BITMAP
00
00
00
00
00
00
FF
00
FF
18
18
18
18
18
18
18
ENDCHAR

STARTCHAR U+2565
ENCODING 9573
SWIDTH 500 0
DWIDTH 8 0
BBX 8 16 0 0
BITMAP
00
00
00
00
00
00
00
FF
FF
6C
6C
6C
6C
6C
6C
6C
ENDCHAR

STARTCHAR U+2566
ENCODING 9574
SWIDTH 500 0
DWIDTH 8 0
BBX 8 16 0 0
BITMAP
00
00
00
00
00
00
FF
00
EF
6C
6C
6C
6C
6C
6C
6C
ENDCHAR

STARTCHAR U+2567
ENCODING 9575
SWIDTH 500 0
DWIDTH 8 0
BBX 8 16 0 0
BITMAP
18
18
18
18
18
18
FF
00
FF
00
00
00
00
00
00
00
ENDCHAR

STARTCHAR U+2568
ENCODING 9576
SWIDTH 500 0
DWIDTH 8 0
BBX 8 16 0 0
BITMAP
18
18
18
18
18
18
1F
FF
FF
00
00
00
00
00
00
00
ENDCHAR

STARTCHAR U+2569
ENCODING 9577
SWIDTH 500 0
DWIDTH 8 0
BBX 8 16 0 0
BITMAP
6C
6C
6C
6C
6C
6C
EF
00
FF
00
00
00
00
00
00
00
ENDCHAR

STARTCHAR U+256A
ENCODING 9578
SWIDTH 500 0
DWIDTH 8 0
BBX 8 16 0 0
BITMAP
18
18
18
18
18
18
FF
18
FF
18
18
18
18
18
18
18
ENDCHAR

STARTCHAR U+256B
ENCODING 9579
SWIDTH 500 0
DWIDTH 8 0
BBX 8 16 0 0
BITMAP
6C
6C
6C
6C
6C
6C
6C
FF
FF
6C
6C
6C
6C
6C
6C
6C
ENDCHAR

STARTCHAR U+256C
ENCODING 9580
SWIDTH 500 0
DWIDTH 8 0
BBX 8 16 0 0
BITMAP
6C
6C
6C
6C
6C
6C
EF
00
EF
6C
6C
6C
6C
6C
6C
6C
ENDCHAR

STARTCHAR U+256D
ENCODING 9581
SWIDTH 500 0
DWIDTH 8 0
BBX 8 16 0 0
BITMAP
00
00
00
00
00
00
00
07
0F
1C
18
18
18
18
18
18
ENDCHAR

STARTCHAR U+256E
ENCODING 9582
SWIDTH 500 0
DWIDTH 8 0
BBX 8 16 0 0
BITMAP
00
00
00
00
00
00
00
E0
F0
38
18
18
18
18
18
18
ENDCHAR

STARTCHAR U+256F
ENCODING 9583
SWIDTH 500 0
DWIDTH 8 0
BBX 8 16 0 0
BITMAP
18
18
18
18
18
38
F0
E0
00
00
00
00
00
00
00
00
ENDCHAR

STARTCHAR U+2570
ENCODING 9584
SWIDTH 500 0
DWIDTH 8 0
BBX 8 16 0 0
BITMAP
18
18
18
18
18
1C
0F
07
00
00
00
00
00
00
00
00
ENDCHAR

STARTCHAR U+2571
ENCODING 9585
SWIDTH 500 0
DWIDTH 8 0
BBX 8 16 0 0
BITMAP
03
03
06
06
0C
0C
18
18
30
30
60
60
C0
C0
80
80
ENDCHAR

STARTCHAR U+2572
ENCODING 9586
SWIDTH 500 0
DWIDTH 8 0
BBX 8 16 0 0
BITMAP
C0
C0
60
60
30
30
18
18
0C
0C
06
06
03
03
01
01
ENDCHAR

STARTCHAR U+2573
ENCODING 9587
SWIDTH 500 0
DWIDTH 8 0
BBX 8 16 0 0
BITMAP
C3
C3
66
66
3C
3C
18
18
3C
3C
66
66
C3
C3
81
81
ENDCHAR

STARTCHAR U+2574
ENCODING 9588
SWIDTH 500 0
DWIDTH 8 0
BBX 8 16 0 0
BITMAP
00
00
00
00
00
00
00
F8
F8
00
00
00
00
00
00
00
ENDCHAR

STARTCHAR U+2575
ENCODING 9589
SWIDTH 500 0
DWIDTH 8 0
BBX 8 16 0 0
BITMAP
18
18
18
18
18
18
18
18
00
00
00
00
00
00
00
00
ENDCHAR

STARTCHAR U+2576
ENCODING 9590
SWIDTH 500 0
DWIDTH 8 0
BBX 8 16 0 0
BITMAP
00
00
00
00
00
00
00
1F
1F
00
00
00
00
00
00
00
ENDCHAR

STARTCHAR U+2577
ENCODING 9591
SWIDTH 500 0
DWIDTH 8 0
BBX 8 16 0 0
BITMAP
00
00
00
00
00
00
00
00
18
18
18
18
18
18
18
18
ENDCHAR

STARTCHAR U+2578
ENCODING 9592
SWIDTH 500 0
DWIDTH 8 0
BBX 8 16 0 0
BITMAP
00
00
00
00
00
00
F8
F8
F8
F8
00
00
00
00
00
00
ENDCHAR

STARTCHAR U+2579
ENCODING 9593
SWIDTH 500 0
DWIDTH 8 0
BBX 8 16 0 0
BITMAP
3C
3C
3C
3C
3C
3C
3C
3C
00
00
00
00
00
00
00
00
ENDCHAR

STARTCHAR U+257A
ENCODING 9594
SWIDTH 500 0
DWIDTH 8 0
BBX 8 16 0 0
BITMAP
00
00
00
00
00
00
0F
0F
0F
0F
00
00
00
00
00
00
ENDCHAR

STARTCHAR U+257B
ENCODING 9595
SWIDTH 500 0
DWIDTH 8 0
BBX 8 16 0 0
BITMAP
00
00
00
00
00
00
3C
3C
3C
3C
3C
3C
3C
3C
3C
3C
ENDCHAR

STARTCHAR U+257C
ENCODING 9596
SWIDTH 500 0
DWIDTH 8 0
BBX 8 16 0 0
BITMAP
00
00
00
00
00
00
0F
FF
FF
0F
00
00
00
00
00
00
ENDCHAR

STARTCHAR U+257D
ENCODING 9597
SWIDTH 500 0
DWIDTH 8 0
BBX 8 16 0 0
BITMAP
18
18
18
18
18
18
3C
3C
3C
3C
3C
3C
3C
3C
3C
3C
ENDCHAR

STARTCHAR U+257E
ENCODING 9598
SWIDTH 500 0
DWIDTH 8 0
BBX 8 16 0 0
BITMAP
00
00
00
00
00
00
F8
FF
FF
F8
00
00
00
00
00
00
ENDCHAR

STARTCHAR U+257F
ENCODING 9599
SWIDTH 500 0
DWIDTH 8 0
BBX 8 16 0 0
BITMAP
3C
3C
3C
3C
3C
3C
3C
3C
18
18
18
18
18
18
18
18
ENDCHAR

STARTCHAR U+2580
ENCODING 9600
SWIDTH 500 0
DWIDTH 8 0
BBX 8 16 0 0
BITMAP
FF
FF
FF
FF
FF
FF
FF
FF
00
00
00
00
00
00
00
00
ENDCHAR

STARTCHAR U+2581
ENCODING 9601
SWIDTH 500 0
DWIDTH 8 0
BBX 8 16 0 0
BITMAP
00
00
00
00
00
00
00
00
00
00
00
00
00
00
FF
FF
ENDCHAR

STARTCHAR U+2582
ENCODING 9602
SWIDTH 500 0
DWIDTH 8 0
BBX 8 16 0 0
BITMAP
00
00
00
00
00
00
00
00
00
00
00
00
FF
FF
FF
FF
ENDCHAR

STARTCHAR U+2583
ENCODING 9603
SWIDTH 500 0
DWIDTH 8 0
BBX 8 16 0 0
BITMAP
00
00
00
00
00
00
00
00
00
00
FF
FF
FF
FF
FF
FF
ENDCHAR

STARTCHAR U+2584
ENCODING 9604
SWIDTH 500 0
DWIDTH 8 0
BBX 8 16 0 0
BITMAP
00
00
00
00
00
00
00
00
FF
FF
FF
FF
FF
FF
FF
FF
ENDCHAR

STARTCHAR U+2585
ENCODING 9605
SWIDTH 500 0
DWIDTH 8 0
BBX 8 16 0 0
BITMAP
00
00
00
00
00
00
FF
FF
FF
FF
FF
FF
FF
FF
FF
FF
ENDCHAR

STARTCHAR U+2586
ENCODING 9606
SWIDTH 500 0
DWIDTH 8 0
BBX 8 16 0 0
BITMAP
00
00
00
00
FF
FF
FF
FF
FF
FF
FF
FF
FF
FF
FF
FF
ENDCHAR

STARTCHAR U+2587
ENCODING 9607
SWIDTH 500 0
DWIDTH 8 0
BBX 8 16 0 0
BITMAP
00
00
FF
FF
FF
FF
FF
FF
FF
FF
FF
FF
FF
FF
FF
FF
ENDCHAR

STARTCHAR U+2588
ENCODING 9608
SWIDTH 500 0
DWIDTH 8 0
BBX 8 16 0 0
BITMAP
FF
FF
FF
FF
FF
FF
FF
FF
FF
FF
FF
FF
FF
FF
FF
FF
ENDCHAR

STARTCHAR U+2589
ENCODING 9609
SWIDTH 500 0
DWIDTH 8 0
BBX 8 16 0 0
BITMAP
FE
FE
FE
FE
FE
FE
FE
FE
FE
FE
FE
FE
FE
FE
FE
FE
ENDCHAR

STARTCHAR U+258A
ENCODING 9610
SWIDTH 500 0
DWIDTH 8 0
BBX 8 16 0 0
BITMAP
FC
FC
FC
FC
FC
FC
FC
FC
FC
FC
FC
FC
FC
FC
FC
FC
ENDCHAR

STARTCHAR U+258B
ENCODING 9611
SWIDTH 500 0
DWIDTH 8 0
BBX 8 16 0 0
BITMAP
F8
F8
F8
F8
F8
F8
F8
F8
F8
F8
F8
F8
F8
F8
F8
F8
ENDCHAR

STARTCHAR U+258C
ENCODING 9612
SWIDTH 500 0
DWIDTH 8 0
BBX 8 16 0 0
BITMAP
F0
F0
F0
F0
F0
F0
F0
F0
F0
F0
F0
F0
F0
F0
F0
F0
ENDCHAR

STARTCHAR U+258D
ENCODING 9613
SWIDTH 500 0
DWIDTH 8 0
BBX 8 16 0 0
BITMAP
E0
E0
E0
E0
E0
E0
E0
E0
E0
E0
E0
E0
E0
E0
E0
E0
ENDCHAR

STARTCHAR U+258E
ENCODING 9614
SWIDTH 500 0
DWIDTH 8 0
BBX 8 16 0 0
BITMAP
C0
C0
C0
C0
C0
C0
C0
C0
C0
C0
C0
C0
C0
C0
C0
C0
ENDCHAR

STARTCHAR U+258F
ENCODING 9615
SWIDTH 500 0
DWIDTH 8 0
BBX 8 16 0 0
BITMAP
80
80
80
80
80
80
80
80
80
80
80
80
80
80
80
80
ENDCHAR

STARTCHAR U+2590
ENCODING 9616
SWIDTH 500 0
DWIDTH 8 0
BBX 8 16 0 0
BITMAP
0F
0F
0F
0F
0F
0F
0F
0F
0F
0F
0F
0F
0F
0F
0F
0F
ENDCHAR

STARTCHAR U+2591
ENCODING 9617
SWIDTH 500 0
DWIDTH 8 0
BBX 8 16 0 0
BITMAP
22
88
22
88
22
88
22
88
22
88
22
88
22
88
22
88
ENDCHAR

STARTCHAR U+2592
ENCODING 9618
SWIDTH 500 0
DWIDTH 8 0
BBX 8 16 0 0
BITMAP
AA
55
AA
55
AA
55
AA
55
AA
55
AA
55
AA
55
AA
55
ENDCHAR

STARTCHAR U+2593
ENCODING 9619
SWIDTH 500 0
DWIDTH 8 0
BBX 8 16 0 0
BITMAP
DB
77
DB
EE
DB
77
DB
EE
DB
77
DB
EE
DB
77
DB
EE
ENDCHAR

STARTCHAR U+2594
ENCODING 9620
SWIDTH 500 0
DWIDTH 8 0
BBX 8 16 0 0
BITMAP
FF
FF
00
00
00
00
00
00
00
00
00
00
00
00
00
00
ENDCHAR

STARTCHAR U+2595
ENCODING 9621
SWIDTH 500 0
DWIDTH 8 0
BBX 8 16 0 0
BITMAP
01
01
01
01
01
01
01
01
01
01
01
01
01
01
01
01
ENDCHAR

STARTCHAR U+2596
ENCODING 9622
SWIDTH 500 0
DWIDTH 8 0
BBX 8 16 0 0
BITMAP
00
00
00
00
00
00
00
00
F0
F0
F0
F0
F0
F0
F0
F0
ENDCHAR

STARTCHAR U+2597
ENCODING 9623
SWIDTH 500 0
DWIDTH 8 0
BBX 8 16 0 0
BITMAP
00
00
00
00
00
00
00
00
0F
0F
0F
0F
0F
0F
0F
0F
ENDCHAR

STARTCHAR U+2598
ENCODING 9624
SWIDTH 500 0
DWIDTH 8 0
BBX 8 16 0 0
BITMAP
F0
F0
F0
F0
F0
F0
F0
F0
00
00
00
00
00
00
00
00
ENDCHAR

STARTCHAR U+2599
ENCODING 9625
SWIDTH 500 0
DWIDTH 8 0
BBX 8 16 0 0
BITMAP
F0
F0
F0
F0
F0
F0
F0
F0
FF
FF
FF
FF
FF
FF
FF
FF
ENDCHAR

STARTCHAR U+259A
ENCODING 9626
SWIDTH 500 0
DWIDTH 8 0
BBX 8 16 0 0
BITMAP
F0
F0
F0
F0
F0
F0
F0
F0
0F
0F
0F
0F
0F
0F
0F
0F
ENDCHAR

STARTCHAR U+259B
ENCODING 9627
SWIDTH 500 0
DWIDTH 8 0
BBX 8 16 0 0
BITMAP
FF
FF
FF
FF
FF
FF
FF
FF
F0
F0
F0
F0
F0
F0
F0
F0
ENDCHAR

STARTCHAR U+259C
ENCODING 9628
SWIDTH 500 0
DWIDTH 8 0
BBX 8 16 0 0
BITMAP
FF
FF
FF
FF
FF
FF
FF
FF
0F
0F
0F
0F
0F
0F
0F
0F
ENDCHAR

STARTCHAR U+259D
ENCODING 9629
SWIDTH 500 0
DWIDTH 8 0
BBX 8 16 0 0
BITMAP
0F
0F
0F
0F
0F
0F
0F
0F
00
00
00
00
00
00
00
00
ENDCHAR

STARTCHAR U+259E
ENCODING 9630
SWIDTH 500 0
DWIDTH 8 0
BBX 8 16 0 0
BITMAP
0F
0F
0F
0F
0F
0F
0F
0F
F0
F0
F0
F0
F0
F0
F0
F0
ENDCHAR

STARTCHAR U+259F
ENCODING 9631
SWIDTH 500 0
DWIDTH 8 0
BBX 8 16 0 0
BITMAP
0F
0F
0F
0F
0F
0F
0F
0F
FF
FF
FF
FF
FF
FF
FF
FF
ENDCHAR

STARTCHAR U+25A0
ENCODING 9632
SWIDTH 500 0
DWIDTH 8 0
BBX 8 16 0 0
BITMAP
00
00
7E
7E
7E
7E
7E
7E
7E
7E
7E
7E
7E
7E
00
00
ENDCHAR

STARTCHAR U+25A1
ENCODING 9633
SWIDTH 500 0
DWIDTH 8 0
BBX 8 16 0 0
BITMAP
00
00
7E
7E
66
66
66
66
66
66
66
66
7E
7E
00
00
ENDCHAR

STARTCHAR U+25A2
ENCODING 9634
SWIDTH 500 0
DWIDTH 8 0
BBX 8 16 0 0
BITMAP
7C
7C
C6
C6
C6
C6
C6
C6
C6
C6
C6
C6
7C
7C
00
00
ENDCHAR

STARTCHAR U+25A3
ENCODING 9635
SWIDTH 500 0
DWIDTH 8 0
BBX 8 16 0 0
BITMAP
FE
FE
82
82
BA
BA
BA
BA
BA
BA
82
82
FE
FE
00
00
ENDCHAR

STARTCHAR U+25A4
ENCODING 9636
SWIDTH 500 0
DWIDTH 8 0
BBX 8 16 0 0
BITMAP
FF
00
FF
00
FF
00
FF
00
FF
00
FF
00
FF
00
FF
00
ENDCHAR

STARTCHAR U+25A5
ENCODING 9637
SWIDTH 500 0
DWIDTH 8 0
BBX 8 16 0 0
BITMAP
AA
AA
AA
AA
AA
AA
AA
AA
AA
AA
AA
AA
AA
AA
AA
AA
ENDCHAR

STARTCHAR U+25A6
ENCODING 9638
SWIDTH 500 0
DWIDTH 8 0
BBX 8 16 0 0
BITMAP
44
FF
44
44
44
FF
44
44
44
FF
44
44
44
FF
44
44
ENDCHAR

STARTCHAR U+25A7
ENCODING 9639
SWIDTH 500 0
DWIDTH 8 0
BBX 8 16 0 0
BITMAP
88
88
44
44
22
22
11
11
88
88
44
44
22
22
11
11
ENDCHAR

STARTCHAR U+25A8
ENCODING 9640
SWIDTH 500 0
DWIDTH 8 0
BBX 8 16 0 0
BITMAP
11
11
22
22
44
44
88
88
11
11
22
22
44
44
88
88
ENDCHAR

STARTCHAR U+25A9
ENCODING 9641
SWIDTH 500 0
DWIDTH 8 0
BBX 8 16 0 0
BITMAP
AA
AA
44
44
AA
AA
11
11
AA
AA
44
44
AA
AA
11
11
ENDCHAR

STARTCHAR U+25AA
ENCODING 9642
SWIDTH 500 0
DWIDTH 8 0
BBX 8 16 0 0
BITMAP
00
00
00
00
38
38
38
38
38
38
00
00
00
00
00
00
ENDCHAR

STARTCHAR U+25AB
ENCODING 9643
SWIDTH 500 0
DWIDTH 8 0
BBX 8 16 0 0
BITMAP
00
00
00
00
38
38
28
28
38
38
00
00
00
00
00
00
ENDCHAR

STARTCHAR U+25AC
ENCODING 9644
SWIDTH 500 0
DWIDTH 8 0
BBX 8 16 0 0
BITMAP
00
00
00
00
00
00
00
00
7E
7E
7E
7E
7E
7E
00
00
ENDCHAR

STARTCHAR U+25AD
ENCODING 9645
SWIDTH 500 0
DWIDTH 8 0
BBX 8 16 0 0
BITMAP
00
00
00
00
00
00
00
00
7E
7E
66
66
7E
7E
00
00
ENDCHAR

STARTCHAR U+25AE
ENCODING 9646
SWIDTH 500 0
DWIDTH 8 0
BBX 8 16 0 0
BITMAP
3C
3C
3C
3C
3C
3C
3C
3C
3C
3C
3C
3C
3C
3C
00
00
ENDCHAR

STARTCHAR U+25AF
ENCODING 9647
SWIDTH 500 0
DWIDTH 8 0
BBX 8 16 0 0
BITMAP
3C
3C
24
24
24
24
24
24
24
24
24
24
3C
3C
00
00
ENDCHAR

STARTCHAR U+25B0
ENCODING 9648
SWIDTH 500 0
DWIDTH 8 0
BBX 8 16 0 0
BITMAP
00
00
00
00
00
00
00
00
3F
3F
7E
7E
FC
FC
00
00
ENDCHAR

STARTCHAR U+25B1
ENCODING 9649
SWIDTH 500 0
DWIDTH 8 0
BBX 8 16 0 0
BITMAP
00
00
00
00
00
00
00
00
3F
3F
66
66
FC
FC
00
00
ENDCHAR

STARTCHAR U+25B2
ENCODING 9650
SWIDTH 500 0
DWIDTH 8 0
BBX 8 16 0 0
BITMAP
10
10
10
10
38
38
38
38
7C
7C
7C
7C
FE
FE
FE
FE
ENDCHAR

STARTCHAR U+25B3
ENCODING 9651
SWIDTH 500 0
DWIDTH 8 0
BBX 8 16 0 0
BITMAP
18
18
18
18
3C
3C
66
66
66
66
C3
C3
C3
C3
FF
FF
ENDCHAR

STARTCHAR U+25B4
ENCODING 9652
SWIDTH 500 0
DWIDTH 8 0
BBX 8 16 0 0
BITMAP
00
00
10
10
10
10
38
38
38
38
7C
7C
7C
7C
00
00
ENDCHAR

STARTCHAR U+25B5
ENCODING 9653
SWIDTH 500 0
DWIDTH 8 0
BBX 8 16 0 0
BITMAP
00
00
10
10
38
28
28
6C
44
44
C6
82
82
FE
00
00
ENDCHAR

STARTCHAR U+25B6
ENCODING 9654
SWIDTH 500 0
DWIDTH 8 0
BBX 8 16 0 0
BITMAP
80
C0
E0
F0
F8
FC
FE
FF
FE
FC
F8
F0
E0
C0
80
00
ENDCHAR

STARTCHAR U+25B7
ENCODING 9655
SWIDTH 500 0
DWIDTH 8 0
BBX 8 16 0 0
BITMAP
80
C0
E0
F0
D8
CC
C6
C3
C6
CC
D8
F0
E0
C0
80
00
ENDCHAR

STARTCHAR U+25B8
ENCODING 9656
SWIDTH 500 0
DWIDTH 8 0
BBX 8 16 0 0
BITMAP
00
00
00
00
40
60
70
78
7C
78
70
60
40
00
00
00
ENDCHAR

STARTCHAR U+25B9
ENCODING 9657
SWIDTH 500 0
DWIDTH 8 0
BBX 8 16 0 0
BITMAP
00
00
00
00
40
60
50
48
44
48
50
60
40
00
00
00
ENDCHAR

STARTCHAR U+25BA
ENCODING 9658
SWIDTH 500 0
DWIDTH 8 0
BBX 8 16 0 0
BITMAP
00
00
00
00
C0
F0
FC
FF
FC
F0
C0
00
00
00
00
00
ENDCHAR

STARTCHAR U+25BB
ENCODING 9659
SWIDTH 500 0
DWIDTH 8 0
BBX 8 16 0 0
BITMAP
00
00
00
00
C0
F0
DC
C7
DC
F0
C0
00
00
00
00
00
ENDCHAR

STARTCHAR U+25BC
ENCODING 9660
SWIDTH 500 0
DWIDTH 8 0
BBX 8 16 0 0
BITMAP
FE
FE
FE
FE
7C
7C
7C
7C
38
38
38
38
10
10
10
10
ENDCHAR

STARTCHAR U+25BD
ENCODING 9661
SWIDTH 500 0
DWIDTH 8 0
BBX 8 16 0 0
BITMAP
FF
FF
C3
C3
C3
C3
66
66
66
66
3C
3C
18
18
18
18
ENDCHAR

STARTCHAR U+25BE
ENCODING 9662
SWIDTH 500 0
DWIDTH 8 0
BBX 8 16 0 0
BITMAP
00
00
7C
7C
7C
7C
38
38
38
38
10
10
10
10
00
00
ENDCHAR

STARTCHAR U+25BF
ENCODING 9663
SWIDTH 500 0
DWIDTH 8 0
BBX 8 16 0 0
BITMAP
00
00
FE
82
82
C6
44
44
6C
28
28
38
10
10
00
00
ENDCHAR

STARTCHAR U+25C0
ENCODING 9664
SWIDTH 500 0
DWIDTH 8 0
BBX 8 16 0 0
BITMAP
01
03
07
0F
1F
3F
7F
FF
7F
3F
1F
0F
07
03
01
00
ENDCHAR

STARTCHAR U+25C1
ENCODING 9665
SWIDTH 500 0
DWIDTH 8 0
BBX 8 16 0 0
BITMAP
01
03
07
0F
1B
33
63
C3
63
33
1B
0F
07
03
01
00
ENDCHAR

STARTCHAR U+25C2
ENCODING 9666
SWIDTH 500 0
DWIDTH 8 0
BBX 8 16 0 0
BITMAP
00
00
00
00
04
0C
1C
3C
7C
3C
1C
0C
04
00
00
00
ENDCHAR

STARTCHAR U+25C3
ENCODING 9667
SWIDTH 500 0
DWIDTH 8 0
BBX 8 16 0 0
BITMAP
00
00
00
00
04
0C
14
24
44
24
14
0C
04
00
00
00
ENDCHAR

STARTCHAR U+25C4
ENCODING 9668
SWIDTH 500 0
DWIDTH 8 0
BBX 8 16 0 0
BITMAP
00
00
00
00
03
0F
3F
FF
3F
0F
03
00
00
00
00
00
ENDCHAR

STARTCHAR U+25C5
ENCODING 9669
SWIDTH 500 0
DWIDTH 8 0
BBX 8 16 0 0
BITMAP
00
00
00
00
03
0F
3B
E3
3B
0F
03
00
00
00
00
00
ENDCHAR

STARTCHAR U+25C6
ENCODING 9670
SWIDTH 500 0
DWIDTH 8 0
BBX 8 16 0 0
BITMAP
18
18
3C
3C
7E
7E
FF
FF
FF
FF
7E
7E
3C
3C
18
18
ENDCHAR

STARTCHAR U+25C7
ENCODING 9671
SWIDTH 500 0
DWIDTH 8 0
BBX 8 16 0 0
BITMAP
18
18
3C
3C
66
66
C3
C3
C3
C3
66
66
3C
3C
18
18
ENDCHAR

STARTCHAR U+25C8
ENCODING 9672
SWIDTH 500 0
DWIDTH 8 0
BBX 8 16 0 0
BITMAP
18
18
24
24
5A
5A
BD
BD
BD
BD
5A
5A
24
24
18
18
ENDCHAR

STARTCHAR U+25C9
ENCODING 9673
SWIDTH 500 0
DWIDTH 8 0
BBX 8 16 0 0
BITMAP
3C
3C
66
66
C3
C3
DB
DB
DB
DB
C3
C3
66
66
3C
3C
ENDCHAR

STARTCHAR U+25CA
ENCODING 9674
SWIDTH 500 0
DWIDTH 8 0
BBX 8 16 0 0
BITMAP
10
10
38
38
6C
6C
C6
C6
C6
C6
6C
6C
38
38
10
10
ENDCHAR

STARTCHAR U+25CB
ENCODING 9675
SWIDTH 500 0
DWIDTH 8 0
BBX 8 16 0 0
BITMAP
00
00
3C
3C
66
66
42
42
42
42
66
66
3C
3C
00
00
ENDCHAR

STARTCHAR U+25CC
ENCODING 9676
SWIDTH 500 0
DWIDTH 8 0
BBX 8 16 0 0
BITMAP
10
10
44
44
00
00
82
82
00
00
44
44
10
10
00
00
ENDCHAR

STARTCHAR U+25CD
ENCODING 9677
SWIDTH 500 0
DWIDTH 8 0
BBX 8 16 0 0
BITMAP
00
00
38
38
6C
6C
AA
AA
AA
AA
6C
6C
38
38
00
00
ENDCHAR

STARTCHAR U+25CE
ENCODING 9678
SWIDTH 500 0
DWIDTH 8 0
BBX 8 16 0 0
BITMAP
38
38
44
44
92
92
AA
AA
92
92
44
44
38
38
00
00
ENDCHAR

STARTCHAR U+25CF
ENCODING 9679
SWIDTH 500 0
DWIDTH 8 0
BBX 8 16 0 0
BITMAP
00
00
3C
3C
7E
7E
7E
7E
7E
7E
7E
7E
3C
3C
00
00
ENDCHAR

STARTCHAR U+25D0
ENCODING 9680
SWIDTH 500 0
DWIDTH 8 0
BBX 8 16 0 0
BITMAP
3C
3C
76
76
F3
F3
F3
F3
F3
F3
F3
F3
76
76
3C
3C
ENDCHAR

STARTCHAR U+25D1
ENCODING 9681
SWIDTH 500 0
DWIDTH 8 0
BBX 8 16 0 0
BITMAP
3C
3C
6E
6E
CF
CF
CF
CF
CF
CF
CF
CF
6E
6E
3C
3C
ENDCHAR

STARTCHAR U+25D2
ENCODING 9682
SWIDTH 500 0
DWIDTH 8 0
BBX 8 16 0 0
BITMAP
3C
3C
66
66
C3
C3
C3
C3
FF
FF
FF
FF
7E
7E
3C
3C
ENDCHAR

STARTCHAR U+25D3
ENCODING 9683
SWIDTH 500 0
DWIDTH 8 0
BBX 8 16 0 0
BITMAP
3C
3C
7E
7E
FF
FF
FF
FF
C3
C3
C3
C3
66
66
3C
3C
ENDCHAR

STARTCHAR U+25D4
ENCODING 9684
SWIDTH 500 0
DWIDTH 8 0
BBX 8 16 0 0
BITMAP
3C
3C
6E
6E
CF
CF
CF
CF
C3
C3
C3
C3
66
66
3C
3C
ENDCHAR

STARTCHAR U+25D5
ENCODING 9685
SWIDTH 500 0
DWIDTH 8 0
BBX 8 16 0 0
BITMAP
3C
3C
6E
6E
CF
CF
CF
CF
FF
FF
FF
FF
7E
7E
3C
3C
ENDCHAR

STARTCHAR U+25D6
ENCODING 9686
SWIDTH 500 0
DWIDTH 8 0
BBX 8 16 0 0
BITMAP
00
03
0F
1F
1F
3F
3F
3F
3F
3F
1F
1F
0F
03
00
00
ENDCHAR

STARTCHAR U+25D7
ENCODING 9687
SWIDTH 500 0
DWIDTH 8 0
BBX 8 16 0 0
BITMAP
00
C0
F0
F8
F8
FC
FC
FC
FC
FC
F8
F8
F0
C0
00
00
ENDCHAR

STARTCHAR U+25D8
ENCODING 9688
SWIDTH 500 0
DWIDTH 8 0
BBX 8 16 0 0
BITMAP
FF
FF
FF
FF
E7
E7
C3
C3
C3
C3
E7
E7
FF
FF
FF
FF
ENDCHAR

STARTCHAR U+25D9
ENCODING 9689
SWIDTH 500 0
DWIDTH 8 0
BBX 8 16 0 0
BITMAP
FF
FF
C3
C3
99
99
BD
BD
BD
BD
99
99
C3
C3
FF
FF
ENDCHAR

STARTCHAR U+25DA
ENCODING 9690
SWIDTH 500 0
DWIDTH 8 0
BBX 8 16 0 0
BITMAP
FF
FF
C3
C3
99
99
BD
BD
00
00
00
00
00
00
00
00
ENDCHAR

STARTCHAR U+25DB
ENCODING 9691
SWIDTH 500 0
DWIDTH 8 0
BBX 8 16 0 0
BITMAP
00
00
00
00
00
00
00
00
BD
BD
99
99
C3
C3
FF
FF
ENDCHAR

STARTCHAR U+25DC
ENCODING 9692
SWIDTH 500 0
DWIDTH 8 0
BBX 8 16 0 0
BITMAP
38
38
60
60
C0
C0
C0
C0
00
00
00
00
00
00
00
00
ENDCHAR

STARTCHAR U+25DD
ENCODING 9693
SWIDTH 500 0
DWIDTH 8 0
BBX 8 16 0 0
BITMAP
1C
1C
06
06
03
03
03
03
00
00
00
00
00
00
00
00
ENDCHAR

STARTCHAR U+25DE
ENCODING 9694
SWIDTH 500 0
DWIDTH 8 0
BBX 8 16 0 0
BITMAP
00
00
00
00
00
00
00
00
03
03
03
03
06
06
1C
1C
ENDCHAR

STARTCHAR U+25DF
ENCODING 9695
SWIDTH 500 0
DWIDTH 8 0
BBX 8 16 0 0
BITMAP
00
00
00
00
00
00
00
00
C0
C0
C0
C0
60
60
38
38
ENDCHAR

STARTCHAR U+25E0
ENCODING 9696
SWIDTH 500 0
DWIDTH 8 0
BBX 8 16 0 0
BITMAP
3C
3C
66
66
C3
C3
C3
C3
00
00
00
00
00
00
00
00
ENDCHAR

STARTCHAR U+25E1
ENCODING 9697
SWIDTH 500 0
DWIDTH 8 0
BBX 8 16 0 0
BITMAP
00
00
00
00
00
00
00
00
C3
C3
C3
C3
66
66
3C
3C
ENDCHAR

STARTCHAR U+25E2
ENCODING 9698
SWIDTH 500 0
DWIDTH 8 0
BBX 8 16 0 0
BITMAP
01
01
03
03
07
07
0F
0F
1F
1F
3F
3F
7F
7F
FF
FF
ENDCHAR

STARTCHAR U+25E3
ENCODING 9699
SWIDTH 500 0
DWIDTH 8 0
BBX 8 16 0 0
BITMAP
80
80
C0
C0
E0
E0
F0
F0
F8
F8
FC
FC
FE
FE
FF
FF
ENDCHAR

STARTCHAR U+25E4
ENCODING 9700
SWIDTH 500 0
DWIDTH 8 0
BBX 8 16 0 0
BITMAP
FF
FF
FE
FE
FC
FC
F8
F8
F0
F0
E0
E0
C0
C0
80
80
ENDCHAR

STARTCHAR U+25E5
ENCODING 9701
SWIDTH 500 0
DWIDTH 8 0
BBX 8 16 0 0
BITMAP
FF
FF
7F
7F
3F
3F
1F
1F
0F
0F
07
07
03
03
01
01
ENDCHAR

STARTCHAR U+25E6
ENCODING 9702
SWIDTH 500 0
DWIDTH 8 0
BBX 8 16 0 0
BITMAP
00
00
00
00
18
18
24
24
24
24
18
18
00
00
00
00
ENDCHAR

STARTCHAR U+25E7
ENCODING 9703
SWIDTH 500 0
DWIDTH 8 0
BBX 8 16 0 0
BITMAP
FF
FF
F3
F3
F3
F3
F3
F3
F3
F3
F3
F3
F3
F3
FF
FF
ENDCHAR

STARTCHAR U+25E8
ENCODING 9704
SWIDTH 500 0
DWIDTH 8 0
BBX 8 16 0 0
BITMAP
FF
FF
CF
CF
CF
CF
CF
CF
CF
CF
CF
CF
CF
CF
FF
FF
ENDCHAR

STARTCHAR U+25E9
ENCODING 9705
SWIDTH 500 0
DWIDTH 8 0
BBX 8 16 0 0
BITMAP
FF
FF
FF
FF
FF
FF
FB
FB
F3
F3
E3
E3
C3
C3
FF
FF
ENDCHAR

STARTCHAR U+25EA
ENCODING 9706
SWIDTH 500 0
DWIDTH 8 0
BBX 8 16 0 0
BITMAP
FF
FF
C3
C3
C7
C7
CF
CF
DF
DF
FF
FF
FF
FF
FF
FF
ENDCHAR

STARTCHAR U+25EB
ENCODING 9707
SWIDTH 500 0
DWIDTH 8 0
BBX 8 16 0 0
BITMAP
FF
FF
DB
DB
DB
DB
DB
DB
DB
DB
DB
DB
DB
DB
FF
FF
ENDCHAR

STARTCHAR U+25EC
ENCODING 9708
SWIDTH 500 0
DWIDTH 8 0
BBX 8 16 0 0
BITMAP
18
18
18
18
24
24
42
42
5A
5A
99
99
81
81
FF
FF
ENDCHAR

STARTCHAR U+25ED
ENCODING 9709
SWIDTH 500 0
DWIDTH 8 0
BBX 8 16 0 0
BITMAP
18
18
18
18
3C
3C
76
76
76
76
F3
F3
F3
F3
FF
FF
ENDCHAR

STARTCHAR U+25EE
ENCODING 9710
SWIDTH 500 0
DWIDTH 8 0
BBX 8 16 0 0
BITMAP
18
18
18
18
3C
3C
6E
6E
6E
6E
CF
CF
CF
CF
FF
FF
ENDCHAR

STARTCHAR U+25EF
ENCODING 9711
SWIDTH 500 0
DWIDTH 8 0
BBX 8 16 0 0
BITMAP
3C
3C
66
66
C3
C3
C3
C3
C3
C3
C3
C3
66
66
3C
3C
ENDCHAR

STARTCHAR U+25F0
ENCODING 9712
SWIDTH 500 0
DWIDTH 8 0
BBX 8 16 0 0
BITMAP
FF
FF
DB
DB
DB
DB
DB
DB
FB
FB
C3
C3
C3
C3
FF
FF
ENDCHAR

STARTCHAR U+25F1
ENCODING 9713
SWIDTH 500 0
DWIDTH 8 0
BBX 8 16 0 0
BITMAP
FF
FF
C3
C3
C3
C3
C3
C3
FB
FB
DB
DB
DB
DB
FF
FF
ENDCHAR

STARTCHAR U+25F2
ENCODING 9714
SWIDTH 500 0
DWIDTH 8 0
BBX 8 16 0 0
BITMAP
FF
FF
C3
C3
C3
C3
C3
C3
DF
DF
DB
DB
DB
DB
FF
FF
ENDCHAR

STARTCHAR U+25F3
ENCODING 9715
SWIDTH 500 0
DWIDTH 8 0
BBX 8 16 0 0
BITMAP
FF
FF
DB
DB
DB
DB
DB
DB
DF
DF
C3
C3
C3
C3
FF
FF
ENDCHAR

STARTCHAR U+25F4
ENCODING 9716
SWIDTH 500 0
DWIDTH 8 0
BBX 8 16 0 0
BITMAP
3C
3C
7E
7E
DB
DB
DB
DB
FB
FB
C3
C3
66
66
3C
3C
ENDCHAR

STARTCHAR U+25F5
ENCODING 9717
SWIDTH 500 0
DWIDTH 8 0
BBX 8 16 0 0
BITMAP
3C
3C
66
66
C3
C3
FB
FB
DB
DB
DB
DB
7E
7E
3C
3C
ENDCHAR

STARTCHAR U+25F6
ENCODING 9718
SWIDTH 500 0
DWIDTH 8 0
BBX 8 16 0 0
BITMAP
3C
3C
66
66
C3
C3
DF
DF
DB
DB
DB
DB
7E
7E
3C
3C
ENDCHAR

STARTCHAR U+25F7
ENCODING 9719
SWIDTH 500 0
DWIDTH 8 0
BBX 8 16 0 0
BITMAP
3C
3C
7E
7E
DB
DB
DB
DB
DF
DF
C3
C3
66
66
3C
3C
ENDCHAR

STARTCHAR U+25F8
ENCODING 9720
SWIDTH 500 0
DWIDTH 8 0
BBX 8 16 0 0
BITMAP
FF
FF
C6
C6
CC
CC
D8
D8
F0
F0
E0
E0
C0
C0
80
80
ENDCHAR

STARTCHAR U+25F9
ENCODING 9721
SWIDTH 500 0
DWIDTH 8 0
BBX 8 16 0 0
BITMAP
FF
FF
63
63
33
33
1B
1B
0F
0F
07
07
03
03
01
01
ENDCHAR

STARTCHAR U+25FA
ENCODING 9722
SWIDTH 500 0
DWIDTH 8 0
BBX 8 16 0 0
BITMAP
01
01
03
03
07
07
0F
0F
1B
1B
33
33
63
63
FF
FF
ENDCHAR

STARTCHAR U+25FB
ENCODING 9723
SWIDTH 500 0
DWIDTH 8 0
BBX 8 16 0 0
BITMAP
00
00
7C
7C
6C
6C
6C
6C
6C
6C
7C
7C
00
00
00
00
ENDCHAR

STARTCHAR U+25FC
ENCODING 9724
SWIDTH 500 0
DWIDTH 8 0
BBX 8 16 0 0
BITMAP
00
00
7C
7C
7C
7C
7C
7C
7C
7C
7C
7C
00
00
00
00
ENDCHAR

STARTCHAR U+25FD
ENCODING 9725
SWIDTH 500 0
DWIDTH 8 0
BBX 8 16 0 0
BITMAP
00
00
00
00
3C
3C
24
24
24
24
3C
3C
00
00
00
00
ENDCHAR

STARTCHAR U+25FE
ENCODING 9726
SWIDTH 500 0
DWIDTH 8 0
BBX 8 16 0 0
BITMAP
00
00
00
00
3C
3C
3C
3C
3C
3C
3C
3C
00
00
00
00
ENDCHAR

STARTCHAR U+25FF
ENCODING 9727
SWIDTH 500 0
DWIDTH 8 0
BBX 8 16 0 0
BITMAP
80
80
C0
C0
E0
E0
F0
F0
D8
D8
CC
CC
C6
C6
FF
FF
ENDCHAR

STARTCHAR U+2625
ENCODING 9765
SWIDTH 500 0
DWIDTH 8 0
BBX 8 16 0 0
BITMAP
00
00
7C
C6
C6
6C
38
FE
38
38
38
38
38
00
00
00
ENDCHAR

STARTCHAR U+2628
ENCODING 9768
SWIDTH 500 0
DWIDTH 8 0
BBX 8 16 0 0
BITMAP
00
00
18
18
3C
18
18
7E
18
18
18
18
18
00
00
00
ENDCHAR

STARTCHAR U+262F
ENCODING 9775
SWIDTH 500 0
DWIDTH 8 0
BBX 8 16 0 0
BITMAP
00
00
00
3C
42
8D
81
B3
FF
CF
7E
3C
00
00
00
00
ENDCHAR

STARTCHAR U+2630
ENCODING 9776
SWIDTH 500 0
DWIDTH 8 0
BBX 8 16 0 0
BITMAP
00
00
00
00
FE
FE
00
00
FE
FE
00
00
FE
FE
00
00
ENDCHAR

STARTCHAR U+2631
ENCODING 9777
SWIDTH 500 0
DWIDTH 8 0
BBX 8 16 0 0
BITMAP
00
00
00
00
C6
C6
00
00
FE
FE
00
00
FE
FE
00
00
ENDCHAR

STARTCHAR U+2632
ENCODING 9778
SWIDTH 500 0
DWIDTH 8 0
BBX 8 16 0 0
BITMAP
00
00
00
00
FE
FE
00
00
C6
C6
00
00
FE
FE
00
00
ENDCHAR

STARTCHAR U+2633
ENCODING 9779
SWIDTH 500 0
DWIDTH 8 0
BBX 8 16 0 0
BITMAP
00
00
00
00
C6
C6
00
00
C6
C6
00
00
FE
FE
00
00
ENDCHAR

STARTCHAR U+2634
ENCODING 9780
SWIDTH 500 0
DWIDTH 8 0
BBX 8 16 0 0
BITMAP
00
00
00
00
FE
FE
00
00
FE
FE
00
00
C6
C6
00
00
ENDCHAR

STARTCHAR U+2635
ENCODING 9781
SWIDTH 500 0
DWIDTH 8 0
BBX 8 16 0 0
BITMAP
00
00
00
00
C6
C6
00
00
FE
FE
00
00
C6
C6
00
00
ENDCHAR

STARTCHAR U+2636
ENCODING 9782
SWIDTH 500 0
DWIDTH 8 0
BBX 8 16 0 0
BITMAP
00
00
00
00
FE
FE
00
00
C6
C6
00
00
C6
C6
00
00
ENDCHAR

STARTCHAR U+2637
ENCODING 9783
SWIDTH 500 0
DWIDTH 8 0
BBX 8 16 0 0
BITMAP
00
00
00
00
C6
C6
00
00
C6
C6
00
00
C6
C6
00
00
ENDCHAR

STARTCHAR U+2639
ENCODING 9785
SWIDTH 500 0
DWIDTH 8 0
BBX 8 16 0 0
BITMAP
00
00
3C
42
81
A5
81
81
99
BD
81
42
3C
00
00
00
ENDCHAR

STARTCHAR U+263A
ENCODING 9786
SWIDTH 500 0
DWIDTH 8 0
BBX 8 16 0 0
BITMAP
00
00
3C
42
81
A5
81
81
BD
99
81
42
3C
00
00
00
ENDCHAR

STARTCHAR U+263B
ENCODING 9787
SWIDTH 500 0
DWIDTH 8 0
BBX 8 16 0 0
BITMAP
00
00
3C
7E
FF
DB
FF
FF
C3
E7
FF
7E
3C
00
00
00
ENDCHAR

STARTCHAR U+2660
ENCODING 9824
SWIDTH 500 0
DWIDTH 8 0
BBX 8 16 0 0
BITMAP
00
00
00
10
38
7C
FE
FE
FE
38
38
7C
00
00
00
00
ENDCHAR

STARTCHAR U+2661
ENCODING 9825
SWIDTH 500 0
DWIDTH 8 0
BBX 8 16 0 0
BITMAP
00
00
00
6C
FE
C6
C6
C6
6C
6C
38
10
00
00
00
00
ENDCHAR

STARTCHAR U+2662
ENCODING 9826
SWIDTH 500 0
DWIDTH 8 0
BBX 8 16 0 0
BITMAP
00
00
00
10
38
38
6C
C6
6C
38
38
10
00
00
00
00
ENDCHAR

STARTCHAR U+2663
ENCODING 9827
SWIDTH 500 0
DWIDTH 8 0
BBX 8 16 0 0
BITMAP
00
00
00
10
38
38
54
FE
FE
54
10
38
00
00
00
00
ENDCHAR

STARTCHAR U+2664
ENCODING 9828
SWIDTH 500 0
DWIDTH 8 0
BBX 8 16 0 0
BITMAP
00
00
00
10
38
6C
C6
C6
EE
38
38
7C
00
00
00
00
ENDCHAR

STARTCHAR U+2665
ENCODING 9829
SWIDTH 500 0
DWIDTH 8 0
BBX 8 16 0 0
BITMAP
00
00
00
6C
FE
FE
FE
FE
7C
7C
38
10
00
00
00
00
ENDCHAR

STARTCHAR U+2666
ENCODING 9830
SWIDTH 500 0
DWIDTH 8 0
BBX 8 16 0 0
BITMAP
00
00
00
10
38
38
7C
FE
7C
38
38
10
00
00
00
00
ENDCHAR

STARTCHAR U+2667
ENCODING 9831
SWIDTH 500 0
DWIDTH 8 0
BBX 8 16 0 0
BITMAP
00
00
00
38
38
38
C6
C6
EE
28
28
7C
00
00
00
00
ENDCHAR

STARTCHAR U+2669
ENCODING 9833
SWIDTH 500 0
DWIDTH 8 0
BBX 8 16 0 0
BITMAP
00
00
00
0C
0C
0C
0C
0C
0C
3C
7C
38
00
00
00
00
ENDCHAR

STARTCHAR U+266A
ENCODING 9834
SWIDTH 500 0
DWIDTH 8 0
BBX 8 16 0 0
BITMAP
00
00
00
18
1C
1E
1B
18
18
78
F8
70
00
00
00
00
ENDCHAR

STARTCHAR U+266B
ENCODING 9835
SWIDTH 500 0
DWIDTH 8 0
BBX 8 16 0 0
BITMAP
00
00
00
7F
63
63
63
63
63
67
E7
E6
C0
00
00
00
ENDCHAR

STARTCHAR U+266C
ENCODING 9836
SWIDTH 500 0
DWIDTH 8 0
BBX 8 16 0 0
BITMAP
00
00
00
7F
63
7F
63
63
63
67
E7
E6
C0
00
00
00
ENDCHAR

STARTCHAR U+268A
ENCODING 9866
SWIDTH 500 0
DWIDTH 8 0
BBX 8 16 0 0
BITMAP
00
00
00
00
00
00
00
00
00
00
00
00
FE
FE
00
00
ENDCHAR

STARTCHAR U+268B
ENCODING 9867
SWIDTH 500 0
DWIDTH 8 0
BBX 8 16 0 0
BITMAP
00
00
00
00
00
00
00
00
00
00
00
00
C6
C6
00
00
ENDCHAR

STARTCHAR U+268C
ENCODING 9868
SWIDTH 500 0
DWIDTH 8 0
BBX 8 16 0 0
BITMAP
00
00
00
00
00
00
00
00
FE
FE
00
00
FE
FE
00
00
ENDCHAR

STARTCHAR U+268D
ENCODING 9869
SWIDTH 500 0
DWIDTH 8 0
BBX 8 16 0 0
BITMAP
00
00
00
00
00
00
00
00
C6
C6
00
00
FE
FE
00
00
ENDCHAR

STARTCHAR U+268E
ENCODING 9870
SWIDTH 500 0
DWIDTH 8 0
BBX 8 16 0 0
BITMAP
00
00
00
00
00
00
00
00
FE
FE
00
00
C6
C6
00
00
ENDCHAR

STARTCHAR U+268F
ENCODING 9871
SWIDTH 500 0
DWIDTH 8 0
BBX 8 16 0 0
BITMAP
00
00
00
00
00
00
00
00
C6
C6
00
00
C6
C6
00
00
ENDCHAR

STARTCHAR U+26AA
ENCODING 9898
SWIDTH 500 0
DWIDTH 8 0
BBX 8 16 0 0
BITMAP
00
00
00
00
3C
3C
42
42
42
42
42
42
3C
3C
00
00
ENDCHAR

STARTCHAR U+26AB
ENCODING 9899
SWIDTH 500 0
DWIDTH 8 0
BBX 8 16 0 0
BITMAP
00
00
00
00
3C
3C
7E
7E
7E
7E
7E
7E
3C
3C
00
00
ENDCHAR

STARTCHAR U+26AC
ENCODING 9900
SWIDTH 500 0
DWIDTH 8 0
BBX 8 16 0 0
BITMAP
00
00
38
38
7C
7C
6C
6C
7C
7C
38
38
00
00
00
00
ENDCHAR

STARTCHAR U+2708
ENCODING 9992
SWIDTH 500 0
DWIDTH 8 0
BBX 8 16 0 0
BITMAP
30
30
38
38
9C
9C
FF
FF
FF
FF
9C
9C
38
38
30
30
ENDCHAR

STARTCHAR U+2734
ENCODING 10036
SWIDTH 500 0
DWIDTH 8 0
BBX 8 16 0 0
BITMAP
92
92
54
54
38
38
FE
FE
38
38
54
54
92
92
00
00
ENDCHAR

STARTCHAR U+2800
ENCODING 10240
SWIDTH 500 0
DWIDTH 8 0
BBX 8 16 0 0
BITMAP
00
00
00
00
00
00
00
00
00
00
00
00
00
00
00
00
ENDCHAR

STARTCHAR U+2801
ENCODING 10241
SWIDTH 500 0
DWIDTH 8 0
BBX 8 16 0 0
BITMAP
F0
F0
F0
F0
00
00
00
00
00
00
00
00
00
00
00
00
ENDCHAR

STARTCHAR U+2802
ENCODING 10242
SWIDTH 500 0
DWIDTH 8 0
BBX 8 16 0 0
BITMAP
00
00
00
00
F0
F0
F0
F0
00
00
00
00
00
00
00
00
ENDCHAR

STARTCHAR U+2803
ENCODING 10243
SWIDTH 500 0
DWIDTH 8 0
BBX 8 16 0 0
BITMAP
F0
F0
F0
F0
F0
F0
F0
F0
00
00
00
00
00
00
00
00
ENDCHAR

STARTCHAR U+2804
ENCODING 10244
SWIDTH 500 0
DWIDTH 8 0
BBX 8 16 0 0
BITMAP
00
00
00
00
00
00
00
00
F0
F0
F0
F0
00
00
00
00
ENDCHAR

STARTCHAR U+2805
ENCODING 10245
SWIDTH 500 0
DWIDTH 8 0
BBX 8 16 0 0
BITMAP
F0
F0
F0
F0
00
00
00
00
F0
F0
F0
F0
00
00
00
00
ENDCHAR

STARTCHAR U+2806
ENCODING 10246
SWIDTH 500 0
DWIDTH 8 0
BBX 8 16 0 0
BITMAP
00
00
00
00
F0
F0
F0
F0
F0
F0
F0
F0
00
00
00
00
ENDCHAR

STARTCHAR U+2807
ENCODING 10247
SWIDTH 500 0
DWIDTH 8 0
BBX 8 16 0 0
BITMAP
F0
F0
F0
F0
F0
F0
F0
F0
F0
F0
F0
F0
00
00
00
00
ENDCHAR

STARTCHAR U+2808
ENCODING 10248
SWIDTH 500 0
DWIDTH 8 0
BBX 8 16 0 0
BITMAP
0F
0F
0F
0F
00
00
00
00
00
00
00
00
00
00
00
00
ENDCHAR

STARTCHAR U+2809
ENCODING 10249
SWIDTH 500 0
DWIDTH 8 0
BBX 8 16 0 0
BITMAP
FF
FF
FF
FF
00
00
00
00
00
00
00
00
00
00
00
00
ENDCHAR

STARTCHAR U+280A
ENCODING 10250
SWIDTH 500 0
DWIDTH 8 0
BBX 8 16 0 0
BITMAP
0F
0F
0F
0F
F0
F0
F0
F0
00
00
00
00
00
00
00
00
ENDCHAR

STARTCHAR U+280B
ENCODING 10251
SWIDTH 500 0
DWIDTH 8 0
BBX 8 16 0 0
BITMAP
FF
FF
FF
FF
F0
F0
F0
F0
00
00
00
00
00
00
00
00
ENDCHAR

STARTCHAR U+280C
ENCODING 10252
SWIDTH 500 0
DWIDTH 8 0
BBX 8 16 0 0
BITMAP
0F
0F
0F
0F
00
00
00
00
F0
F0
F0
F0
00
00
00
00
ENDCHAR

STARTCHAR U+280D
ENCODING 10253
SWIDTH 500 0
DWIDTH 8 0
BBX 8 16 0 0
BITMAP
FF
FF
FF
FF
00
00
00
00
F0
F0
F0
F0
00
00
00
00
ENDCHAR

STARTCHAR U+280E
ENCODING 10254
SWIDTH 500 0
DWIDTH 8 0
BBX 8 16 0 0
BITMAP
0F
0F
0F
0F
F0
F0
F0
F0
F0
F0
F0
F0
00
00
00
00
ENDCHAR

STARTCHAR U+280F
ENCODING 10255
SWIDTH 500 0
DWIDTH 8 0
BBX 8 16 0 0
BITMAP
FF
FF
FF
FF
F0
F0
F0
F0
F0
F0
F0
F0
00
00
00
00
ENDCHAR

STARTCHAR U+2810
ENCODING 10256
SWIDTH 500 0
DWIDTH 8 0
BBX 8 16 0 0
BITMAP
00
00
00
00
0F
0F
0F
0F
00
00
00
00
00
00
00
00
ENDCHAR

STARTCHAR U+2811
ENCODING 10257
SWIDTH 500 0
DWIDTH 8 0
BBX 8 16 0 0
BITMAP
F0
F0
F0
F0
0F
0F
0F
0F
00
00
00
00
00
00
00
00
ENDCHAR

STARTCHAR U+2812
ENCODING 10258
SWIDTH 500 0
DWIDTH 8 0
BBX 8 16 0 0
BITMAP
00
00
00
00
FF
FF
FF
FF
00
00
00
00
00
00
00
00
ENDCHAR

STARTCHAR U+2813
ENCODING 10259
SWIDTH 500 0
DWIDTH 8 0
BBX 8 16 0 0
BITMAP
F0
F0
F0
F0
FF
FF
FF
FF
00
00
00
00
00
00
00
00
ENDCHAR

STARTCHAR U+2814
ENCODING 10260
SWIDTH 500 0
DWIDTH 8 0
BBX 8 16 0 0
BITMAP
00
00
00
00
0F
0F
0F
0F
F0
F0
F0
F0
00
00
00
00
ENDCHAR

STARTCHAR U+2815
ENCODING 10261
SWIDTH 500 0
DWIDTH 8 0
BBX 8 16 0 0
BITMAP
F0
F0
F0
F0
0F
0F
0F
0F
F0
F0
F0
F0
00
00
00
00
ENDCHAR

STARTCHAR U+2816
ENCODING 10262
SWIDTH 500 0
DWIDTH 8 0
BBX 8 16 0 0
BITMAP
00
00
00
00
FF
FF
FF
FF
F0
F0
F0
F0
00
00
00
00
ENDCHAR

STARTCHAR U+2817
ENCODING 10263
SWIDTH 500 0
DWIDTH 8 0
BBX 8 16 0 0
BITMAP
F0
F0
F0
F0
FF
FF
FF
FF
F0
F0
F0
F0
00
00
00
00
ENDCHAR

STARTCHAR U+2818
ENCODING 10264
SWIDTH 500 0
DWIDTH 8 0
BBX 8 16 0 0
BITMAP
0F
0F
0F
0F
0F
0F
0F
0F
00
00
00
00
00
00
00
00
ENDCHAR

STARTCHAR U+2819
ENCODING 10265
SWIDTH 500 0
DWIDTH 8 0
BBX 8 16 0 0
BITMAP
FF
FF
FF
FF
0F
0F
0F
0F
00
00
00
00
00
00
00
00
ENDCHAR

STARTCHAR U+281A
ENCODING 10266
SWIDTH 500 0
DWIDTH 8 0
BBX 8 16 0 0
BITMAP
0F
0F
0F
0F
FF
FF
FF
FF
00
00
00
00
00
00
00
00
ENDCHAR

STARTCHAR U+281B
ENCODING 10267
SWIDTH 500 0
DWIDTH 8 0
BBX 8 16 0 0
BITMAP
FF
FF
FF
FF
FF
FF
FF
FF
00
00
00
00
00
00
00
00
ENDCHAR

STARTCHAR U+281C
ENCODING 10268
SWIDTH 500 0
DWIDTH 8 0
BBX 8 16 0 0
BITMAP
0F
0F
0F
0F
0F
0F
0F
0F
F0
F0
F0
F0
00
00
00
00
ENDCHAR

STARTCHAR U+281D
ENCODING 10269
SWIDTH 500 0
DWIDTH 8 0
BBX 8 16 0 0
BITMAP
FF
FF
FF
FF
0F
0F
0F
0F
F0
F0
F0
F0
00
00
00
00
ENDCHAR

STARTCHAR U+281E
ENCODING 10270
SWIDTH 500 0
DWIDTH 8 0
BBX 8 16 0 0
BITMAP
0F
0F
0F
0F
FF
FF
FF
FF
F0
F0
F0
F0
00
00
00
00
ENDCHAR

STARTCHAR U+281F
ENCODING 10271
SWIDTH 500 0
DWIDTH 8 0
BBX 8 16 0 0
BITMAP
FF
FF
FF
FF
FF
FF
FF
FF
F0
F0
F0
F0
00
00
00
00
ENDCHAR

STARTCHAR U+2820
ENCODING 10272
SWIDTH 500 0
DWIDTH 8 0
BBX 8 16 0 0
BITMAP
00
00
00
00
00
00
00
00
0F
0F
0F
0F
00
00
00
00
ENDCHAR

STARTCHAR U+2821
ENCODING 10273
SWIDTH 500 0
DWIDTH 8 0
BBX 8 16 0 0
BITMAP
F0
F0
F0
F0
00
00
00
00
0F
0F
0F
0F
00
00
00
00
ENDCHAR

STARTCHAR U+2822
ENCODING 10274
SWIDTH 500 0
DWIDTH 8 0
BBX 8 16 0 0
BITMAP
00
00
00
00
F0
F0
F0
F0
0F
0F
0F
0F
00
00
00
00
ENDCHAR

STARTCHAR U+2823
ENCODING 10275
SWIDTH 500 0
DWIDTH 8 0
BBX 8 16 0 0
BITMAP
F0
F0
F0
F0
F0
F0
F0
F0
0F
0F
0F
0F
00
00
00
00
ENDCHAR

STARTCHAR U+2824
ENCODING 10276
SWIDTH 500 0
DWIDTH 8 0
BBX 8 16 0 0
BITMAP
00
00
00
00
00
00
00
00
FF
FF
FF
FF
00
00
00
00
ENDCHAR

STARTCHAR U+2825
ENCODING 10277
SWIDTH 500 0
DWIDTH 8 0
BBX 8 16 0 0
BITMAP
F0
F0
F0
F0
00
00
00
00
FF
FF
FF
FF
00
00
00
00
ENDCHAR

STARTCHAR U+2826
ENCODING 10278
SWIDTH 500 0
DWIDTH 8 0
BBX 8 16 0 0
BITMAP
00
00
00
00
F0
F0
F0
F0
FF
FF
FF
FF
00
00
00
00
ENDCHAR

STARTCHAR U+2827
ENCODING 10279
SWIDTH 500 0
DWIDTH 8 0
BBX 8 16 0 0
BITMAP
F0
F0
F0
F0
F0
F0
F0
F0
FF
FF
FF
FF
00
00
00
00
ENDCHAR

STARTCHAR U+2828
ENCODING 10280
SWIDTH 500 0
DWIDTH 8 0
BBX 8 16 0 0
BITMAP
0F
0F
0F
0F
00
00
00
00
0F
0F
0F
0F
00
00
00
00
ENDCHAR

STARTCHAR U+2829
ENCODING 10281
SWIDTH 500 0
DWIDTH 8 0
BBX 8 16 0 0
BITMAP
FF
FF
FF
FF
00
00
00
00
0F
0F
0F
0F
00
00
00
00
ENDCHAR

STARTCHAR U+282A
ENCODING 10282
SWIDTH 500 0
DWIDTH 8 0
BBX 8 16 0 0
BITMAP
0F
0F
0F
0F
F0
F0
F0
F0
0F
0F
0F
0F
00
00
00
00
ENDCHAR

STARTCHAR U+282B
ENCODING 10283
SWIDTH 500 0
DWIDTH 8 0
BBX 8 16 0 0
BITMAP
FF
FF
FF
FF
F0
F0
F0
F0
0F
0F
0F
0F
00
00
00
00
ENDCHAR

STARTCHAR U+282C
ENCODING 10284
SWIDTH 500 0
DWIDTH 8 0
BBX 8 16 0 0
BITMAP
0F
0F
0F
0F
00
00
00
00
FF
FF
FF
FF
00
00
00
00
ENDCHAR

STARTCHAR U+282D
ENCODING 10285
SWIDTH 500 0
DWIDTH 8 0
BBX 8 16 0 0
BITMAP
FF
FF
FF
FF
00
00
00
00
FF
FF
FF
FF
00
00
00
00
ENDCHAR

STARTCHAR U+282E
ENCODING 10286
SWIDTH 500 0
DWIDTH 8 0
BBX 8 16 0 0
BITMAP
0F
0F
0F
0F
F0
F0
F0
F0
FF
FF
FF
FF
00
00
00
00
ENDCHAR

STARTCHAR U+282F
ENCODING 10287
SWIDTH 500 0
DWIDTH 8 0
BBX 8 16 0 0
BITMAP
FF
FF
FF
FF
F0
F0
F0
F0
FF
FF
FF
FF
00
00
00
00
ENDCHAR

STARTCHAR U+2830
ENCODING 10288
SWIDTH 500 0
DWIDTH 8 0
BBX 8 16 0 0
BITMAP
00
00
00
00
0F
0F
0F
0F
0F
0F
0F
0F
00
00
00
00
ENDCHAR

STARTCHAR U+2831
ENCODING 10289
SWIDTH 500 0
DWIDTH 8 0
BBX 8 16 0 0
BITMAP
F0
F0
F0
F0
0F
0F
0F
0F
0F
0F
0F
0F
00
00
00
00
ENDCHAR

STARTCHAR U+2832
ENCODING 10290
SWIDTH 500 0
DWIDTH 8 0
BBX 8 16 0 0
BITMAP
00
00
00
00
FF
FF
FF
FF
0F
0F
0F
0F
00
00
00
00
ENDCHAR

STARTCHAR U+2833
ENCODING 10291
SWIDTH 500 0
DWIDTH 8 0
BBX 8 16 0 0
BITMAP
F0
F0
F0
F0
FF
FF
FF
FF
0F
0F
0F
0F
00
00
00
00
ENDCHAR

STARTCHAR U+2834
ENCODING 10292
SWIDTH 500 0
DWIDTH 8 0
BBX 8 16 0 0
BITMAP
00
00
00
00
0F
0F
0F
0F
FF
FF
FF
FF
00
00
00
00
ENDCHAR

STARTCHAR U+2835
ENCODING 10293
SWIDTH 500 0
DWIDTH 8 0
BBX 8 16 0 0
BITMAP
F0
F0
F0
F0
0F
0F
0F
0F
FF
FF
FF
FF
00
00
00
00
ENDCHAR

STARTCHAR U+2836
ENCODING 10294
SWIDTH 500 0
DWIDTH 8 0
BBX 8 16 0 0
BITMAP
00
00
00
00
FF
FF
FF
FF
FF
FF
FF
FF
00
00
00
00
ENDCHAR

STARTCHAR U+2837
ENCODING 10295
SWIDTH 500 0
DWIDTH 8 0
BBX 8 16 0 0
BITMAP
F0
F0
F0
F0
FF
FF
FF
FF
FF
FF
FF
FF
00
00
00
00
ENDCHAR

STARTCHAR U+2838
ENCODING 10296
SWIDTH 500 0
DWIDTH 8 0
BBX 8 16 0 0
BITMAP
0F
0F
0F
0F
0F
0F
0F
0F
0F
0F
0F
0F
00
00
00
00
ENDCHAR

STARTCHAR U+2839
ENCODING 10297
SWIDTH 500 0
DWIDTH 8 0
BBX 8 16 0 0
BITMAP
FF
FF
FF
FF
0F
0F
0F
0F
0F
0F
0F
0F
00
00
00
00
ENDCHAR

STARTCHAR U+283A
ENCODING 10298
SWIDTH 500 0
DWIDTH 8 0
BBX 8 16 0 0
BITMAP
0F
0F
0F
0F
FF
FF
FF
FF
0F
0F
0F
0F
00
00
00
00
ENDCHAR

STARTCHAR U+283B
ENCODING 10299
SWIDTH 500 0
DWIDTH 8 0
BBX 8 16 0 0
BITMAP
FF
FF
FF
FF
FF
FF
FF
FF
0F
0F
0F
0F
00
00
00
00
ENDCHAR

STARTCHAR U+283C
ENCODING 10300
SWIDTH 500 0
DWIDTH 8 0
BBX 8 16 0 0
BITMAP
0F
0F
0F
0F
0F
0F
0F
0F
FF
FF
FF
FF
00
00
00
00
ENDCHAR

STARTCHAR U+283D
ENCODING 10301
SWIDTH 500 0
DWIDTH 8 0
BBX 8 16 0 0
BITMAP
FF
FF
FF
FF
0F
0F
0F
0F
FF
FF
FF
FF
00
00
00
00
ENDCHAR

STARTCHAR U+283E
ENCODING 10302
SWIDTH 500 0
DWIDTH 8 0
BBX 8 16 0 0
BITMAP
0F
0F
0F
0F
FF
FF
FF
FF
FF
FF
FF
FF
00
00
00
00
ENDCHAR

STARTCHAR U+283F
ENCODING 10303
SWIDTH 500 0
DWIDTH 8 0
BBX 8 16 0 0
BITMAP
FF
FF
FF
FF
FF
FF
FF
FF
FF
FF
FF
FF
00
00
00
00
ENDCHAR

STARTCHAR U+2840
ENCODING 10304
SWIDTH 500 0
DWIDTH 8 0
BBX 8 16 0 0
BITMAP
00
00
00
00
00
00
00
00
00
00
00
00
F0
F0
F0
F0
ENDCHAR

STARTCHAR U+2841
ENCODING 10305
SWIDTH 500 0
DWIDTH 8 0
BBX 8 16 0 0
BITMAP
F0
F0
F0
F0
00
00
00
00
00
00
00
00
F0
F0
F0
F0
ENDCHAR

STARTCHAR U+2842
ENCODING 10306
SWIDTH 500 0
DWIDTH 8 0
BBX 8 16 0 0
BITMAP
00
00
00
00
F0
F0
F0
F0
00
00
00
00
F0
F0
F0
F0
ENDCHAR

STARTCHAR U+2843
ENCODING 10307
SWIDTH 500 0
DWIDTH 8 0
BBX 8 16 0 0
BITMAP
F0
F0
F0
F0
F0
F0
F0
F0
00
00
00
00
F0
F0
F0
F0
ENDCHAR

STARTCHAR U+2844
ENCODING 10308
SWIDTH 500 0
DWIDTH 8 0
BBX 8 16 0 0
BITMAP
00
00
00
00
00
00
00
00
F0
F0
F0
F0
F0
F0
F0
F0
ENDCHAR

STARTCHAR U+2845
ENCODING 10309
SWIDTH 500 0
DWIDTH 8 0
BBX 8 16 0 0
BITMAP
F0
F0
F0
F0
00
00
00
00
F0
F0
F0
F0
F0
F0
F0
F0
ENDCHAR

STARTCHAR U+2846
ENCODING 10310
SWIDTH 500 0
DWIDTH 8 0
BBX 8 16 0 0
BITMAP
00
00
00
00
F0
F0
F0
F0
F0
F0
F0
F0
F0
F0
F0
F0
ENDCHAR

STARTCHAR U+2847
ENCODING 10311
SWIDTH 500 0
DWIDTH 8 0
BBX 8 16 0 0
BITMAP
F0
F0
F0
F0
F0
F0
F0
F0
F0
F0
F0
F0
F0
F0
F0
F0
ENDCHAR

STARTCHAR U+2848
ENCODING 10312
SWIDTH 500 0
DWIDTH 8 0
BBX 8 16 0 0
BITMAP
0F
0F
0F
0F
00
00
00
00
00
00
00
00
F0
F0
F0
F0
ENDCHAR

STARTCHAR U+2849
ENCODING 10313
SWIDTH 500 0
DWIDTH 8 0
BBX 8 16 0 0
BITMAP
FF
FF
FF
FF
00
00
00
00
00
00
00
00
F0
F0
F0
F0
ENDCHAR

STARTCHAR U+284A
ENCODING 10314
SWIDTH 500 0
DWIDTH 8 0
BBX 8 16 0 0
BITMAP
0F
0F
0F
0F
F0
F0
F0
F0
00
00
00
00
F0
F0
F0
F0
ENDCHAR

STARTCHAR U+284B
ENCODING 10315
SWIDTH 500 0
DWIDTH 8 0
BBX 8 16 0 0
BITMAP
FF
FF
FF
FF
F0
F0
F0
F0
00
00
00
00
F0
F0
F0
F0
ENDCHAR

STARTCHAR U+284C
ENCODING 10316
SWIDTH 500 0
DWIDTH 8 0
BBX 8 16 0 0
BITMAP
0F
0F
0F
0F
00
00
00
00
F0
F0
F0
F0
F0
F0
F0
F0
ENDCHAR

STARTCHAR U+284D
ENCODING 10317
SWIDTH 500 0
DWIDTH 8 0
BBX 8 16 0 0
BITMAP
FF
FF
FF
FF
00
00
00
00
F0
F0
F0
F0
F0
F0
F0
F0
ENDCHAR

STARTCHAR U+284E
ENCODING 10318
SWIDTH 500 0
DWIDTH 8 0
BBX 8 16 0 0
BITMAP
0F
0F
0F
0F
F0
F0
F0
F0
F0
F0
F0
F0
F0
F0
F0
F0
ENDCHAR

STARTCHAR U+284F
ENCODING 10319
SWIDTH 500 0
DWIDTH 8 0
BBX 8 16 0 0
BITMAP
FF
FF
FF
FF
F0
F0
F0
F0
F0
F0
F0
F0
F0
F0
F0
F0
ENDCHAR

STARTCHAR U+2850
ENCODING 10320
SWIDTH 500 0
DWIDTH 8 0
BBX 8 16 0 0
BITMAP
00
00
00
00
0F
0F
0F
0F
00
00
00
00
F0
F0
F0
F0
ENDCHAR

STARTCHAR U+2851
ENCODING 10321
SWIDTH 500 0
DWIDTH 8 0
BBX 8 16 0 0
BITMAP
F0
F0
F0
F0
0F
0F
0F
0F
00
00
00
00
F0
F0
F0
F0
ENDCHAR

STARTCHAR U+2852
ENCODING 10322
SWIDTH 500 0
DWIDTH 8 0
BBX 8 16 0 0
BITMAP
00
00
00
00
FF
FF
FF
FF
00
00
00
00
F0
F0
F0
F0
ENDCHAR

STARTCHAR U+2853
ENCODING 10323
SWIDTH 500 0
DWIDTH 8 0
BBX 8 16 0 0
BITMAP
F0
F0
F0
F0
FF
FF
FF
FF
00
00
00
00
F0
F0
F0
F0
ENDCHAR

STARTCHAR U+2854
ENCODING 10324
SWIDTH 500 0
DWIDTH 8 0
BBX 8 16 0 0
BITMAP
00
00
00
00
0F
0F
0F
0F
F0
F0
F0
F0
F0
F0
F0
F0
ENDCHAR

STARTCHAR U+2855
ENCODING 10325
SWIDTH 500 0
DWIDTH 8 0
BBX 8 16 0 0
BITMAP
F0
F0
F0
F0
0F
0F
0F
0F
F0
F0
F0
F0
F0
F0
F0
F0
ENDCHAR

STARTCHAR U+2856
ENCODING 10326
SWIDTH 500 0
DWIDTH 8 0
BBX 8 16 0 0
BITMAP
00
00
00
00
FF
FF
FF
FF
F0
F0
F0
F0
F0
F0
F0
F0
ENDCHAR

STARTCHAR U+2857
ENCODING 10327
SWIDTH 500 0
DWIDTH 8 0
BBX 8 16 0 0
BITMAP
F0
F0
F0
F0
FF
FF
FF
FF
F0
F0
F0
F0
F0
F0
F0
F0
ENDCHAR

STARTCHAR U+2858
ENCODING 10328
SWIDTH 500 0
DWIDTH 8 0
BBX 8 16 0 0
BITMAP
0F
0F
0F
0F
0F
0F
0F
0F
00
00
00
00
F0
F0
F0
F0
ENDCHAR

STARTCHAR U+2859
ENCODING 10329
SWIDTH 500 0
DWIDTH 8 0
BBX 8 16 0 0
BITMAP
FF
FF
FF
FF
0F
0F
0F
0F
00
00
00
00
F0
F0
F0
F0
ENDCHAR

STARTCHAR U+285A
ENCODING 10330
SWIDTH 500 0
DWIDTH 8 0
BBX 8 16 0 0
BITMAP
0F
0F
0F
0F
FF
FF
FF
FF
00
00
00
00
F0
F0
F0
F0
ENDCHAR

STARTCHAR U+285B
ENCODING 10331
SWIDTH 500 0
DWIDTH 8 0
BBX 8 16 0 0
BITMAP
FF
FF
FF
FF
FF
FF
FF
FF
00
00
00
00
F0
F0
F0
F0
ENDCHAR

STARTCHAR U+285C
ENCODING 10332
SWIDTH 500 0
DWIDTH 8 0
BBX 8 16 0 0
BITMAP
0F
0F
0F
0F
0F
0F
0F
0F
F0
F0
F0
F0
F0
F0
F0
F0
ENDCHAR

STARTCHAR U+285D
ENCODING 10333
SWIDTH 500 0
DWIDTH 8 0
BBX 8 16 0 0
BITMAP
FF
FF
FF
FF
0F
0F
0F
0F
F0
F0
F0
F0
F0
F0
F0
F0
ENDCHAR

STARTCHAR U+285E
ENCODING 10334
SWIDTH 500 0
DWIDTH 8 0
BBX 8 16 0 0
BITMAP
0F
0F
0F
0F
FF
FF
FF
FF
F0
F0
F0
F0
F0
F0
F0
F0
ENDCHAR

STARTCHAR U+285F
ENCODING 10335
SWIDTH 500 0
DWIDTH 8 0
BBX 8 16 0 0
BITMAP
FF
FF
FF
FF
FF
FF
FF
FF
F0
F0
F0
F0
F0
F0
F0
F0
ENDCHAR

STARTCHAR U+2860
ENCODING 10336
SWIDTH 500 0
DWIDTH 8 0
BBX 8 16 0 0
BITMAP
00
00
00
00
00
00
00
00
0F
0F
0F
0F
F0
F0
F0
F0
ENDCHAR

STARTCHAR U+2861
ENCODING 10337
SWIDTH 500 0
DWIDTH 8 0
BBX 8 16 0 0
BITMAP
F0
F0
F0
F0
00
00
00
00
0F
0F
0F
0F
F0
F0
F0
F0
ENDCHAR

STARTCHAR U+2862
ENCODING 10338
SWIDTH 500 0
DWIDTH 8 0
BBX 8 16 0 0
BITMAP
00
00
00
00
F0
F0
F0
F0
0F
0F
0F
0F
F0
F0
F0
F0
ENDCHAR

STARTCHAR U+2863
ENCODING 10339
SWIDTH 500 0
DWIDTH 8 0
BBX 8 16 0 0
BITMAP
F0
F0
F0
F0
F0
F0
F0
F0
0F
0F
0F
0F
F0
F0
F0
F0
ENDCHAR

STARTCHAR U+2864
ENCODING 10340
SWIDTH 500 0
DWIDTH 8 0
BBX 8 16 0 0
BITMAP
00
00
00
00
00
00
00
00
FF
FF
FF
FF
F0
F0
F0
F0
ENDCHAR

STARTCHAR U+2865
ENCODING 10341
SWIDTH 500 0
DWIDTH 8 0
BBX 8 16 0 0
BITMAP
F0
F0
F0
F0
00
00
00
00
FF
FF
FF
FF
F0
F0
F0
F0
ENDCHAR

STARTCHAR U+2866
ENCODING 10342
SWIDTH 500 0
DWIDTH 8 0
BBX 8 16 0 0
BITMAP
00
00
00
00
F0
F0
F0
F0
FF
FF
FF
FF
F0
F0
F0
F0
ENDCHAR

STARTCHAR U+2867
ENCODING 10343
SWIDTH 500 0
DWIDTH 8 0
BBX 8 16 0 0
BITMAP
F0
F0
F0
F0
F0
F0
F0
F0
FF
FF
FF
FF
F0
F0
F0
F0
ENDCHAR

STARTCHAR U+2868
ENCODING 10344
SWIDTH 500 0
DWIDTH 8 0
BBX 8 16 0 0
BITMAP
0F
0F
0F
0F
00
00
00
00
0F
0F
0F
0F
F0
F0
F0
F0
ENDCHAR

STARTCHAR U+2869
ENCODING 10345
SWIDTH 500 0
DWIDTH 8 0
BBX 8 16 0 0
BITMAP
FF
FF
FF
FF
00
00
00
00
0F
0F
0F
0F
F0
F0
F0
F0
ENDCHAR

STARTCHAR U+286A
ENCODING 10346
SWIDTH 500 0
DWIDTH 8 0
BBX 8 16 0 0
BITMAP
0F
0F
0F
0F
F0
F0
F0
F0
0F
0F
0F
0F
F0
F0
F0
F0
ENDCHAR

STARTCHAR U+286B
ENCODING 10347
SWIDTH 500 0
DWIDTH 8 0
BBX 8 16 0 0
BITMAP
FF
FF
FF
FF
F0
F0
F0
F0
0F
0F
0F
0F
F0
F0
F0
F0
ENDCHAR

STARTCHAR U+286C
ENCODING 10348
SWIDTH 500 0
DWIDTH 8 0
BBX 8 16 0 0
BITMAP
0F
0F
0F
0F
00
00
00
00
FF
FF
FF
FF
F0
F0
F0
F0
ENDCHAR

STARTCHAR U+286D
ENCODING 10349
SWIDTH 500 0
DWIDTH 8 0
BBX 8 16 0 0
BITMAP
FF
FF
FF
FF
00
00
00
00
FF
FF
FF
FF
F0
F0
F0
F0
ENDCHAR

STARTCHAR U+286E
ENCODING 10350
SWIDTH 500 0
DWIDTH 8 0
BBX 8 16 0 0
BITMAP
0F
0F
0F
0F
F0
F0
F0
F0
FF
FF
FF
FF
F0
F0
F0
F0
ENDCHAR

STARTCHAR U+286F
ENCODING 10351
SWIDTH 500 0
DWIDTH 8 0
BBX 8 16 0 0
BITMAP
FF
FF
FF
FF
F0
F0
F0
F0
FF
FF
FF
FF
F0
F0
F0
F0
ENDCHAR

STARTCHAR U+2870
ENCODING 10352
SWIDTH 500 0
DWIDTH 8 0
BBX 8 16 0 0
BITMAP
00
00
00
00
0F
0F
0F
0F
0F
0F
0F
0F
F0
F0
F0
F0
ENDCHAR

STARTCHAR U+2871
ENCODING 10353
SWIDTH 500 0
DWIDTH 8 0
BBX 8 16 0 0
BITMAP
F0
F0
F0
F0
0F
0F
0F
0F
0F
0F
0F
0F
F0
F0
F0
F0
ENDCHAR

STARTCHAR U+2872
ENCODING 10354
SWIDTH 500 0
DWIDTH 8 0
BBX 8 16 0 0
BITMAP
00
00
00
00
FF
FF
FF
FF
0F
0F
0F
0F
F0
F0
F0
F0
ENDCHAR

STARTCHAR U+2873
ENCODING 10355
SWIDTH 500 0
DWIDTH 8 0
BBX 8 16 0 0
BITMAP
F0
F0
F0
F0
FF
FF
FF
FF
0F
0F
0F
0F
F0
F0
F0
F0
ENDCHAR

STARTCHAR U+2874
ENCODING 10356
SWIDTH 500 0
DWIDTH 8 0
BBX 8 16 0 0
BITMAP
00
00
00
00
0F
0F
0F
0F
FF
FF
FF
FF
F0
F0
F0
F0
ENDCHAR

STARTCHAR U+2875
ENCODING 10357
SWIDTH 500 0
DWIDTH 8 0
BBX 8 16 0 0
BITMAP
F0
F0
F0
F0
0F
0F
0F
0F
FF
FF
FF
FF
F0
F0
F0
F0
ENDCHAR

STARTCHAR U+2876
ENCODING 10358
SWIDTH 500 0
DWIDTH 8 0
BBX 8 16 0 0
BITMAP
00
00
00
00
FF
FF
FF
FF
FF
FF
FF
FF
F0
F0
F0
F0
ENDCHAR

STARTCHAR U+2877
ENCODING 10359
SWIDTH 500 0
DWIDTH 8 0
BBX 8 16 0 0
BITMAP
F0
F0
F0
F0
FF
FF
FF
FF
FF
FF
FF
FF
F0
F0
F0
F0
ENDCHAR

STARTCHAR U+2878
ENCODING 10360
SWIDTH 500 0
DWIDTH 8 0
BBX 8 16 0 0
BITMAP
0F
0F
0F
0F
0F
0F
0F
0F
0F
0F
0F
0F
F0
F0
F0
F0
ENDCHAR

STARTCHAR U+2879
ENCODING 10361
SWIDTH 500 0
DWIDTH 8 0
BBX 8 16 0 0
BITMAP
FF
FF
FF
FF
0F
0F
0F
0F
0F
0F
0F
0F
F0
F0
F0
F0
ENDCHAR

STARTCHAR U+287A
ENCODING 10362
SWIDTH 500 0
DWIDTH 8 0
BBX 8 16 0 0
BITMAP
0F
0F
0F
0F
FF
FF
FF
FF
0F
0F
0F
0F
F0
F0
F0
F0
ENDCHAR

STARTCHAR U+287B
ENCODING 10363
SWIDTH 500 0
DWIDTH 8 0
BBX 8 16 0 0
BITMAP
FF
FF
FF
FF
FF
FF
FF
FF
0F
0F
0F
0F
F0
F0
F0
F0
ENDCHAR

STARTCHAR U+287C
ENCODING 10364
SWIDTH 500 0
DWIDTH 8 0
BBX 8 16 0 0
BITMAP
0F
0F
0F
0F
0F
0F
0F
0F
FF
FF
FF
FF
F0
F0
F0
F0
ENDCHAR

STARTCHAR U+287D
ENCODING 10365
SWIDTH 500 0
DWIDTH 8 0
BBX 8 16 0 0
BITMAP
FF
FF
FF
FF
0F
0F
0F
0F
FF
FF
FF
FF
F0
F0
F0
F0
ENDCHAR

STARTCHAR U+287E
ENCODING 10366
SWIDTH 500 0
DWIDTH 8 0
BBX 8 16 0 0
BITMAP
0F
0F
0F
0F
FF
FF
FF
FF
FF
FF
FF
FF
F0
F0
F0
F0
ENDCHAR

STARTCHAR U+287F
ENCODING 10367
SWIDTH 500 0
DWIDTH 8 0
BBX 8 16 0 0
BITMAP
FF
FF
FF
FF
FF
FF
FF
FF
FF
FF
FF
FF
F0
F0
F0
F0
ENDCHAR

STARTCHAR U+2880
ENCODING 10368
SWIDTH 500 0
DWIDTH 8 0
BBX 8 16 0 0
BITMAP
00
00
00
00
00
00
00
00
00
00
00
00
0F
0F
0F
0F
ENDCHAR

STARTCHAR U+2881
ENCODING 10369
SWIDTH 500 0
DWIDTH 8 0
BBX 8 16 0 0
BITMAP
F0
F0
F0
F0
00
00
00
00
00
00
00
00
0F
0F
0F
0F
ENDCHAR

STARTCHAR U+2882
ENCODING 10370
SWIDTH 500 0
DWIDTH 8 0
BBX 8 16 0 0
BITMAP
00
00
00
00
F0
F0
F0
F0
00
00
00
00
0F
0F
0F
0F
ENDCHAR

STARTCHAR U+2883
ENCODING 10371
SWIDTH 500 0
DWIDTH 8 0
BBX 8 16 0 0
BITMAP
F0
F0
F0
F0
F0
F0
F0
F0
00
00
00
00
0F
0F
0F
0F
ENDCHAR

STARTCHAR U+2884
ENCODING 10372
SWIDTH 500 0
DWIDTH 8 0
BBX 8 16 0 0
BITMAP
00
00
00
00
00
00
00
00
F0
F0
F0
F0
0F
0F
0F
0F
ENDCHAR

STARTCHAR U+2885
ENCODING 10373
SWIDTH 500 0
DWIDTH 8 0
BBX 8 16 0 0
BITMAP
F0
F0
F0
F0
00
00
00
00
F0
F0
F0
F0
0F
0F
0F
0F
ENDCHAR

STARTCHAR U+2886
ENCODING 10374
SWIDTH 500 0
DWIDTH 8 0
BBX 8 16 0 0
BITMAP
00
00
00
00
F0
F0
F0
F0
F0
F0
F0
F0
0F
0F
0F
0F
ENDCHAR

STARTCHAR U+2887
ENCODING 10375
SWIDTH 500 0
DWIDTH 8 0
BBX 8 16 0 0
BITMAP
F0
F0
F0
F0
F0
F0
F0
F0
F0
F0
F0
F0
0F
0F
0F
0F
ENDCHAR

STARTCHAR U+2888
ENCODING 10376
SWIDTH 500 0
DWIDTH 8 0
BBX 8 16 0 0
BITMAP
0F
0F
0F
0F
00
00
00
00
00
00
00
00
0F
0F
0F
0F
ENDCHAR

STARTCHAR U+2889
ENCODING 10377
SWIDTH 500 0
DWIDTH 8 0
BBX 8 16 0 0
BITMAP
FF
FF
FF
FF
00
00
00
00
00
00
00
00
0F
0F
0F
0F
ENDCHAR

STARTCHAR U+288A
ENCODING 10378
SWIDTH 500 0
DWIDTH 8 0
BBX 8 16 0 0
BITMAP
0F
0F
0F
0F
F0
F0
F0
F0
00
00
00
00
0F
0F
0F
0F
ENDCHAR

STARTCHAR U+288B
ENCODING 10379
SWIDTH 500 0
DWIDTH 8 0
BBX 8 16 0 0
BITMAP
FF
FF
FF
FF
F0
F0
F0
F0
00
00
00
00
0F
0F
0F
0F
ENDCHAR

STARTCHAR U+288C
ENCODING 10380
SWIDTH 500 0
DWIDTH 8 0
BBX 8 16 0 0
BITMAP
0F
0F
0F
0F
00
00
00
00
F0
F0
F0
F0
0F
0F
0F
0F
ENDCHAR

STARTCHAR U+288D
ENCODING 10381
SWIDTH 500 0
DWIDTH 8 0
BBX 8 16 0 0
BITMAP
FF
FF
FF
FF
00
00
00
00
F0
F0
F0
F0
0F
0F
0F
0F
ENDCHAR

STARTCHAR U+288E
ENCODING 10382
SWIDTH 500 0
DWIDTH 8 0
BBX 8 16 0 0
BITMAP
0F
0F
0F
0F
F0
F0
F0
F0
F0
F0
F0
F0
0F
0F
0F
0F
ENDCHAR

STARTCHAR U+288F
ENCODING 10383
SWIDTH 500 0
DWIDTH 8 0
BBX 8 16 0 0
BITMAP
FF
FF
FF
FF
F0
F0
F0
F0
F0
F0
F0
F0
0F
0F
0F
0F
ENDCHAR

STARTCHAR U+2890
ENCODING 10384
SWIDTH 500 0
DWIDTH 8 0
BBX 8 16 0 0
BITMAP
00
00
00
00
0F
0F
0F
0F
00
00
00
00
0F
0F
0F
0F
ENDCHAR

STARTCHAR U+2891
ENCODING 10385
SWIDTH 500 0
DWIDTH 8 0
BBX 8 16 0 0
BITMAP
F0
F0
F0
F0
0F
0F
0F
0F
00
00
00
00
0F
0F
0F
0F
ENDCHAR

STARTCHAR U+2892
ENCODING 10386
SWIDTH 500 0
DWIDTH 8 0
BBX 8 16 0 0
BITMAP
00
00
00
00
FF
FF
FF
FF
00
00
00
00
0F
0F
0F
0F
ENDCHAR

STARTCHAR U+2893
ENCODING 10387
SWIDTH 500 0
DWIDTH 8 0
BBX 8 16 0 0
BITMAP
F0
F0
F0
F0
FF
FF
FF
FF
00
00
00
00
0F
0F
0F
0F
ENDCHAR

STARTCHAR U+2894
ENCODING 10388
SWIDTH 500 0
DWIDTH 8 0
BBX 8 16 0 0
BITMAP
00
00
00
00
0F
0F
0F
0F
F0
F0
F0
F0
0F
0F
0F
0F
ENDCHAR

STARTCHAR U+2895
ENCODING 10389
SWIDTH 500 0
DWIDTH 8 0
BBX 8 16 0 0
BITMAP
F0
F0
F0
F0
0F
0F
0F
0F
F0
F0
F0
F0
0F
0F
0F
0F
ENDCHAR

STARTCHAR U+2896
ENCODING 10390
SWIDTH 500 0
DWIDTH 8 0
BBX 8 16 0 0
BITMAP
00
00
00
00
FF
FF
FF
FF
F0
F0
F0
F0
0F
0F
0F
0F
ENDCHAR

STARTCHAR U+2897
ENCODING 10391
SWIDTH 500 0
DWIDTH 8 0
BBX 8 16 0 0
BITMAP
F0
F0
F0
F0
FF
FF
FF
FF
F0
F0
F0
F0
0F
0F
0F
0F
ENDCHAR

STARTCHAR U+2898
ENCODING 10392
SWIDTH 500 0
DWIDTH 8 0
BBX 8 16 0 0
BITMAP
0F
0F
0F
0F
0F
0F
0F
0F
00
00
00
00
0F
0F
0F
0F
ENDCHAR

STARTCHAR U+2899
ENCODING 10393
SWIDTH 500 0
DWIDTH 8 0
BBX 8 16 0 0
BITMAP
FF
FF
FF
FF
0F
0F
0F
0F
00
00
00
00
0F
0F
0F
0F
ENDCHAR

STARTCHAR U+289A
ENCODING 10394
SWIDTH 500 0
DWIDTH 8 0
BBX 8 16 0 0
BITMAP
0F
0F
0F
0F
FF
FF
FF
FF
00
00
00
00
0F
0F
0F
0F
ENDCHAR

STARTCHAR U+289B
ENCODING 10395
SWIDTH 500 0
DWIDTH 8 0
BBX 8 16 0 0
BITMAP
FF
FF
FF
FF
FF
FF
FF
FF
00
00
00
00
0F
0F
0F
0F
ENDCHAR

STARTCHAR U+289C
ENCODING 10396
SWIDTH 500 0
DWIDTH 8 0
BBX 8 16 0 0
BITMAP
0F
0F
0F
0F
0F
0F
0F
0F
F0
F0
F0
F0
0F
0F
0F
0F
ENDCHAR

STARTCHAR U+289D
ENCODING 10397
SWIDTH 500 0
DWIDTH 8 0
BBX 8 16 0 0
BITMAP
FF
FF
FF
FF
0F
0F
0F
0F
F0
F0
F0
F0
0F
0F
0F
0F
ENDCHAR

STARTCHAR U+289E
ENCODING 10398
SWIDTH 500 0
DWIDTH 8 0
BBX 8 16 0 0
BITMAP
0F
0F
0F
0F
FF
FF
FF
FF
F0
F0
F0
F0
0F
0F
0F
0F
ENDCHAR

STARTCHAR U+289F
ENCODING 10399
SWIDTH 500 0
DWIDTH 8 0
BBX 8 16 0 0
BITMAP
FF
FF
FF
FF
FF
FF
FF
FF
F0
F0
F0
F0
0F
0F
0F
0F
ENDCHAR

STARTCHAR U+28A0
ENCODING 10400
SWIDTH 500 0
DWIDTH 8 0
BBX 8 16 0 0
BITMAP
00
00
00
00
00
00
00
00
0F
0F
0F
0F
0F
0F
0F
0F
ENDCHAR

STARTCHAR U+28A1
ENCODING 10401
SWIDTH 500 0
DWIDTH 8 0
BBX 8 16 0 0
BITMAP
F0
F0
F0
F0
00
00
00
00
0F
0F
0F
0F
0F
0F
0F
0F
ENDCHAR

STARTCHAR U+28A2
ENCODING 10402
SWIDTH 500 0
DWIDTH 8 0
BBX 8 16 0 0
BITMAP
00
00
00
00
F0
F0
F0
F0
0F
0F
0F
0F
0F
0F
0F
0F
ENDCHAR

STARTCHAR U+28A3
ENCODING 10403
SWIDTH 500 0
DWIDTH 8 0
BBX 8 16 0 0
BITMAP
F0
F0
F0
F0
F0
F0
F0
F0
0F
0F
0F
0F
0F
0F
0F
0F
ENDCHAR

STARTCHAR U+28A4
ENCODING 10404
SWIDTH 500 0
DWIDTH 8 0
BBX 8 16 0 0
BITMAP
00
00
00
00
00
00
00
00
FF
FF
FF
FF
0F
0F
0F
0F
ENDCHAR

STARTCHAR U+28A5
ENCODING 10405
SWIDTH 500 0
DWIDTH 8 0
BBX 8 16 0 0
BITMAP
F0
F0
F0
F0
00
00
00
00
FF
FF
FF
FF
0F
0F
0F
0F
ENDCHAR

STARTCHAR U+28A6
ENCODING 10406
SWIDTH 500 0
DWIDTH 8 0
BBX 8 16 0 0
BITMAP
00
00
00
00
F0
F0
F0
F0
FF
FF
FF
FF
0F
0F
0F
0F
ENDCHAR

STARTCHAR U+28A7
ENCODING 10407
SWIDTH 500 0
DWIDTH 8 0
BBX 8 16 0 0
BITMAP
F0
F0
F0
F0
F0
F0
F0
F0
FF
FF
FF
FF
0F
0F
0F
0F
ENDCHAR

STARTCHAR U+28A8
ENCODING 10408
SWIDTH 500 0
DWIDTH 8 0
BBX 8 16 0 0
BITMAP
0F
0F
0F
0F
00
00
00
00
0F
0F
0F
0F
0F
0F
0F
0F
ENDCHAR

STARTCHAR U+28A9
ENCODING 10409
SWIDTH 500 0
DWIDTH 8 0
BBX 8 16 0 0
BITMAP
FF
FF
FF
FF
00
00
00
00
0F
0F
0F
0F
0F
0F
0F
0F
ENDCHAR

STARTCHAR U+28AA
ENCODING 10410
SWIDTH 500 0
DWIDTH 8 0
BBX 8 16 0 0
BITMAP
0F
0F
0F
0F
F0
F0
F0
F0
0F
0F
0F
0F
0F
0F
0F
0F
ENDCHAR

STARTCHAR U+28AB
ENCODING 10411
SWIDTH 500 0
DWIDTH 8 0
BBX 8 16 0 0
BITMAP
FF
FF
FF
FF
F0
F0
F0
F0
0F
0F
0F
0F
0F
0F
0F
0F
ENDCHAR

STARTCHAR U+28AC
ENCODING 10412
SWIDTH 500 0
DWIDTH 8 0
BBX 8 16 0 0
BITMAP
0F
0F
0F
0F
00
00
00
00
FF
FF
FF
FF
0F
0F
0F
0F
ENDCHAR

STARTCHAR U+28AD
ENCODING 10413
SWIDTH 500 0
DWIDTH 8 0
BBX 8 16 0 0
BITMAP
FF
FF
FF
FF
00
00
00
00
FF
FF
FF
FF
0F
0F
0F
0F
ENDCHAR

STARTCHAR U+28AE
ENCODING 10414
SWIDTH 500 0
DWIDTH 8 0
BBX 8 16 0 0
BITMAP
0F
0F
0F
0F
F0
F0
F0
F0
FF
FF
FF
FF
0F
0F
0F
0F
ENDCHAR

STARTCHAR U+28AF
ENCODING 10415
SWIDTH 500 0
DWIDTH 8 0
BBX 8 16 0 0
BITMAP
FF
FF
FF
FF
F0
F0
F0
F0
FF
FF
FF
FF
0F
0F
0F
0F
ENDCHAR

STARTCHAR U+28B0
ENCODING 10416
SWIDTH 500 0
DWIDTH 8 0
BBX 8 16 0 0
BITMAP
00
00
00
00
0F
0F
0F
0F
0F
0F
0F
0F
0F
0F
0F
0F
ENDCHAR

STARTCHAR U+28B1
ENCODING 10417
SWIDTH 500 0
DWIDTH 8 0
BBX 8 16 0 0
BITMAP
F0
F0
F0
F0
0F
0F
0F
0F
0F
0F
0F
0F
0F
0F
0F
0F
ENDCHAR

STARTCHAR U+28B2
ENCODING 10418
SWIDTH 500 0
DWIDTH 8 0
BBX 8 16 0 0
BITMAP
00
00
00
00
FF
FF
FF
FF
0F
0F
0F
0F
0F
0F
0F
0F
ENDCHAR

STARTCHAR U+28B3
ENCODING 10419
SWIDTH 500 0
DWIDTH 8 0
BBX 8 16 0 0
BITMAP
F0
F0
F0
F0
FF
FF
FF
FF
0F
0F
0F
0F
0F
0F
0F
0F
ENDCHAR

STARTCHAR U+28B4
ENCODING 10420
SWIDTH 500 0
DWIDTH 8 0
BBX 8 16 0 0
BITMAP
00
00
00
00
0F
0F
0F
0F
FF
FF
FF
FF
0F
0F
0F
0F
ENDCHAR

STARTCHAR U+28B5
ENCODING 10421
SWIDTH 500 0
DWIDTH 8 0
BBX 8 16 0 0
BITMAP
F0
F0
F0
F0
0F
0F
0F
0F
FF
FF
FF
FF
0F
0F
0F
0F
ENDCHAR

STARTCHAR U+28B6
ENCODING 10422
SWIDTH 500 0
DWIDTH 8 0
BBX 8 16 0 0
BITMAP
00
00
00
00
FF
FF
FF
FF
FF
FF
FF
FF
0F
0F
0F
0F
ENDCHAR

STARTCHAR U+28B7
ENCODING 10423
SWIDTH 500 0
DWIDTH 8 0
BBX 8 16 0 0
BITMAP
F0
F0
F0
F0
FF
FF
FF
FF
FF
FF
FF
FF
0F
0F
0F
0F
ENDCHAR

STARTCHAR U+28B8
ENCODING 10424
SWIDTH 500 0
DWIDTH 8 0
BBX 8 16 0 0
BITMAP
0F
0F
0F
0F
0F
0F
0F
0F
0F
0F
0F
0F
0F
0F
0F
0F
ENDCHAR

STARTCHAR U+28B9
ENCODING 10425
SWIDTH 500 0
DWIDTH 8 0
BBX 8 16 0 0
BITMAP
FF
FF
FF
FF
0F
0F
0F
0F
0F
0F
0F
0F
0F
0F
0F
0F
ENDCHAR

STARTCHAR U+28BA
ENCODING 10426
SWIDTH 500 0
DWIDTH 8 0
BBX 8 16 0 0
BITMAP
0F
0F
0F
0F
FF
FF
FF
FF
0F
0F
0F
0F
0F
0F
0F
0F
ENDCHAR

STARTCHAR U+28BB
ENCODING 10427
SWIDTH 500 0
DWIDTH 8 0
BBX 8 16 0 0
BITMAP
FF
FF
FF
FF
FF
FF
FF
FF
0F
0F
0F
0F
0F
0F
0F
0F
ENDCHAR

STARTCHAR U+28BC
ENCODING 10428
SWIDTH 500 0
DWIDTH 8 0
BBX 8 16 0 0
BITMAP
0F
0F
0F
0F
0F
0F
0F
0F
FF
FF
FF
FF
0F
0F
0F
0F
ENDCHAR

STARTCHAR U+28BD
ENCODING 10429
SWIDTH 500 0
DWIDTH 8 0
BBX 8 16 0 0
BITMAP
FF
FF
FF
FF
0F
0F
0F
0F
FF
FF
FF
FF
0F
0F
0F
0F
ENDCHAR

STARTCHAR U+28BE
ENCODING 10430
SWIDTH 500 0
DWIDTH 8 0
BBX 8 16 0 0
BITMAP
0F
0F
0F
0F
FF
FF
FF
FF
FF
FF
FF
FF
0F
0F
0F
0F
ENDCHAR

STARTCHAR U+28BF
ENCODING 10431
SWIDTH 500 0
DWIDTH 8 0
BBX 8 16 0 0
BITMAP
FF
FF
FF
FF
FF
FF
FF
FF
FF
FF
FF
FF
0F
0F
0F
0F
ENDCHAR

STARTCHAR U+28C0
ENCODING 10432
SWIDTH 500 0
DWIDTH 8 0
BBX 8 16 0 0
BITMAP
00
00
00
00
00
00
00
00
00
00
00
00
FF
FF
FF
FF
ENDCHAR

STARTCHAR U+28C1
ENCODING 10433
SWIDTH 500 0
DWIDTH 8 0
BBX 8 16 0 0
BITMAP
F0
F0
F0
F0
00
00
00
00
00
00
00
00
FF
FF
FF
FF
ENDCHAR

STARTCHAR U+28C2
ENCODING 10434
SWIDTH 500 0
DWIDTH 8 0
BBX 8 16 0 0
BITMAP
00
00
00
00
F0
F0
F0
F0
00
00
00
00
FF
FF
FF
FF
ENDCHAR

STARTCHAR U+28C3
ENCODING 10435
SWIDTH 500 0
DWIDTH 8 0
BBX 8 16 0 0
BITMAP
F0
F0
F0
F0
F0
F0
F0
F0
00
00
00
00
FF
FF
FF
FF
ENDCHAR

STARTCHAR U+28C4
ENCODING 10436
SWIDTH 500 0
DWIDTH 8 0
BBX 8 16 0 0
BITMAP
00
00
00
00
00
00
00
00
F0
F0
F0
F0
FF
FF
FF
FF
ENDCHAR

STARTCHAR U+28C5
ENCODING 10437
SWIDTH 500 0
DWIDTH 8 0
BBX 8 16 0 0
BITMAP
F0
F0
F0
F0
00
00
00
00
F0
F0
F0
F0
FF
FF
FF
FF
ENDCHAR

STARTCHAR U+28C6
ENCODING 10438
SWIDTH 500 0
DWIDTH 8 0
BBX 8 16 0 0
BITMAP
00
00
00
00
F0
F0
F0
F0
F0
F0
F0
F0
FF
FF
FF
FF
ENDCHAR

STARTCHAR U+28C7
ENCODING 10439
SWIDTH 500 0
DWIDTH 8 0
BBX 8 16 0 0
BITMAP
F0
F0
F0
F0
F0
F0
F0
F0
F0
F0
F0
F0
FF
FF
FF
FF
ENDCHAR

STARTCHAR U+28C8
ENCODING 10440
SWIDTH 500 0
DWIDTH 8 0
BBX 8 16 0 0
BITMAP
0F
0F
0F
0F
00
00
00
00
00
00
00
00
FF
FF
FF
FF
ENDCHAR

STARTCHAR U+28C9
ENCODING 10441
SWIDTH 500 0
DWIDTH 8 0
BBX 8 16 0 0
BITMAP
FF
FF
FF
FF
00
00
00
00
00
00
00
00
FF
FF
FF
FF
ENDCHAR

STARTCHAR U+28CA
ENCODING 10442
SWIDTH 500 0
DWIDTH 8 0
BBX 8 16 0 0
BITMAP
0F
0F
0F
0F
F0
F0
F0
F0
00
00
00
00
FF
FF
FF
FF
ENDCHAR

STARTCHAR U+28CB
ENCODING 10443
SWIDTH 500 0
DWIDTH 8 0
BBX 8 16 0 0
BITMAP
FF
FF
FF
FF
F0
F0
F0
F0
00
00
00
00
FF
FF
FF
FF
ENDCHAR

STARTCHAR U+28CC
ENCODING 10444
SWIDTH 500 0
DWIDTH 8 0
BBX 8 16 0 0
BITMAP
0F
0F
0F
0F
00
00
00
00
F0
F0
F0
F0
FF
FF
FF
FF
ENDCHAR

STARTCHAR U+28CD
ENCODING 10445
SWIDTH 500 0
DWIDTH 8 0
BBX 8 16 0 0
BITMAP
FF
FF
FF
FF
00
00
00
00
F0
F0
F0
F0
FF
FF
FF
FF
ENDCHAR

STARTCHAR U+28CE
ENCODING 10446
SWIDTH 500 0
DWIDTH 8 0
BBX 8 16 0 0
BITMAP
0F
0F
0F
0F
F0
F0
F0
F0
F0
F0
F0
F0
FF
FF
FF
FF
ENDCHAR

STARTCHAR U+28CF
ENCODING 10447
SWIDTH 500 0
DWIDTH 8 0
BBX 8 16 0 0
BITMAP
FF
FF
FF
FF
F0
F0
F0
F0
F0
F0
F0
F0
FF
FF
FF
FF
ENDCHAR

STARTCHAR U+28D0
ENCODING 10448
SWIDTH 500 0
DWIDTH 8 0
BBX 8 16 0 0
BITMAP
00
00
00
00
0F
0F
0F
0F
00
00
00
00
FF
FF
FF
FF
ENDCHAR

STARTCHAR U+28D1
ENCODING 10449
SWIDTH 500 0
DWIDTH 8 0
BBX 8 16 0 0
BITMAP
F0
F0
F0
F0
0F
0F
0F
0F
00
00
00
00
FF
FF
FF
FF
ENDCHAR

STARTCHAR U+28D2
ENCODING 10450
SWIDTH 500 0
DWIDTH 8 0
BBX 8 16 0 0
BITMAP
00
00
00
00
FF
FF
FF
FF
00
00
00
00
FF
FF
FF
FF
ENDCHAR

STARTCHAR U+28D3
ENCODING 10451
SWIDTH 500 0
DWIDTH 8 0
BBX 8 16 0 0
BITMAP
F0
F0
F0
F0
FF
FF
FF
FF
00
00
00
00
FF
FF
FF
FF
ENDCHAR

STARTCHAR U+28D4
ENCODING 10452
SWIDTH 500 0
DWIDTH 8 0
BBX 8 16 0 0
BITMAP
00
00
00
00
0F
0F
0F
0F
F0
F0
F0
F0
FF
FF
FF
FF
ENDCHAR

STARTCHAR U+28D5
ENCODING 10453
SWIDTH 500 0
DWIDTH 8 0
BBX 8 16 0 0
BITMAP
F0
F0
F0
F0
0F
0F
0F
0F
F0
F0
F0
F0
FF
FF
FF
FF
ENDCHAR

STARTCHAR U+28D6
ENCODING 10454
SWIDTH 500 0
DWIDTH 8 0
BBX 8 16 0 0
BITMAP
00
00
00
00
FF
FF
FF
FF
F0
F0
F0
F0
FF
FF
FF
FF
ENDCHAR

STARTCHAR U+28D7
ENCODING 10455
SWIDTH 500 0
DWIDTH 8 0
BBX 8 16 0 0
BITMAP
F0
F0
F0
F0
FF
FF
FF
FF
F0
F0
F0
F0
FF
FF
FF
FF
ENDCHAR

STARTCHAR U+28D8
ENCODING 10456
SWIDTH 500 0
DWIDTH 8 0
BBX 8 16 0 0
BITMAP
0F
0F
0F
0F
0F
0F
0F
0F
00
00
00
00
FF
FF
FF
FF
ENDCHAR

STARTCHAR U+28D9
ENCODING 10457
SWIDTH 500 0
DWIDTH 8 0
BBX 8 16 0 0
BITMAP
FF
FF
FF
FF
0F
0F
0F
0F
00
00
00
00
FF
FF
FF
FF
ENDCHAR

STARTCHAR U+28DA
ENCODING 10458
SWIDTH 500 0
DWIDTH 8 0
BBX 8 16 0 0
BITMAP
0F
0F
0F
0F
FF
FF
FF
FF
00
00
00
00
FF
FF
FF
FF
ENDCHAR

STARTCHAR U+28DB
ENCODING 10459
SWIDTH 500 0
DWIDTH 8 0
BBX 8 16 0 0
BITMAP
FF
FF
FF
FF
FF
FF
FF
FF
00
00
00
00
FF
FF
FF
FF
ENDCHAR

STARTCHAR U+28DC
ENCODING 10460
SWIDTH 500 0
DWIDTH 8 0
BBX 8 16 0 0
BITMAP
0F
0F
0F
0F
0F
0F
0F
0F
F0
F0
F0
F0
FF
FF
FF
FF
ENDCHAR

STARTCHAR U+28DD
ENCODING 10461
SWIDTH 500 0
DWIDTH 8 0
BBX 8 16 0 0
BITMAP
FF
FF
FF
FF
0F
0F
0F
0F
F0
F0
F0
F0
FF
FF
FF
FF
ENDCHAR

STARTCHAR U+28DE
ENCODING 10462
SWIDTH 500 0
DWIDTH 8 0
BBX 8 16 0 0
BITMAP
0F
0F
0F
0F
FF
FF
FF
FF
F0
F0
F0
F0
FF
FF
FF
FF
ENDCHAR

STARTCHAR U+28DF
ENCODING 10463
SWIDTH 500 0
DWIDTH 8 0
BBX 8 16 0 0
BITMAP
FF
FF
FF
FF
FF
FF
FF
FF
F0
F0
F0
F0
FF
FF
FF
FF
ENDCHAR

STARTCHAR U+28E0
ENCODING 10464
SWIDTH 500 0
DWIDTH 8 0
BBX 8 16 0 0
BITMAP
00
00
00
00
00
00
00
00
0F
0F
0F
0F
FF
FF
FF
FF
ENDCHAR

STARTCHAR U+28E1
ENCODING 10465
SWIDTH 500 0
DWIDTH 8 0
BBX 8 16 0 0
BITMAP
F0
F0
F0
F0
00
00
00
00
0F
0F
0F
0F
FF
FF
FF
FF
ENDCHAR

STARTCHAR U+28E2
ENCODING 10466
SWIDTH 500 0
DWIDTH 8 0
BBX 8 16 0 0
BITMAP
00
00
00
00
F0
F0
F0
F0
0F
0F
0F
0F
FF
FF
FF
FF
ENDCHAR

STARTCHAR U+28E3
ENCODING 10467
SWIDTH 500 0
DWIDTH 8 0
BBX 8 16 0 0
BITMAP
F0
F0
F0
F0
F0
F0
F0
F0
0F
0F
0F
0F
FF
FF
FF
FF
ENDCHAR

STARTCHAR U+28E4
ENCODING 10468
SWIDTH 500 0
DWIDTH 8 0
BBX 8 16 0 0
BITMAP
00
00
00
00
00
00
00
00
FF
FF
FF
FF
FF
FF
FF
FF
ENDCHAR

STARTCHAR U+28E5
ENCODING 10469
SWIDTH 500 0
DWIDTH 8 0
BBX 8 16 0 0
BITMAP
F0
F0
F0
F0
00
00
00
00
FF
FF
FF
FF
FF
FF
FF
FF
ENDCHAR

STARTCHAR U+28E6
ENCODING 10470
SWIDTH 500 0
DWIDTH 8 0
BBX 8 16 0 0
BITMAP
00
00
00
00
F0
F0
F0
F0
FF
FF
FF
FF
FF
FF
FF
FF
ENDCHAR

STARTCHAR U+28E7
ENCODING 10471
SWIDTH 500 0
DWIDTH 8 0
BBX 8 16 0 0
BITMAP
F0
F0
F0
F0
F0
F0
F0
F0
FF
FF
FF
FF
FF
FF
FF
FF
ENDCHAR

STARTCHAR U+28E8
ENCODING 10472
SWIDTH 500 0
DWIDTH 8 0
BBX 8 16 0 0
BITMAP
0F
0F
0F
0F
00
00
00
00
0F
0F
0F
0F
FF
FF
FF
FF
ENDCHAR

STARTCHAR U+28E9
ENCODING 10473
SWIDTH 500 0
DWIDTH 8 0
BBX 8 16 0 0
BITMAP
FF
FF
FF
FF
00
00
00
00
0F
0F
0F
0F
FF
FF
FF
FF
ENDCHAR

STARTCHAR U+28EA
ENCODING 10474
SWIDTH 500 0
DWIDTH 8 0
BBX 8 16 0 0
BITMAP
0F
0F
0F
0F
F0
F0
F0
F0
0F
0F
0F
0F
FF
FF
FF
FF
ENDCHAR

STARTCHAR U+28EB
ENCODING 10475
SWIDTH 500 0
DWIDTH 8 0
BBX 8 16 0 0
BITMAP
FF
FF
FF
FF
F0
F0
F0
F0
0F
0F
0F
0F
FF
FF
FF
FF
ENDCHAR

STARTCHAR U+28EC
ENCODING 10476
SWIDTH 500 0
DWIDTH 8 0
BBX 8 16 0 0
BITMAP
0F
0F
0F
0F
00
00
00
00
FF
FF
FF
FF
FF
FF
FF
FF
ENDCHAR

STARTCHAR U+28ED
ENCODING 10477
SWIDTH 500 0
DWIDTH 8 0
BBX 8 16 0 0
BITMAP
FF
FF
FF
FF
00
00
00
00
FF
FF
FF
FF
FF
FF
FF
FF
ENDCHAR

STARTCHAR U+28EE
ENCODING 10478
SWIDTH 500 0
DWIDTH 8 0
BBX 8 16 0 0
BITMAP
0F
0F
0F
0F
F0
F0
F0
F0
FF
FF
FF
FF
FF
FF
FF
FF
ENDCHAR

STARTCHAR U+28EF
ENCODING 10479
SWIDTH 500 0
DWIDTH 8 0
BBX 8 16 0 0
BITMAP
FF
FF
FF
FF
F0
F0
F0
F0
FF
FF
FF
FF
FF
FF
FF
FF
ENDCHAR

STARTCHAR U+28F0
ENCODING 10480
SWIDTH 500 0
DWIDTH 8 0
BBX 8 16 0 0
BITMAP
00
00
00
00
0F
0F
0F
0F
0F
0F
0F
0F
FF
FF
FF
FF
ENDCHAR

STARTCHAR U+28F1
ENCODING 10481
SWIDTH 500 0
DWIDTH 8 0
BBX 8 16 0 0
BITMAP
F0
F0
F0
F0
0F
0F
0F
0F
0F
0F
0F
0F
FF
FF
FF
FF
ENDCHAR

STARTCHAR U+28F2
ENCODING 10482
SWIDTH 500 0
DWIDTH 8 0
BBX 8 16 0 0
BITMAP
00
00
00
00
FF
FF
FF
FF
0F
0F
0F
0F
FF
FF
FF
FF
ENDCHAR

STARTCHAR U+28F3
ENCODING 10483
SWIDTH 500 0
DWIDTH 8 0
BBX 8 16 0 0
BITMAP
F0
F0
F0
F0
FF
FF
FF
FF
0F
0F
0F
0F
FF
FF
FF
FF
ENDCHAR

STARTCHAR U+28F4
ENCODING 10484
SWIDTH 500 0
DWIDTH 8 0
BBX 8 16 0 0
BITMAP
00
00
00
00
0F
0F
0F
0F
FF
FF
FF
FF
FF
FF
FF
FF
ENDCHAR

STARTCHAR U+28F5
ENCODING 10485
SWIDTH 500 0
DWIDTH 8 0
BBX 8 16 0 0
BITMAP
F0
F0
F0
F0
0F
0F
0F
0F
FF
FF
FF
FF
FF
FF
FF
FF
ENDCHAR

STARTCHAR U+28F6
ENCODING 10486
SWIDTH 500 0
DWIDTH 8 0
BBX 8 16 0 0
BITMAP
00
00
00
00
FF
FF
FF
FF
FF
FF
FF
FF
FF
FF
FF
FF
ENDCHAR

STARTCHAR U+28F7
ENCODING 10487
SWIDTH 500 0
DWIDTH 8 0
BBX 8 16 0 0
BITMAP
F0
F0
F0
F0
FF
FF
FF
FF
FF
FF
FF
FF
FF
FF
FF
FF
ENDCHAR

STARTCHAR U+28F8
ENCODING 10488
SWIDTH 500 0
DWIDTH 8 0
BBX 8 16 0 0
BITMAP
0F
0F
0F
0F
0F
0F
0F
0F
0F
0F
0F
0F
FF
FF
FF
FF
ENDCHAR

STARTCHAR U+28F9
ENCODING 10489
SWIDTH 500 0
DWIDTH 8 0
BBX 8 16 0 0
BITMAP
FF
FF
FF
FF
0F
0F
0F
0F
0F
0F
0F
0F
FF
FF
FF
FF
ENDCHAR

STARTCHAR U+28FA
ENCODING 10490
SWIDTH 500 0
DWIDTH 8 0
BBX 8 16 0 0
BITMAP
0F
0F
0F
0F
FF
FF
FF
FF
0F
0F
0F
0F
FF
FF
FF
FF
ENDCHAR

STARTCHAR U+28FB
ENCODING 10491
SWIDTH 500 0
DWIDTH 8 0
BBX 8 16 0 0
BITMAP
FF
FF
FF
FF
FF
FF
FF
FF
0F
0F
0F
0F
FF
FF
FF
FF
ENDCHAR

STARTCHAR U+28FC
ENCODING 10492
SWIDTH 500 0
DWIDTH 8 0
BBX 8 16 0 0
BITMAP
0F
0F
0F
0F
0F
0F
0F
0F
FF
FF
FF
FF
FF
FF
FF
FF
ENDCHAR

STARTCHAR U+28FD
ENCODING 10493
SWIDTH 500 0
DWIDTH 8 0
BBX 8 16 0 0
BITMAP
FF
FF
FF
FF
0F
0F
0F
0F
FF
FF
FF
FF
FF
FF
FF
FF
ENDCHAR

STARTCHAR U+28FE
ENCODING 10494
SWIDTH 500 0
DWIDTH 8 0
BBX 8 16 0 0
BITMAP
0F
0F
0F
0F
FF
FF
FF
FF
FF
FF
FF
FF
FF
FF
FF
FF
ENDCHAR

STARTCHAR U+28FF
ENCODING 10495
SWIDTH 500 0
DWIDTH 8 0
BBX 8 16 0 0
BITMAP
FF
FF
FF
FF
FF
FF
FF
FF
FF
FF
FF
FF
FF
FF
FF
FF
ENDCHAR

ENDFONT
